<?xml version="1.0" encoding="utf-8"?>
<!-- Generator: Adobe Illustrator 21.1.0, SVG Export Plug-In . SVG Version: 6.00 Build 0)  -->
<svg version="1.0" id="_x30_1_x5F_배경" xmlns="http://www.w3.org/2000/svg" xmlns:xlink="http://www.w3.org/1999/xlink" x="0px"
	 y="0px" width="892.9px" height="609.4px" viewBox="0 0 892.9 609.4" enable-background="new 0 0 892.9 609.4"
	 xml:space="preserve">
<rect x="-8.1" y="-12.3" fill="#E2EFDD" width="910" height="636"/>
<path fill="none" d="M368.3-372.3c0.3-0.3,0.6-0.5,0.8-0.7C368.9-372.8,368.7-372.6,368.3-372.3z"/>
<path fill="none" d="M714.6-377.4c0.1,0,0.3,0,0.4-0.1C714.9-377.4,714.8-377.4,714.6-377.4C714.6-377.4,714.6-377.4,714.6-377.4z"
	/>
<path fill="none" d="M714.2-376.9c0.1,0,0.2-0.3,0.3-0.5c0,0,0,0,0,0C714.3-377.2,714.3-376.9,714.2-376.9z"/>
<path fill="none" d="M715-377.5C715-377.5,715-377.5,715-377.5C715-377.5,715-377.5,715-377.5L715-377.5z"/>
<path fill="#FFFFFF" d="M714.5-377.3C714.5-377.3,714.5-377.4,714.5-377.3C714.5-377.4,714.5-377.3,714.5-377.3c0,0,0.1,0,0.1-0.1
	c0,0,0,0,0,0C714.6-377.4,714.5-377.4,714.5-377.3C714.5-377.4,714.5-377.4,714.5-377.3C714.4-377.4,714.4-377.4,714.5-377.3
	C714.4-377.3,714.4-377.3,714.5-377.3C714.5-377.3,714.5-377.3,714.5-377.3z"/>
<path fill="#FFFFFF" d="M715-377.5L715-377.5C715-377.5,715-377.5,715-377.5c-0.1-0.1-0.1-0.1-0.1-0.1c-0.1,0-0.1,0.1-0.2,0.1
	c0,0-0.1,0-0.1,0C714.8-377.4,714.9-377.4,715-377.5L715-377.5z"/>
<g>
	<g>
		<path fill="#FFFFFF" d="M341.3,203.3c-0.6-1.6-1.1-3.2-1.5-4.8c-1.5,1.6-2.8,3.4-3.9,5.3c0,0,0,0,0,0c0.3,0.2,0.6,0.4,0.8,0.7
			C337.9,203.2,339.3,202.9,341.3,203.3z"/>
		<path fill="#565755" d="M380.1,364.3c0.3,0.4,0.5,1,0.1,1.6c3.4,0,6.8-0.3,10.2-1.1c1.9-0.5,3.7-1.2,4.8-2.8
			c1-1.5,1.6-3.3,2.3-4.9c2.6-6.7,4.9-13.5,6.8-20.4c-0.4-0.7,0-1.9,1-1.9c3.1-0.2,7.2-0.1,10,1.7c0.8,0.5,1.3,1.1,1.5,1.8
			c0.4,0.1,0.8,0.5,0.8,1.1c-0.4,5.7-1.1,11.4-2.2,17c-0.3,1.5-0.6,3-1,4.5c-0.3,1.2-0.8,2.6-0.7,3.8c3.9-1,7.8-1.6,11.8-1.8
			c0.1-0.2,0.3-0.4,0.6-0.5c1.2-4.4,2.4-8.9,3.5-13.3c1.2-4.4,2.7-8.9,2.9-13.5c0.2-4.6-0.8-9.9-5.7-11.5c-3.6-1.2-7.3-1.6-11.1-1.4
			c-0.3,0.1-0.6,0.2-0.8,0.3c-0.4,0.1-0.7,0-1-0.1c-0.1,0-0.3,0-0.4,0c-1.6,0.1-1.5-2.3,0-2.4c0.6-0.1,1.2-0.1,1.9-0.1
			c6.7-2.1,13.1-5.1,18.9-9.1c5-3.5,9.7-8.2,11.1-14.3c1.6-6.6-1.2-12.3-6.6-16c-10.1-7-23.7-6.3-35-3.2
			C399.5,307.1,389.3,335.6,380.1,364.3z M409.6,307.6c1.2-6.2,2.6-12.2,4.5-18.2c0.1-0.4,0.4-0.6,0.7-0.8c0.1-0.4,0.4-0.6,0.8-0.7
			c3.2-0.5,7.6-1.1,10.5,0.7c2.6,1.6,2.4,4.9,1,7.3c-1.8,3.1-4.7,5.9-7.4,8.2c-2.4,2.1-5.3,5.1-8.7,5c-0.2,0-0.5-0.1-0.6-0.2
			C409.8,308.9,409.5,308.4,409.6,307.6z"/>
		<path fill="#95D2E9" d="M382.8,284c-0.8-0.3-1.4-0.8-2.2-1.2c-0.1-0.1-3.1-0.9-2.9-0.1c0.1,0.3,0.1,0.6,0,0.8c0,0,0.1,0,0.1,0.1
			c3.4,2.9,7.3,5.9,9.5,9.9c0.9,0.7,2.1,0.8,3.1-0.1c0.9-0.8,0.7-1.9,0.9-3.1c0.2-1.2,0.7-2.4,1.9-3c1.1-0.5,2.2-0.1,2.9,0.7
			c0.5,0.6,0.6,1.6,1.8,1.3c0.8-0.3,1.5-1.5,1.9-2.3c0.7-3.7,1.3-7.4,1.8-11.1c0.1-0.6,0.4-0.8,0.8-0.9c0,0,0,0,0,0
			c1.7-0.5,3.5-0.9,5.2-1.3c-2.6-2.8-6.7-1.9-9.5,0.5c-2.2,1.9-4.2,3.4-7.2,2.6c-1.2-0.3-2.2-0.6-3.2,0.2c-0.9,0.8-1.3,1.9-1.3,3.1
			c0,1.1,0.1,2.4-0.7,3.3C384.9,284.4,383.8,284.4,382.8,284z"/>
		<path fill="#C9E6EE" d="M359.5,256.4c-1.1,0.8-0.8,2.4-1.1,3.7c-0.1,0.7-0.4,1.5-0.7,2.2c0,0.1-0.1,0.2-0.1,0.3
			c2.3,1.8,6.1,2.3,8.7,2.9c2.2,0.5,4.4,1.1,5.5,3.3c0.5,1,0.5,2,0.7,3c0.2,1.5,1.4,2,2.3,3.1c1.3,1.5,2.2,3.3,2.5,5.3
			c0.2-0.1,0.3-0.1,0.5-0.1c2-0.4,3.3,0.7,5.1,1.3c0.8,0.3,0.8,0.5,1-0.3c0.1-0.5,0-1.2,0.1-1.8c0.1-0.4,0.2-0.9,0.3-1.3
			c0,0,0,0,0-0.1c-0.4-5.4-3.5-9.9-6.4-14.2c-2.7-3.9-5.5-7.8-9-11c-0.2,0.4-0.4,0.7-0.6,1c-1,1.3-2.6,1.7-4.2,1.9
			C362.6,255.7,360.7,255.5,359.5,256.4z"/>
		<path fill="#C9E6EE" d="M371.1,274.7c-1.6-1.5-0.4-3.7-1.7-5.3c-0.9-1.1-2.4-1.3-3.7-1.6c-1.5-0.3-3-0.7-4.5-1.1
			c-1.7-0.5-3.5-1.1-4.9-2.1c-0.4,0.5-0.8,0.9-1.3,1.2c-2.8,2.2-6.1,2.4-9.5,1.8c-2.3-0.4-4.5-1.2-6.8-1.2c-1.3,0-2.3,0.1-2.2,1.7
			c0,0.2,0.1,0.4,0.1,0.6c4.6,0.7,10.5,1.9,10.8,6.9c5.8-2.4,12.2-3.6,18.2-1.6c0.4,0.1,0.6,0.4,0.7,0.6c0.5,0.3,0.9,0.7,1.4,1
			c0.4-0.1,0.8,0,1.1,0.3c0.5,0.5,0.9,1,1.4,1.5c1.7,1.2,3.3,2.5,4.9,3.8C375,278.2,373.1,276.6,371.1,274.7z"/>
		<path fill="#3B3C3B" d="M336.3,371.5c7.4,0.2,14.3-3.2,20.2-7.4c10.2-7.3,18.2-17.6,23.2-29.1c2.8-6.3,4.7-12.9,5.9-19.7
			c1.1-6.2,2.4-13.8,0.1-19.8c-0.1-0.1-0.3-0.2-0.4-0.4c0,0,0,0,0,0c-0.1-0.1-0.2-0.1-0.2-0.2c-0.2-0.2-0.3-0.5-0.4-0.8
			c-2.2-3.4-5.7-6.1-8.7-8.7c-0.6-0.5-1.2-1-1.8-1.5c1.6,3.1,2.6,6.5,3.2,10c2.2,13.3-2.5,26.2-9.2,37.4
			c-6.7,11.2-15,22.7-26.6,29.2c-0.3,0.1-0.5,0.2-0.7,0.2c0,0-0.1,0.1-0.1,0.1c-6.3,3.5-13.6,4.4-20.4,2.6c1.4,1.2,2.8,2.3,4.3,3.4
			c3.3,2.4,6.9,4.5,11.1,4.7C336,371.3,336.2,371.4,336.3,371.5z"/>
		<path fill="#3B3C3B" d="M422.8,297.6c1.4-1.6,4.9-5.7,1.3-7.1c-2.3-0.9-5.4-0.5-7.8-0.2c-1.6,5.4-3,10.8-4.1,16.4
			c2.1-0.7,4.2-2.8,5.7-4.1C419.7,301,421.3,299.3,422.8,297.6z"/>
		<path fill="#95D2E9" d="M322.4,279c3.5,0,7.4-0.8,9.8-3.5c1.2-1.3,2-3.1,2.1-4.9c0-0.1,0-0.1,0-0.2c-0.2-0.3-0.3-0.7-0.1-1.1
			c-0.2-1-0.6-2-0.3-3c0.8-2.8,4.5-2.6,6.7-2.3c3.4,0.5,7.2,2.2,10.7,1c1.7-0.6,3.1-1.8,3.9-3.3c0.9-1.5,0.8-3,1.1-4.6
			c0.5-2.7,3.1-3.6,5.5-3.8c1.6-0.2,3.8,0,4.7-1.6c0.7-1.2,0.7-3.4,0.7-4.7c0-4.5-3.8-4.1-7-5.2c-1.6-0.5-2.4-1.8-3.8-2.5
			c-1.5-0.7-3.7-0.8-5.3-0.7c-1.2,0.1-2.7,0.4-3.4,1.5c-0.5,0.9-0.2,1.8,0.2,2.7c0.4,1,0.8,2,0.4,3.1c-1,2.8-5.9,1.9-8.1,2
			c-4.1,0.2-8.3,0.6-12.3,1.3c-3.7,0.7-7.6,1.5-10.9,3.4c-1.5,0.9-2.9,2.1-3.9,3.5c-0.4,0.5-2,2.5-1.5,3.2c1,0.7,2.8,1.7,3,2.9
			c0.3,1.4-1.1,2.2-2.2,2.7c-3.4,1.5-7.2,1-10.7,2c-3.8,1-7.4,4-8.5,7.9c-0.6,2.1-0.3,4.4,1.7,5.7c1.5,0.9,3.4,1,5.1,0.8
			c3.9-0.3,7.5-1.5,11.3-2.4C315,278,318.6,278.9,322.4,279z"/>
		<path fill="#3B3C3B" d="M331.2,344.9c0.7,0,1.3-0.2,2-0.3c0-0.2-0.1-0.4,0-0.6c1.8-10.2,5.2-20,10.1-29.1
			c2.4-4.4,5.1-8.8,8.3-12.7c2.4-3,5.3-5.5,9-6.4c-0.6-3.1-2.5-6-6.1-6.1c-0.3,0-0.5-0.1-0.7-0.2c-5.2,0.3-9.4,3.9-12.4,8
			c-3.1,4.1-5.8,8.7-8.3,13.2c-4.2,7.7-8.3,16.5-8.8,25.4C324.1,340.5,325.8,345.1,331.2,344.9z"/>
		<path fill="#3B3C3B" d="M435,371c0.1,0,0.2,0,0.3,0.1c2.3-9.5,4.2-19.1,5.9-28.7c0-0.1,0-0.2,0-0.3c0.5-3.6-1.6-6.8-4-9.4
			c-0.9-0.9-1.7-1.9-2.6-2.8c0.1,0.6,0.2,1.2,0.3,1.9c0.6,5.3-0.9,10.4-2.2,15.4c-1.4,5.4-2.9,10.8-4.3,16.2
			C430.6,366,432.8,368.5,435,371z"/>
		<path fill="#565755" d="M339.5,358.6c0.3-0.1,0.5-0.2,0.7-0.2c0,0,0.1-0.1,0.1-0.1c6.2-3.4,11.3-8.3,15.7-13.8
			c8-9.9,15.4-21.5,18.3-34c2.5-10.7,1.1-22.8-6-31.4c-1.2-0.9-2.3-1.7-3.5-2.6c-0.2-0.1-0.3-0.2-0.4-0.4c-6.6-2-13.6,0-19.5,3.1
			c-5.4,2.8-10.1,6.7-14,11.4c-0.1,0.1-0.2,0.2-0.3,0.3c-7.9,9.5-13.9,20.5-17.4,32.4c-1.9,6.5-3.3,13.3-3.3,20
			c0,4.6,0.4,10.7,3.8,14.2c0.2,0.1,0.3,0.1,0.5,0.3c0.3,0.3,0.6,0.6,1,0.9c0.1,0.1,0.2,0.1,0.3,0.2c0.1,0,0.2,0.1,0.4,0.1
			C323.4,362.8,332.3,362.6,339.5,358.6z M321.8,337.2c0-5.2,1.6-10.5,3.4-15.4c1.9-5.2,4.4-10.1,7.2-14.9
			c4.9-8.4,11.2-20.2,22.5-20c0.4,0,0.7,0.2,0.9,0.4c4.4,0.9,7.2,5.1,7.5,9.4c0.5,6.3-2.8,13.1-5.1,18.8c-4.1,9.7-8.8,20-17,26.9
			c-3.6,3-8.2,5.8-13,4.4C323.6,345.7,321.9,341.5,321.8,337.2z"/>
		<path fill="#C9E6EE" d="M351.5,306.3c-2.7,3.7-5.1,7.6-7.1,11.7c-4.1,8-7,16.7-8.7,25.5c2.7-1.4,5.1-3.8,7.1-5.9
			c6.1-6.6,9.9-15.1,13.3-23.3c1.8-4.5,3.9-9.2,4.6-14c0.1-0.7,0.1-1.4,0.1-2.1C356.8,299.2,353.9,303,351.5,306.3z"/>
		<path fill="#C9E6EE" d="M319,288.1c2.8,0.8,5.4,2.2,7.6,4.1c1.1-1.4,2.2-2.8,3.4-4.1c0.1-0.1,0.2-0.2,0.3-0.2c0,0,0.1-0.1,0.1-0.1
			c-1-1.4-2.4-2.5-4-3.2c-1-0.4-0.1-1.8,0.8-1.4c1.7,0.7,3.2,1.9,4.3,3.4c3.8-4.1,8.4-7.5,13.5-9.9c0.2-2.4-1.1-3.6-3.4-4.3
			c-1.6-0.5-3.2-0.9-4.8-1.2c-0.4,7.1-8.1,10.4-14.4,10.3c-2.2,0-4.4-0.5-6.7-0.6c-2-0.1-3.9,0.3-5.8,0.8
			C313.5,282.8,316.7,284.8,319,288.1z"/>
		<path fill="#C9E7E7" d="M325.1,294.2c-4-3.8-9.7-5.1-15.1-4.2c-2.9,0.5-5.7,1.5-8.3,2.8c-1,0.5-2.1,1.3-3.2,1.6
			c-1.3,0.3-2.3,0.2-3.4,0.8c-0.3,0.6-0.8,0.9-1.5,0.6c-0.2-0.1-0.5-0.2-0.6-0.4c-4.1-2.9-9.1-4-14.1-3.9c-5,0.2-11,1.3-14.5,5.1
			c-0.4,0.5-1.3,0.5-1.7,0c-3.1-3.2-7.9-3-11.7-1.1c-1.9,1-3.6,2.1-5.2,3.5c-0.2,0.4-0.5,0.8-1,0.9c-0.9,0.9-1.8,1.8-2.6,2.7
			c-1,1.2-2.7-0.5-1.7-1.7c0.5-0.6,1.1-1.2,1.7-1.8c-4.4-1.4-9.1-0.7-13.5,0.7c-4.6,1.5-9.5,3.4-13.5,6.1c-3.9,2.6-8.3,6.6-9.6,11.2
			c-1.2,4.5-0.6,9.4,1,13.8c1.1-2.3,2.5-4.5,4.1-6.5c1-1.2,2.7,0.5,1.7,1.7c-5.1,6.3-7.5,14.6-6.6,22.6c0.5,4.4,1.9,8.4,5.8,10.9
			c3.7,2.4,8.2,2.8,12.5,2.6c1.6-0.1,1.6,2.4,0,2.4c-1.4,0-2.8,0-4.2-0.1c0,3.3,1,7.3,3.7,9.1c2.7,1.8,6.3,3,9.5,3.7
			c3.2,0.8,7.6,1.4,10.7-0.1c1.3-0.6,1.9-1.7,3.4-1.9c1.6-0.3,3-0.5,3.8-2c-0.6-0.2-1.3-0.4-1.9-0.7c-1.4-0.6-0.2-2.7,1.2-2.1
			c4.5,1.9,10,1.9,14.8,1.9c4.5,0,9.1-0.5,13.5-1.6c3.9-1,7.7-2.7,10.4-5.7c2.8-3.2,3.9-7.4,3.8-11.6c-0.7,0.4-1.5,0.6-2.3,0.4
			c-1.5-0.4-0.9-2.7,0.6-2.3c0.6,0.2,3.1-1.8,3.5-2.2c1-0.8,1.8-1.8,2.5-2.9c1.2-2,1.8-4.4,1.6-6.8c-0.2-2.5-1.3-4.8-3-6.6
			c-0.8-0.8-1.7-1.5-2.7-2.1c-0.6-0.3-2.6-1.5-3.3-1.2c-0.1,0.9-0.3,1.7-0.5,2.6c-0.3,1.5-2.7,0.9-2.3-0.6c1-4.8,2-10.7-1.8-14.6
			c-3.1-3.2-8.1-4.1-12.4-4.4c-8.7-0.6-19.9,1.3-25.4,8.8c-0.3,0.5-0.8,0.7-1.4,0.6c-5.9-1.4-12,0.8-15.8,5.4
			c-1,1.2-2.7-0.5-1.7-1.7c4.2-5.1,11-7.5,17.4-6.2c6.7-8.3,19.2-10.3,29.2-9.1c4.7,0.6,9.9,2,12.8,6c2.3,3.1,2.6,6.9,2.2,10.6
			c2.4,0,5.4,2.2,6.7,3.5c1.9,1.7,3.3,4,4,6.5c2.6-0.1,5.1-0.9,7.1-2.6c0.1-0.1,0.2-0.1,0.3-0.2c0.5-3.4,1.3-6.7,2.1-10
			C313.4,313.7,318.4,303.4,325.1,294.2z"/>
		<path fill="#3B3C3B" d="M414.9,366.8c0.7,0.8,1.5,1.5,2.2,2.2c1.1,1.2,2.2,2.3,3.3,3.5c0,0.1,0.1,0.1,0.1,0.2c4-0.3,8-0.6,12-1
			c-2-2.2-3.9-4.4-5.9-6.6C422.6,365.3,418.7,365.8,414.9,366.8z"/>
		<path fill="#F099BF" d="M380.9,246.9c2.1-1.6,5-2.3,6.3-4.7c0.1-0.1,0.1-0.2,0.2-0.3c0.4-3.4,1.8-6,5.4-7.3c1.6-0.6,3.3-0.7,5-0.7
			c-0.9-1.1-1.7-2.3-2.4-3.5c-5.6,6.6-13.5,10.8-22,12c1.9,1.5,3.9,2.9,5.9,4.3c0.1,0.1,0.3,0.2,0.3,0.3c0.1,0.1,0.2,0.2,0.4,0.2
			c0.1,0.1,0.2,0.1,0.4,0.2C380.4,247.2,380.6,247.1,380.9,246.9z"/>
		<path fill="#F099BF" d="M390.9,198c-4.2-1.5-8.4-2.9-12.5-4.3c-2-0.7-4.1-1.3-6.1-2c0.3,8-3.5,15.8-10.3,20.3
			c-3.4,2.3-7.5,3.6-11.7,3.9c1.3,2.2,2.6,4.4,4.1,6.5c1.7,2.4,3.5,4.8,5.4,7C376.7,228.6,390.3,214.9,390.9,198z"/>
		<path fill="#FFFFFF" d="M318.2,217.7c-0.5,1.1-0.9,2.3-1.1,3.5c-0.1,0.8-0.4,1.7,0.9,1.1c0.4-0.2,0.7-0.7,1-0.9
			c1.8-1.7,3.4-3.6,5-5.5c0.1-0.2,0.3-0.3,0.4-0.3c0.5-1.7,1.5-4.4,2.8-6.8C322.8,209.4,319.8,213.8,318.2,217.7z"/>
		<path fill="#FFFFFF" d="M346.6,215c-1.2-2.3-2.4-4.6-3.4-7c-0.4-1-0.9-2-1.3-3.1c-0.1,0-0.3,0.1-0.5,0c-1.4-0.3-2.6-0.6-3.7,0.7
			c-0.4,0.5-0.6,1.2-0.9,1.7c-0.7,1.5-1.3,3-1.7,4.5c-0.4,1.5-0.8,3.1-1,4.7c-0.1,0.8-0.2,2.8,1.3,2.1c0.5-0.2,1-1.3,1.3-1.8
			c1.1-1.8,1.2-4.8,3-6.1c1.2-0.8,2.9-0.6,3.5,0.7c0.4,0.9-1,1.8-1.4,0.8c-1.1,0-1.7,0.4-1.9,1.1c-0.1,0.2-0.1,0.4-0.2,0.6
			c-0.1,0.4-0.2,0.8-0.4,1.2c-0.3,0.8-0.6,1.5-1,2.2c-0.6,1-1.4,2.4-2.5,3.1c-2.6,1.6-3.6-1.6-3.4-3.6c0.4-3.7,1.4-7.4,3.1-10.7
			c0.1-0.2,0.2-0.3,0.2-0.5c-4.9-4.4-8.4,5.9-9.5,9.1c-0.3,0.9-1.3,2.9-0.5,3.8c0.1,0.5,0.3,0.6,0.6,0.3c0.4-0.2,0.8-0.4,1.1-0.7
			c0.4-0.4,0.8-0.9,1.1-1.3c1.3-1.9,2.2-4.1,3.2-6.2c0.5-0.9,1.9-0.1,1.4,0.8c-1.3,2.6-2.6,6.5-5.1,8.4c0,0.1,0.1,0.2,0.1,0.3
			c0.2,2.7,2.9,6.9,6,5.5c0.8-0.4,1.5-0.7,2.2-0.6c0.2-1.4,0.7-2.6,1.6-3.8c1.1-1.6,3.1-2.6,3.6-4.6c0.1-0.4,0.4-0.6,0.8-0.6
			c0,0,0.1,0,0.1,0c0.5-0.1,0.8,0.4,0.8,0.8c0,0,0,0.1,0,0.1c0,0.3-0.1,0.5-0.3,0.6c-0.4,1.2-1.2,2.1-2.1,3c-1.1,1-1.9,2.1-2.4,3.3
			c0.1,0.2,0.2,0.5-0.1,0.8c0.5,1.5,1.3,2,2.3,1.5c0.3-0.1,0.6-0.2,0.8-0.3c0.5-0.2,0.9-0.5,1.3-0.8c0.8-0.6,1.5-1.2,2.2-2
			c1.2-1.3,2.3-2.9,3.3-4.4c0,0,0-0.1,0.1-0.1c0.1-0.1,0.1-0.2,0.2-0.3C347.8,217.2,347.2,216.1,346.6,215
			C346.6,215,346.6,215,346.6,215z"/>
		<path fill="#95D2E9" d="M405.5,252.8c2.1-0.7,4.3-0.7,6.4-1c1.1-0.1,2.2-0.3,3.2-0.7c1.7-0.6,2.1-1.7,2.9-3.2
			c1.9-3.5,6.2-3.5,9.6-4.4c2.1-0.5,4.5-1.6,5.4-3.6c0.9-2.1,0.2-3.9,2.6-5.3c4.3-2.5,9.8-1.5,14.3-3.2c2.5-1,3.9-2.5,5-4.9
			c1-2.1,2.8-3.2,4.8-4.2c2.1-1.1,4.4-1.7,6.7-2.1c0.9-0.2,1.9-0.3,2.6-0.9c1.3-1,0.7-3.2-1.1-2.8c-1.6,0.3-2.4-1.7-1.1-2.6
			c1-0.8,2.2-0.6,3.4-0.4c0.1,0,0.3,0.1,0.4,0.1c0.5,0.1,0.6,0.1,0.1-0.1c-0.2-0.2-0.8-0.5-1.1-0.7c-0.7-0.4-1.4-0.6-2.2-0.8
			c-4.1-0.8-8.6-0.5-12.8-0.6c-3.8-0.1-8-0.8-11.8,0.1c-1.7,0.4-3.4,1.1-4.5,2.5c-0.5,0.6-0.8,1.3-1,2c0,0.3,0,0.6-0.2,0.8
			c-0.1,0.1-0.2,0.2-0.2,0.3c-0.1,0.2-0.2,0.4-0.3,0.7c-1.5,2.8-5.5,3.2-8.3,3.9c-3.7,0.8-7.6,1-11.3,1.8c-3.1,0.6-7,2.1-7.6,5.7
			c-0.3,1.5,0.1,3-0.5,4.4c-0.5,1.2-1.5,1.9-2.7,2.4c-3.3,1.3-6.7,0.6-10.1,0.9c-1.6,0.2-3.4,0.6-4.6,1.7c-1.3,1.2-1.4,3-1.5,4.7
			c0,0.8-0.6,1.2-1.2,1.3c-2.8,3.2-9.4,4.4-9,9.3c0.2,2.7,2.7,3,4.6,4.1c1.8,1.1,2.6,2.6,2.4,4.7c-0.1,0.9-0.5,1.8,0.2,2.5
			c0.4,0.5,1.4,0.7,2,0.9c1.1,0.2,2.3,0.2,3.4-0.1c2.5-0.6,4-2.4,5.2-4.6C399.6,257.8,401.1,254.2,405.5,252.8z"/>
		<path fill="#3B3C3B" d="M403.9,371.2c1.1-2.2,1.2-5,1.7-7.3c1.2-5.6,3.1-11.1,5.5-16.3c0.6-1.3,1.2-2.6,1.9-3.9
			c0.7-1.3,2.5-3.7,1.3-5.1c-0.8-1-3.2-1.2-4.3-1.4c-1.1-0.2-2.1-0.2-3.2-0.2c-2.2,8-4.8,15.9-8.1,23.5c-0.6,1.3-1.2,2.4-2,3.3
			c1.8,3,3.9,5.9,6.2,8.6C403.3,372.2,403.6,371.8,403.9,371.2z"/>
		<path fill="#3B3C3B" d="M391.1,367.1c-3,0.7-6.1,1.1-9.2,1.2c1.7,1.5,3.4,3,5.2,4.1c2.6,1.5,5.9,1.1,8.8,1.1c1.4,0,3.1,0.2,4.6,0
			c-2.1-2.5-3.9-5.1-5.6-7.9C393.8,366.2,392.5,366.7,391.1,367.1z"/>
		<path fill="#C9E6EE" d="M421.7,272.7c1.5,0.1,2.9,0.2,4.4,0.4c3,0.4,6,1.3,8.9,2.5c0.3-0.1,0.6-0.1,0.9,0.1
			c1.3,0.7,2.6,1.4,3.9,2.1c0.7-0.9,0.8-2.9,0.8-3.6c0-1.5-0.6-3-1.4-4.3c-1.3-2.2-3.3-4.2-5.4-5.7c-4.1-3-9-4.7-14-5.6
			c-1.5-0.3-0.9-2.6,0.6-2.3c6.6,1.2,13.2,3.9,18,8.8c2.3,2.3,4.2,5.3,4.5,8.6c0.1,1.7-0.1,3.9-1.2,5.5c3.3,2,6.5,4.2,9.2,6.8
			c1.9,1.8,3.5,3.9,4.5,6.4c1.1,2.6,1.2,5.4,1.2,8.2c0,0.2-0.1,0.4-0.1,0.6c-0.8,12.4-10.4,21.8-22,25.4c4.2,4,8.8,8.6,9,14.4
			c0.1,0.2,0.2,0.5,0.1,0.8c-1.8,10.6-3.9,21.1-6.5,31.6c-0.2,0.7-0.8,1-1.4,0.8c-0.4,0.3-1,0.4-1.4,0c-4.8,0.4-9.5,0.8-14.3,1.1
			c-0.5,0-0.9-0.2-1-0.6c-0.2-0.1-0.4-0.2-0.6-0.3c-2.1-2.3-4.8-4.5-6.5-7.1c-1.6-2.4-0.4-5.3,0.2-7.8c1-4.3,1.7-8.7,2.2-13.1
			c-3,6.1-5.3,12.4-6.7,19.1c-0.6,2.8-0.7,6-2.5,8.2c-2,2.6-5.4,2.3-8.4,2.3c-2.3,0-4.9,0.3-7.2-0.1c-0.9,1.1-1.7,2.3-2.6,3.4
			c-0.1,0.1-0.1,0.2-0.2,0.2c4.5,0.6,8.8,1.9,13.3,3.1c2,0.5,4.1,0.9,6.2,1.2c0.1-0.1,0.1-0.2,0.2-0.2c1.5-2.4,2-5.8,2.5-8.6
			c0.2-1.5,2.6-0.9,2.3,0.6c-0.4,2.7-0.9,5.9-2.3,8.4c2.1,0.2,4.3,0.3,6.4,0.2c5.1-0.1,9.9-1.5,15-2c2.1-0.2,4.2-0.1,6.2,0.6
			c0.6,0.2,1.2,0.5,1.7,0.8c0.1-0.1,0.1-0.2,0.2-0.2c0.1-0.1,0.2-0.2,0.3-0.2c2.8-3.6,2-8.5,2.3-12.8c0.2-2,0.6-4,1.5-5.8
			c1-2.1,2.6-3.8,3.1-6.1c0.2-1,1.8-0.6,1.6,0.4c-0.5,2.4-2,4.1-3.1,6.2c-1.3,2.6-1.5,5.5-1.5,8.4c-0.1,3.9-0.2,7.9-2.7,10.9
			c1.1,0.4,2,0,3-0.7c0.1-0.3,0.4-0.6,0.8-0.7c6.3-1.4,13.2-2.6,19.1,0.7c2.9,1.6,5.3,4.2,8.6,5.1c2.8,0.8,6,0.6,8.4-1
			c1.7-1.1,2.7-2.9,4-4.3c1.7-4.5,3.7-8,8.3-10.2c5.1-2.4,9.1-6,11.1-11.4c0.4-1,1.9-0.6,1.6,0.4c-1.6,4.4-4.5,8.1-8.4,10.7
			c-2.4,1.5-5.2,2.2-7.3,4.3c-1.2,1.3-2.1,2.8-2.8,4.5c2.1-1,4.6-1.1,7-1c6.3,0.2,11.9,2.2,17.4,5.1c1.6,0.8,3.7,1.8,5.4,0.6
			c1.5-1.1,0.7-2.3,0-3.6c-0.6-0.9-0.9-1.9-0.8-2.9c-0.6-1.4,0.4-2.6,1.4-3.6c1-1,2-2,2.6-3.3c1.4-2.7-1.2-3-2.8-3.4
			c-4.5-1.2,0.5-6.5,2.7-7.5c0.9-0.4,1.8,1,0.8,1.4c-1.1,0.5-2.1,1.2-2.8,2.2c-0.4,0.6-0.8,1.1-0.5,1.8c0.3,0.7,0.5,0.5,1.2,0.6
			c1.3,0.2,2.6,0.7,3.2,1.9c0.7,1.3,0.1,2.8-0.6,4c-0.3,0.6-1.7,2-2.7,3.2c1.8-0.6,4.2-0.5,5.9-0.5c3,0,5.9,0.3,8.8,0.9
			c5.8,1.2,10.7,4,15.7,7.1c2.4,1.5,5,2.1,7.7,3.1c0.4,0.2,0.7,0.3,1.1,0.5c0.2-5.7,1.9-11.2,4.8-16.1c-2.3-0.7-4.5-1.8-6.5-3.6
			c-1.2,0.6-2.4,1.1-3.7,1.6c-0.3,0.1-0.5,0.1-0.7,0c-4.7,0.4-8.7-2.1-12.6-4.4c-4.8-2.8-9.5-5.8-14-9.1c-0.1-0.1-0.2-0.2-0.3-0.3
			c-6.3-5.5-6.6-15.5-5.7-23.2c1.1-9.5,4.6-18.4,8.5-27c3.8-9.4,9.6-17.9,17-24.8c7.8-7.3,17.8-13.1,28.8-11.7c0.2,0,0.3,0,0.5,0
			c0.1,0,0.1,0,0.2,0.1c0.1,0,0.2,0,0.4,0.1c0.2,0,0.4,0.1,0.6,0.3c0.7,0.3,1.3,0.6,1.9,0.9c0.1,0,0.3,0.1,0.5,0.2
			c0.1,0.1,0.1,0.1,0.2,0.2c1.3,0.8,2.6,1.7,3.9,2.7c2.6,1.9,5.1,3.9,7.6,5.9c2.6,2.1,5.5,4.2,7.5,6.9c2.1-1.9,3.3-4.5,3.4-7.3
			c0-1.4-0.3-2.8-0.9-4.1c-0.6-1.2-1.2-2.1-0.9-3.5c0.3-1.6,1.6-2.8,1.9-4.5c0.4-1.8,0-3.7-0.8-5.4c-1.5-3.3-4.5-5.6-7.3-7.7
			c-0.2-0.2-0.3-0.4-0.4-0.5c-1.1-0.2-2.1-0.4-3.1-0.7c-3.2-0.8-6.4-1.9-9.6-2.7c-1.7-0.4-3.6-1-5.4-0.8c-1.8,0.2-3.3,1.9-2.2,3.6
			c0,0,0,0,0,0c0,0.1,0.1,0.1,0.1,0.2c0.2,0.3,0.3,0.6,0.3,1c1.3,3.7,6.2,4.9,8.2,8.1c1.1,1.8,1.4,4,2.5,5.7
			c1.3,1.9,3.1,3.4,5.3,4.2c1.5,0.5,0.8,2.9-0.6,2.3c-2.1-0.8-4-1.9-5.5-3.6c-1.6-1.8-2.3-3.8-3.1-6c-1.6-4.2-6.7-5.3-8.8-9.1
			c-0.1,0.1-0.3,0.2-0.4,0.3c-1.5,1.1-3.5,1.2-5.3,1.3c-2.6,0.1-5.3,0-7.9-0.3c-2.4-0.3-4.9-0.9-7.3-0.4c-1.7,0.4-3.1,1.5-4.7,2.3
			c0.5,1.4,1.5,2.5,2.9,3.2c1.1,0.5,2,0.9,2.7,2c1.6,2.4,0.4,5.2-0.8,7.4c-0.7,1.4-2.8,0.2-2.1-1.2c0.7-1.3,1.8-3.3,0.9-4.8
			c-0.6-1-2.1-1.3-3-1.9c-1.4-1-2.4-2.3-3-3.9c-1.6,0.3-3.2,0.2-4.8,0c-2.8-0.4-4.8-0.8-7.4,0.6c-1.7,0.9-3.1,1.5-5.1,1.3
			c-0.6-0.1-1.2-0.2-1.7-0.3c3,4.7,4.8,10.9,1.9,15.9c0.4,0.4,0.7,0.8,1,1.2c1.1,1.3,2.3,2.8,2.8,4.5c0.5,1.8-0.3,3.1-1.2,4.6
			c-2.6,3.9-5.9,6.6-10,9c-2.1,1.2-4.3,2.3-6.5,3.3c-1.5,0.7-2.9,1.4-4.4,2.1c0,0,0.1,0,0.1,0.1c1.9,1.5,3.7,3,5.4,4.7
			c1.4,1.3,3,2.7,3.9,4.4c1.8,3.3-0.2,5.8-2.3,8.3c-4.3,5.1-9.4,9.5-14.9,13.2c0.4,0,0.7,0,1.1,0.1c1.3,0.1,2.1,0.6,2.6,1.2
			c0,0,0.1,0,0.1,0.1c2.7,2.5,5.5,5.2,7.6,8.2c1.7,2.5,0.5,5.4-0.8,7.9c-2.7,5.2-7.2,10.2-11.5,14.2c-4.3,4.1-9.5,7.4-15.4,8.6
			c-3,0.6-6.1,0.6-9.1,0.9c-2.9,0.3-5.8,0.7-8.7,0.2c-5.9-1-10-6.2-13.9-10.2c-0.4-0.3-0.7-0.7-0.7-1.3c2.1-15.4,5.8-30.6,10.1-45.5
			c2.2-7.5,4.4-14.9,6.7-22.4c2.2-7.3,4.5-14.5,7.5-21.5c0.3-0.7,1-0.8,1.5-0.5c7.4-1.6,14.9-2.7,22.5-3.1c1.7-2.8,1.6-6.2-0.3-9
			c-1.6-2.3-4.2-3.6-5.5-6c-1.4-2.7,0.1-4.8,1.3-7.3c1.6-3.3,1.3-7.1,0-10.4c-1.5-3.6-5.3-6.5-8.1-9c-3.7-3.3-8.3-5.4-12.6-7.8
			c-0.6,1-1.5,1.8-2.6,2.2c-2.8,1.2-5.9,1.3-8.7,2.7c-1.9,1-2.9,1.9-3.8,3.8c-0.6,1.2-1.3,2.2-2.3,3.1c-4.4,3.8-10.2,3.2-15.5,4.5
			c-1.3,0.3-2.5,0.7-3,2.1c-0.2,0.5-0.1,1.1-0.2,1.6c-0.2,0.9-0.7,1.8-1.3,2.5c-1.4,1.8-3.6,3-5.8,3.6c-2.3,0.7-5,0.6-7.1,1.8
			c-1.3,0.8-1.4,1.9-2.1,3.1c-0.6,1-1.6,1.8-2.6,2.3c-4.8,2.3-11.5,0.1-14.8,5.2c-0.7,1.1-1.3,2.2-1.9,3.3c1.2,0.3,2.5,0.2,3.7,0.3
			c1.3,0.1,2.7,0.3,4,0.5c2.8,0.4,5.5,1.1,8.1,2C419.6,265.8,423.7,269,421.7,272.7z M469.2,233.4c5,3.7,10.2,7.6,12.4,13.6
			c2.3,6.2-0.4,11.6-3.9,16.6c-0.9,1.3-3,0.1-2.1-1.2c3.1-4.5,5.8-9.2,3.7-14.8c-2-5.4-6.8-8.9-11.3-12.2
			C466.7,234.6,467.9,232.5,469.2,233.4z M442.7,240.1c3.3,0.7,6.6,1.6,9.8,2.5c2.8,0.8,5.9,1.5,8.5,2.9c4.2,2.3,3.8,7.7,0.9,11
			c-0.8,0.9-2.3,1.7-2.5,2.9c-0.3,1.4,1.3,2.3,2.3,3c1.7,1.3,2.9,2.8,3.1,5c0.5,5.3-4,8.7-8,11.3c-1.3,0.9-2.5-1.3-1.2-2.1
			c3.3-2.2,10-7.3,5.5-11.6c-1.2-1.2-2.9-1.9-3.8-3.4c-0.7-1.4-0.5-3,0.4-4.2c1.3-1.8,3.2-2.7,3.8-4.9c0.9-2.9-0.8-4.6-3.4-5.5
			c-5.2-1.8-10.6-3.3-16-4.5C440.6,242.1,441.2,239.7,442.7,240.1z"/>
		<path fill="#C9E6EE" d="M385.5,377.3c0.6-0.7,1.1-1.5,1.7-2.2c-0.1-0.1-0.3-0.1-0.4-0.2c-3.4-1.5-6.2-4.7-9-7.1
			c-0.2-0.2-0.3-0.4-0.4-0.7c-0.3-0.3-0.5-0.7-0.3-1.2c7.8-24.6,16.6-49.1,21.8-74.4c-0.5,0.2-1,0.4-1.5,0.4c-0.9,0-1.7-0.3-2.2-1
			c-0.3-0.3-0.4-0.8-0.6-1c-0.9-1-0.7,1.1-0.9,1.8c-0.5,2.8-2.6,4.6-4.9,4.5c0.9,3.2,0.8,6.5,0.6,9.7c-0.3,3.9-0.8,7.8-1.5,11.6
			c-2.7,13.7-8.6,26.7-17.7,37.3c-4.4,5.1-10,10.3-16.2,14c0,0.1,0,0.2-0.1,0.4c-1.6,3.6-3.6,7-6.2,10c4.6-0.8,9.3-0.8,13.9-0.1
			c0-0.1,0.1-0.1,0.1-0.2c1.9-1.9,4.2-4.2,4.1-7.1c0-1.4-1-2.4-1.1-3.8c-0.1-1,0.1-2,0.4-2.9c1.4-4,4.3-7.2,8.1-9.1
			c1.4-0.7,2.6,1.4,1.2,2.1c-2.2,1.1-4.1,2.6-5.5,4.7c-0.6,0.9-1.1,1.9-1.5,3c-0.5,1.6-0.1,2.4,0.4,3.9c1.3,3.8-0.9,7.2-3.4,9.9
			c1.7,0.4,3.4,0.8,5,1.4c0-0.1,0.1-0.3,0.2-0.4c1.8-2.3,4.1-4.2,5-7.1c0.4-1.5,2.8-0.9,2.3,0.6c-0.9,3.1-3.1,5.2-5.1,7.5
			c0,0.1-0.1,0.1-0.1,0.2c2,0.8,4,1.7,6,2.3c1.6,0.5,4.8,1.7,6.4,0.6c1.8-1.3-0.9-3.4-0.3-5.1C384.1,378.9,384.9,378.1,385.5,377.3z
			"/>
		<path fill="#3B3C3B" d="M435,313.4c-4.1,2.8-8.4,5.1-13,6.9c2.3,0.3,4.7,0.8,6.8,1.7c0.9,0.3,1.6,0.8,2.2,1.4
			c0.3,0,0.5,0.1,0.8,0.4c0.3,0.3,0.5,0.5,0.8,0.8c11.9-3.1,22-12.9,21.7-25.9c0-0.1,0-0.2,0-0.3c-0.1-2.1-0.5-4.2-1.5-6.2
			c-1.1-2.1-2.7-3.8-4.4-5.4c-0.6-0.5-1.2-1.1-1.9-1.6c2.1,4,2.4,8.7,1,13.2C445.5,304.8,440.4,309.7,435,313.4z"/>
		<path fill="#95D2E9" d="M267.5,386.4c2.4,1.3,5.7,1.2,8-0.2c1.2-0.7,2.4-2.3,1.4-3.6c-0.6-0.8-1.8-0.9-2.7-1
			c-1.9,0.2-3.3-0.2-5.1-0.9c-1.6-0.5-2.7,0.3-3.4,1.7C264.9,384.2,266.1,385.6,267.5,386.4z"/>
		<path fill="#C9E6EE" d="M344.5,385.3c-0.7-0.8-1.5-1.4-2.5-2c-0.7-0.4-0.7-1.3-0.2-1.9c0.4-0.4,0.8-0.7,1.2-0.8
			c0-0.1,0.1-0.1,0.2-0.2c3-2.8,5.4-6.1,7.3-9.6c-4.6,2.2-9.5,3.4-14.5,3.1c-0.2,0-0.4-0.1-0.6-0.2c-1.1-0.1-2.1-0.2-3.1-0.5
			c-2,3.1-5,4.9-8.1,6.6c2.2,0,4.4,0.5,6.6,1.4C335,383,339.6,386.1,344.5,385.3z"/>
		<path fill="#95D2E9" d="M306.8,372.3c-2.9-0.6-5.2,1.7-8.1,1.6c-2.6-0.1-4.8-0.1-6.8,2c-0.9,0.9-1.5,2.1-1.7,3.3
			c-0.2,1.1,0.7,4.3,2.3,2.6c0.6-0.7,1.4-0.5,1.9,0c0.5,0.2,0.9,0.6,0.8,1.3c-0.1,3.7,3.3,4.9,6.5,4.1c3.8-1,3.4-4.9,2.8-8.1
			c-0.2-1,0.6-2.2,1.7-1.7c1.6,0.6,3.2-0.2,3.2-2C309.5,373.6,308.2,372.6,306.8,372.3z"/>
		<path fill="#95D2E9" d="M416.3,413.4c1.8-0.1,3.7-0.1,5.5-0.3c1.3-0.1,5.2-0.6,5.4-2.3c0.1-0.6,0.5-0.9,1-0.9c0,0,0.1,0,0.1,0
			c3.3-0.8,6.5,0.1,9.7,0.6c3.8,0.5,7.6,0.8,11.4,0.6c6.5-0.3,13.1-2.1,18.4-6c1-0.7,1.8-1.6,3-1.7c1.3-0.1,2.7,0.6,4,0.8
			c3.6,0.7,7.2,1.2,10.8,1.2c3.6,0.1,7.3-0.1,10.9-0.7c0.9-0.2,4.2-0.4,4.2-1.7c-0.1-0.2-0.2-0.4-0.2-0.6c0-0.1-0.1-0.1-0.2-0.2
			c-0.9-1.1-2.6-1.6-3.7-2.5c-1.2-1,0.5-2.7,1.7-1.7c1.3,1,3.2,1.9,4.3,3.2c5,0.4,10.1,0.5,15.1,0.3c2.7-0.1,5.5-0.3,8.2-0.6
			c1.3-0.1,2.6-0.2,3.9-0.6c0.8-0.2,3.1-1.7,1.8-2.7c-0.8-0.6-0.8-1.9,0.3-2.2c3.2-0.8,6,0.6,9,1.6c3.1,1,6.4,1.5,9.7,1.3
			c2.9-0.2,8.2-1.9,6.9-6c-0.8-2.6-4.5-2.9-6.6-3.7c-2.6-0.9-4.8-2.5-7.1-4c-2.2-1.4-4.6-2.6-7.1-3.4c-5.3-1.9-10.9-2.6-16.5-2
			c-0.9,0.1-2.7,0-2.6,1.5c0,0.4,0.7,1.1,0.9,1.4c0.5,0.8,0.9,1.6,0.9,2.6c0,1.7-1.1,3.1-2.5,3.8c-2.1,1.2-4.5,0.6-6.6-0.4
			c-2.5-1.2-4.9-2.6-7.5-3.5c-3.1-1-6.4-1.6-9.6-1.7c-2.7-0.1-5.6,0-7.7,2c-1.8,1.8-2.9,4-5.3,5.2c-1.7,0.9-3.7,1.3-5.7,1.3
			c-2.2,0-4.4-0.5-6.3-1.5c-2.3-1.1-4.3-3-6.5-4.3c-5.2-3-11.4-2-17-0.8c-1.4,1.1-3.1,2.3-5.1,1.8c-1-0.3-1.9-1-2.8-1.4
			c-1.2-0.6-2.5-0.8-3.8-0.9c-2.7-0.2-5.4,0.5-8,1c-2.4,0.5-4.9,0.8-7.4,1c-5.2,0.4-10.5,0-15.7-1.1c-5.2-1.1-10.2-2.9-15.4-3.6
			c0,0,0,0,0,0.1c0.6,1.5,0.6,3.1-0.5,4.4c-2.5,3-8,0.9-11-0.1c-5.1-1.9-9.8-4-15.2-4.7c-5-0.6-10.1-0.3-15.1,0.9c0,0,0,0.1-0.1,0.1
			c1.1,0.9,2,1.9,2.7,3.1c0.4,0.7,0,1.5-0.7,1.8c-4.8,1.6-9.5-0.4-13.9-2.4c-5-2.3-9.8-4-14.9-0.8c-0.6,0.4-1.3,0.8-1.8,1.3
			c0,0,0,0,0,0c-0.1,0.1-0.2,0.2-0.3,0.3c-1.1,0.9-2.1,2-3,3.1c-1.2,1.6-3.2,5.7,0.1,6.2c1.9,0.3,3.7-0.7,5.6,0.1
			c1.4,0.6,2.4,1.8,3,3.2c0.8,1.8,0.9,4.1,2,5.7c1.2,1.8,3.5,2.3,5.5,2.4c4.4,0.3,8.6-1.1,13-1.1c2.2,0,4.3,0.3,6.3,1.1
			c1.8,0.7,3.4,1.8,5.2,2.5c3.6,1.6,7.6,2.4,11.5,2.5c8,0.3,16.1-2.3,22.3-7.5c1.2-1,2.9,0.7,1.7,1.7c-0.1,0.1-0.2,0.2-0.4,0.3
			c2.6-0.5,5.3-0.9,7.6-0.1c3.3,1.1,4.7,4.5,7.6,6.1C407.6,413.8,412.4,413.5,416.3,413.4z"/>
		<path fill="#FFE574" d="M384.7,128.7c-3.3,4.8-9.2,6.9-15.1,7.1c5.1,3.7,7,10.3,6.4,16.6c4.2-5,10.4-8,17-8.1
			c-2.6-1.8-4.9-3.8-6.4-6.6C385.1,135,384.7,131.8,384.7,128.7z"/>
		<path fill="#FFE574" d="M429.5,126.1c-0.9,2.8-2.9,5.1-5.4,6.6c2.2,0.8,3.9,2.6,5.1,4.7c0.6-2.4,2.2-4.5,4.4-5.7
			C431.5,130.7,430.2,128.5,429.5,126.1z"/>
		<path fill="#FFE574" d="M411.5,137.6c-1.2-3.8-0.5-8,2-11.1c-3.7,0.5-7.3-0.8-10.6-2.8c1.5,4,1.4,8.4-1,11.7
			C405.2,134.9,408.6,135.8,411.5,137.6z"/>
		<path fill="#95D2E9" d="M285.2,267.2c0.2-1.8-1.2-4.8-2-6c-1.1-1.5-3.9-3.8-5.7-1.9c-0.8,0.9-0.2,2.9,0.3,3.8
			c0.6,1,1.6,1.6,2.6,2.1C282,266,283.5,266.7,285.2,267.2C285.2,267.2,285.2,267.2,285.2,267.2z"/>
		<path fill="#95D2E9" d="M271.4,268c-2.9-0.7-6-0.5-9,0.2c-2.5,0.6-5.4,1.3-7.5,2.9c-1.3,1-2.5,2.7-2,4.4c0.4,1.4,2,2.1,3.3,2.5
			c2.6,0.9,5.5,1,8.2,0.9c5.6-0.1,11.2-1.1,16.6-2.7C279.6,272,275.7,269,271.4,268z"/>
		<path fill="#F099BF" d="M343.1,199.9c6.8,0.6,13.4-7.4,11.2-13.9c-2-0.6-4.1-1.2-6.2-1.1c-3.2,0-6.7,2-6.3,5.6
			c0,0.3,0,0.6-0.2,0.8C341.7,194.1,342.3,197,343.1,199.9z"/>
		<path fill="#545755" d="M474.8,189.8c0-0.1,0-0.1,0-0.2c0.1-1.1,0.3-2.2,0.7-3.3c0.6-1.4,0.9-2.5,0.8-3.9
			c-1.2,0.1-2.3,0.3-3.5,0.5c0,0-0.1,0-0.1,0c-0.7,5.3-2.2,10.5-5.3,15c-1.8,2.7-4.2,5-6.8,7c-1.6,1.2-3.2,2.5-4.9,3.6
			c2.4,0.1,4.8,0.1,7.2,0.2c0.2-0.1,0.5-0.2,0.7-0.3c0.6-0.4,1.1-0.8,1.6-1.3c0.7-0.8,1.3-1.7,1.9-2.6c-0.8-1-0.2-3.2,0.1-4.2
			C468.4,196.6,471.1,192,474.8,189.8z"/>
		<path fill="#FFFFFF" d="M477.6,198.3c1.6-1.7,2.8-3.6,3.7-5.7c0.4-1,1.9-0.4,1.9,0.5c0,0.5,0.1,0.9,0.3,1.3c0.8-1.6,1.9-3,3.2-3.9
			c0.1-0.1,0.2-0.1,0.3-0.2c-0.2-1.4-1.7-3.3-3.1-3.5c-1.4-0.1-2.6,0.7-3.5,1.7c-1.6,1.7-2.9,3.9-3.7,6.1c-0.4,1.1-0.7,2.2-0.9,3.3
			c-0.2,0.9-0.4,1.4,0.4,1.4C476.8,199.3,477.2,198.7,477.6,198.3z"/>
		<path fill="#FFFFFF" d="M470,198.7c-0.5,1-0.8,1.9-1.1,3c0,0.1-0.3,0.9-0.3,1c0,0.1,0.7-0.5,0.9-0.6c1.6-1.2,2.9-2.6,4.2-4.1
			c0.2-1.7,0.9-3.5,1.3-4.4c0.3-0.7,0.6-1.4,1-2.1C473.3,193,471.2,196.3,470,198.7z"/>
		<path fill="#565755" d="M475.4,275c-3,7-5.2,14.3-7.4,21.6c-2.2,7.2-4.4,14.4-6.5,21.6c-4.1,14.2-7.6,28.7-9.7,43.3
			c4.9,0.3,9.8,0.1,14.6-0.8c5-1,9.7-2.7,14.5-4.4c4.5-1.6,8.3-4,11.4-7.6c2.3-2.6,4.6-5.7,6.2-8.7c0.6-1,2-3.4,1-4.5
			c-1-1.1-4.8-0.2-6.2,0c-4.3,0.5-8.6,1.5-12.9,1.3c-2.8-0.2-6.2-1-7-4.1c-0.8-3.3,1.8-6,4.5-7.4c3.8-2,7.9-3.7,11.8-5.7
			c3.7-1.9,7.9-3.8,11.1-6.5c1.7-1.4,3.1-3.3,3.7-5.5c0.3-1.3,0.4-3-0.9-3.9c-0.6-0.4-2.6-0.3-3.4-0.4c-4.5-0.5-9.1-0.6-13.6-0.4
			c-2.8,0.1-6.3-0.2-6.9-3.6c-0.6-3.2,2.1-5.7,4.5-7.2c3.3-2,7.2-2.7,10.8-3.7c4.3-1.2,8.5-2.7,12.6-4.5c3.2-1.4,10.1-4.2,7.4-8.9
			c-2.3-4-8.3-3.3-12.3-3.3C493.5,271.9,484.4,273,475.4,275C475.4,275,475.4,275,475.4,275z"/>
		<path fill="#3B3C3B" d="M501.7,315.4c-3.6,2.8-7.8,4.7-11.8,6.8c-2.2,1.1-4.3,2.2-6.5,3.2c-1.9,0.9-4.1,1.7-5.8,3
			c-2.4,1.8-2.5,4.8,0.7,5.7c2.1,0.6,4.5,0.3,6.7,0.1c2.6-0.3,5.3-0.9,8.1-1.2c0.1-0.1,0.2-0.2,0.3-0.2c5.8-3.4,11-7.6,15.6-12.5
			c1.1-1.2,2.1-2.3,3.1-3.6c1.5-1.9,2-3.3,0.4-5.3c-1.5-1.9-3.4-3.6-5.3-5.2c0,0,0,0.1,0,0.1C506.9,310,504.6,313.2,501.7,315.4z"/>
		<path fill="#3B3C3B" d="M489.7,354.4c-3.3,2.6-7.2,3.9-11.2,5.3c-8.2,2.9-16.4,4.7-25,4.4c1.7,1.8,3.5,3.7,5.6,5.2
			c2.8,2,5.8,2.6,9.3,2.4c6.9-0.4,14-0.5,20.1-4c6.1-3.4,10.8-8.9,15-14.4c1-1.2,1.9-2.5,2.6-3.9c0.7-1.3,2-3.6,1.6-5.1
			c-0.4-1.6-2.5-3.3-3.5-4.4c-0.7-0.8-1.4-1.5-2.2-2.2c-0.9,3.2-3.6,7.1-4.8,8.6C495.1,349.2,492.8,352.1,489.7,354.4z"/>
		<path fill="#FFFFFF" d="M466.3,196.6c2-3.2,3.3-6.7,4.1-10.3c-1.4,2.9-3,5.7-5,8.3c-0.1,0.1-0.1,0.1-0.2,0.2
			c-4.4,5.7-10.3,10.1-17,12.7c0.1,0.2,0.3,0.5,0.4,0.7c1.3,0,2.7,0.1,4,0.2c2.6-1.2,4.9-3.1,7.1-4.8
			C462.3,201.5,464.6,199.3,466.3,196.6z"/>
		<path fill="#FFFFFF" d="M487.8,202.5c1.4-0.1,2.6-0.6,3.7-1.3c-0.9-0.3-1.9-0.8-2.6-0.9C488.6,201,488.2,201.8,487.8,202.5z"/>
		<path fill="#FFFFFF" d="M473.8,176c-0.2,1.1-0.5,2.3-0.8,3.4c0,0.5-0.1,1-0.1,1.4c1.3-0.2,2.7-0.4,4-0.5c0.1,0,0.2,0,0.3,0
			c2.8-0.3,5.6-0.6,8.4-0.8c2.4-0.2,4.8-0.3,7.2-0.3c1.5,0,3.1-0.3,4.5,0.1c0.3-0.6,0.6-1.3,0.6-1.9c-0.1-1.3,2-1.3,2,0
			c0.1,2.7-2.5,5.8-4.1,7.8c-1.4,1.7-2.9,3.6-4.9,4.7c1.1,0.4,2.1,1.4,2.6,2.7c0.5,1.2-1.5,1.7-2,0.5c-1.5-3.8-5,0.3-6,2.1
			c-1.1,2-1.9,4.3-2.4,6.5c-0.1,0.5-0.8,3.4-0.2,4c0.9,0.8,1.9-2,2.2-2.5c1.1-2.1,2.2-4.1,3.3-6.2c0.6-1.2,2.4-0.1,1.8,1
			c-0.1,0.1-0.1,0.2-0.2,0.4c0.1,0.1,0.3,0.1,0.4,0.2c1.3,0.6,2.5,1,3.9,0.7c2.8-0.5,4.1-3,4.5-5.6c0.4-2.5,0.6-4.4,2.1-6.5
			c1.3-1.8,3.3-3.3,4.4-5.2c3.9-6.9-9.1-7.2-12.8-7.3c-6.1-0.1-12.3,0.4-18.3,1.4C474,176.1,473.9,176.1,473.8,176z"/>
		<path fill="#545755" d="M474.2,173.4c0,0.1,0,0.2,0,0.3c0,0.1,0,0.2-0.1,0.3c0.7-0.1,1.3-0.2,2-0.3c0,0,0,0,0,0
			c0.4-2.2,0.4-4.2-1.3-5.9c-0.6-0.6-0.9-0.7-1-1.6c-0.4-2.6-1.4-4.7-3.7-5.6c0,0,0,0.1,0.1,0.1
			C472.7,164.5,474.7,168.8,474.2,173.4z"/>
		<path fill="#FFFFFF" d="M482,195.7c-0.7,1.2-1.4,2.3-2.3,3.3c-0.4,0.4-0.8,1-1.3,1.4c0.9,0.5,1.8,0.9,2.7,1.2
			c0-0.1,0.1-0.3,0.1-0.4c0.3-1.5,0.8-3.2,1.5-4.9C482.4,196.2,482.2,196,482,195.7z"/>
		<path fill="#FFFFFF" d="M480.9,203.7C480.8,203.7,480.8,203.7,480.9,203.7c-0.8-0.3-1.5-0.5-2.2-0.9c-0.9,0.4-1.8,0.9-2.5,1.6
			c-0.3,0.3-0.7,0.6-0.9,1c-0.4,0.6-0.6,0.9-0.1,1.5c0.8,1.1,2.4,0.3,3.4-0.1c0.8-0.3,1.7-0.7,2.5-1.1
			C480.8,205.1,480.8,204.4,480.9,203.7z"/>
		<path fill="#545755" d="M467,182.3c-0.8,1.9-2.1,2.4-3.6,3.6c-1.1,0.8-1.2,2.2-1.7,3.3c-0.4,0.8-0.8,1.6-1.4,2.3
			c-1.5,1.9-3.8,2.8-5.1,4.7c-1.1,1.6-2.1,2.9-3.8,3.9c-1.8,1.1-3.9,1.7-5.9,2.3c0.7,1.2,1.4,2.4,2.1,3.6
			c6.7-2.5,12.6-6.9,16.9-12.7c0-0.1,0.1-0.1,0.1-0.2c3.1-4.3,5.4-9.1,6.9-14.1c0-0.1,0-0.2,0.1-0.2c0.5-1.7,0.8-3.4,1.1-5.1
			c0,0,0-0.1,0-0.1c0.4-3.7-0.8-7-2.5-10.1c0.2,1,0.1,2-0.1,3c0,0,0.1,0.1,0.1,0.1c3.1,3.5-0.7,6.8-1.7,10.3
			C467.9,178.7,467.8,180.6,467,182.3z"/>
		<path fill="#3B3C3B" d="M513.7,283.5c-7.5,4.9-16.7,6.3-25,9.2c-2.1,0.7-4.3,1.8-5.7,3.5c-0.9,1.1-1.6,3,0,3.9
			c0.7,0.4,1.8,0.4,2.7,0.4c4.9-0.1,9.7-0.1,14.5,0.4c0.6,0.1,1.3,0.1,2,0.1c0.1-0.1,0.3-0.2,0.4-0.2c4-1.4,8-3.5,11.7-5.5
			c3.4-1.9,6.9-4,9.2-7.2c1-1.4,2.6-3.1,1.9-4.9c-0.7-1.5-2-2.9-3.1-4.2c-1.3-1.4-2.9-2.6-4.5-3.7
			C518.6,278.6,516.5,281.7,513.7,283.5z"/>
		<path fill="#C9E6EE" d="M557.6,367.3c6.5,5.1,15.5,3.3,22.6,0.1c1.4-0.6,2.7,1.5,1.2,2.1c-0.3,0.1-0.6,0.3-0.9,0.4
			c12,9,29.1,7.6,39.4-3.5c1.1-1.1,2.8,0.6,1.7,1.7c-2.6,2.8-5.6,5-8.8,6.6c6.2,2.1,13,3,19-0.1c-0.3,0-0.6-0.1-0.9-0.1
			c-1.5-0.3-0.9-2.6,0.6-2.3c7.7,1.3,15.7,0,22.6-3.6c3.4-1.8,6.6-4.1,9.3-7c2.5-2.6,5-6.1,4.6-9.9c-3,2.1-6.5,3.6-10.2,4.3
			c-1.5,0.3-2.2-2.1-0.6-2.3c4.2-0.8,8.2-2.6,11.4-5.4c3-2.6,6.4-6.7,6.5-10.9c0.1-5.2-5.9-7.4-9.9-8.9c-4.7-1.7-9.6-2.5-14.5-2.6
			c-0.7,0-1.1-0.5-1.2-1.1c-1.9-4.6-6-6.4-10.7-6.7c-5-0.4-10.3-0.1-14.2,3.3c0,0.8-0.9,1.6-1.8,1.1c-1.7-0.9-3.7-1.1-5.6-0.5
			c-2.2,0.7-3,1.9-4.4,3.5c-1.1,1.2-3.6,0.9-5.1,1.4c-2.1,0.6-4,1.4-5.8,2.7c-3.6,2.6-6.2,7.1-5.5,11.6c0.7,4.2,4.4,7.5,8.6,7.3
			c1.6-0.1,1.6,2.4,0,2.4c-0.3,0-0.6,0-0.9,0c0.6,8.6,13.7,5.4,18.3,2.1c1.3-0.9,2.5,1.2,1.2,2.1c-6.3,4.5-21.9,6.7-22-4.6
			c-4.7-1.4-7.7-6.1-7.7-11c-0.1-0.1-0.3-0.3-0.3-0.5c0.2,0.5-1.4-0.1-1.6-0.1c-0.6-0.1-1.3-0.3-1.9-0.3c-1.1,0-2.1,0.2-3.1,0.6
			C578.9,350.2,569.7,360.8,557.6,367.3z"/>
		<path fill="#3B3C3B" d="M596,293.3c-0.1-0.1-0.1-0.3-0.2-0.4c-0.8-5.1-5.5-8.2-9.2-11.2c-1.3-1-2.6-2.1-3.9-3.1
			c1.8,3.6,2.8,7.6,3.3,11.6c1.9,14.3-2.6,28.5-9.8,40.7c-6.5,11-15.1,21.2-26.6,27.2c-0.1,0.1-0.2,0.1-0.3,0.2
			c-4.4,2.2-9.3,3.3-14.1,2.9c1,0.6,1.9,1.2,2.9,1.8c3.9,2.3,8.1,5.3,12.9,4.8c14.1-5.6,24.4-17.1,33.2-29.1c0,0,0,0,0,0l0,0
			c0-0.3,0.1-0.6,0.3-0.9c0,0,0,0,0,0c2.6-2.8,3.9-7.1,5.2-10.7c1.3-3.5,2.5-7.1,3.5-10.7C595.3,308.7,596.2,301.1,596,293.3z"/>
		<path fill="#C9E6EE" d="M604.5,245.9c-0.8-0.2-0.5-0.5-0.2,0.5c0.1,0.5,0.2,1,0.2,1.4c0,1.1-0.4,2.1-1,3c-1.9,2.9-5.2,3.6-8.6,3.5
			c5,4.4,9,10,5.5,16.8c-0.8,1.4-0.3,2.2,0.3,3.6c0.3,0.7,0.5,1.4,0.7,2.1c0.3,1.5,0.4,3,0.1,4.5c-0.4,3-1.9,5.7-4.2,7.6
			c0,0-0.1,0-0.1,0.1c0.5,1,0.9,2,1,3.2c0.1,0.2,0.2,0.4,0.2,0.7c0.3,8.4-0.8,16.7-3,24.8c0,0.1,0,0.1-0.1,0.2
			c2.1-1.7,4.2-3.3,6.4-4.8c2.9-2,6.2-3.6,8.9-5.9c2.1-1.7,4.4-5.3,2.2-7.9c-1.7-2-4.4-2.2-5.2-5c-1.5-5.5,5.1-9.7,7.8-13.6
			c3.6-5.3,5.6-11.9,3.6-18.2c-1-3.3-3.3-5.9-5.6-8.5c-2.4-2.7-4.8-5.4-7.2-8.1C605.8,246,605.2,246,604.5,245.9z"/>
		<path fill="#95D2E9" d="M527.5,258.7c1.4-0.8,2.7-1.4,4.4-1.5c1.8-0.1,3.5,0.4,5.2,0.6c2.1,0.2,4.1,0.1,6-0.9
			c1.3-0.7,2.4-1.5,3.8-2c3.4-1,7,0,10.5,0.3c2,0.2,4,0.2,6,0.1c0.3,0,4.8-0.7,4.5-1.1c-0.3-0.5-0.2-0.9,0-1.2
			c-0.3-1.3-0.1-2.7,0.9-3.9c1.7-2,4.5-2,6.8-1.6c6.5,1.1,12.6,4.2,19.3,4.4c2.8,0.1,7.9-0.9,7-4.9c-0.2-1-0.8-1.6-0.2-2.6
			c0.4-0.8,1.3-1.1,2.1-1.1c1.6,0,2.4,0.4,3.4-1.2c0.8-1.3,1.6-3,1.5-4.6c-0.3-3.1-4.5-5.1-7-5.9c-3.2-1.1-5.8-0.9-8.4,1.3
			c-1.6,1.4-3.5,2-5.5,1.9c-0.2,0.1-0.4,0.2-0.7,0.2c-7-0.3-12.9-3.9-19.4-6.2c-1.7-0.6-3.4-1.1-5.2-1.4c-0.5-0.1-1.1-0.2-1.6-0.2
			c-0.6,0.1-1.7,0.4-1.9,1.1c-0.1,0.4,0.5,1.3,0.5,1.8c0,1.8-1.5,3.2-3.2,3.4c-0.2,0.1-0.4,0.1-0.6,0.1c-6.6-0.7-13.3-1.8-19.9-2.1
			c-1.6-0.1-3.4,0-4.9,0.7c-1,0.4-2.1,1.1-1.5,2.3c0.2,0.4,0.7,0.6,1,1c0.7,1.1,0.6,2.4,0,3.4c0,0.4-0.2,0.7-0.6,0.9
			c-0.2,0.1-0.5,0.2-0.7,0.3c0,0-0.1,0-0.1,0c-3.1,1-7.2-0.3-10.3-0.7c-4.3-0.5-8.2,0-11.7,2.8c-2.6,2.1-6.3,6.5-2.5,9.3
			c2.9,2.1,7,1.2,10.3,1.8c1.2,0.2,2.4,0.6,2.9,1.8c0.5,1.1-0.2,1.8-0.4,2.8c-0.2,0.9-0.2,1.1,0.8,1.3c0.5,0.1,0.9-0.1,1.4-0.1
			c0.8-0.1,1.5-0.1,2.2,0C523.9,259.3,525.5,259.8,527.5,258.7z"/>
		<path fill="#C9E6EE" d="M555.2,313.1c-2.3,4.2-4.6,8.5-6.3,13c-0.8,2.1-1.6,4.3-2.2,6.6c-0.3,1.2-0.6,2.3-0.8,3.5
			c-0.1,0.7-0.2,1.3-0.3,2c0,0,0,0.1,0,0.2c0.6-0.4,1.2-0.9,1.7-1.4c2.4-2,4.7-4.2,6.7-6.5c4.1-4.6,7.4-9.7,10-15.3
			c0-0.2,0.1-0.3,0.2-0.5c0-0.1,0.1-0.1,0.1-0.2c0.1-0.2,0.2-0.4,0.3-0.6c0.1-0.2,0.2-0.4,0.4-0.5c2.5-4.2,4.1-9.1,5-13.8
			c0.3-1.4,0.4-3,0.3-4.5C563.5,299.3,559,306.2,555.2,313.1z"/>
		<path fill="#3B3C3B" d="M538.2,341.4c1.8,0.1,3.4-0.5,4.9-1.3c-0.4-1.6,0.3-3.8,0.6-5.2c0.5-2.6,1.3-5.2,2.2-7.7
			c1.8-4.9,4.1-9.6,6.6-14.2c4.3-7.9,9.5-15.9,17.5-20.4c-0.6-2.6-1.9-4.9-4.4-6.2c-6.2-0.6-10.8,4-14.5,8.4
			c-3.7,4.3-6.8,9.1-9.4,14.1c-2.6,5-4.6,10.4-6,15.9c-0.7,3-1.4,6.1-1.5,9.2c0,2.5,0.3,6.8,3.5,7.2
			C537.9,341.2,538,341.3,538.2,341.4z"/>
		<path fill="#565755" d="M547,356.7C547,356.7,547,356.7,547,356.7c6.3-3.1,11.8-7.4,16.5-12.6c8.7-9.4,15.6-21.3,18.8-33.7
			c1.7-6.7,2.3-13.7,1.3-20.5c-0.9-6.1-2.9-12.6-8-16.6c-0.9-0.5-1.8-1-2.9-1.3c-10.8-1.7-20.7,4.6-28.1,11.8
			c-6.6,6.4-11.8,14.1-15.3,22.5c0,0.1,0,0.2-0.1,0.3c-0.1,0.1-0.1,0.2-0.2,0.4c-0.2,0.4-0.3,0.7-0.4,1.1c-0.1,0.2-0.1,0.3-0.2,0.4
			c-3.3,7.5-6.3,15.2-7.5,23.4c-1,7.1-1.2,16.7,4.3,22.1c0.2,0,0.5,0.1,0.7,0.3C531.7,360,540.1,359.8,547,356.7z M532.4,328.6
			c1.2-6.6,3.4-13,6.3-19c2.9-6.1,6.7-11.8,11.1-17c3.8-4.5,8.7-8.8,14.9-8.7c0.3-0.2,0.6-0.3,1-0.1c5.2,2.2,7.5,7.7,7.2,13.2
			c-0.2,3.4-1.2,6.7-2.3,9.9c-1.1,3.1-2.3,6.1-4.1,8.9c-2.9,6.4-6.9,12.3-11.7,17.5c-2.4,2.6-5.1,5-7.9,7.2
			c-2.7,2.1-5.9,3.8-9.4,3.4c-0.2,0-0.5-0.1-0.6-0.2C530.6,342.5,531.6,332.9,532.4,328.6z"/>
		<path fill="#FFFFFF" d="M423.9,171.2c-0.1,2.8,2.5,4.3,5,4.1c4.7-0.3,8.8-5.6,11.1-9.2c1.3-2,2.4-4.2,2.2-6.6
			c-0.2-2.2-2.7-3.8-4.8-3.8c-4.5-0.5-8.3,5.6-10.4,8.8C425.7,166.5,424,168.8,423.9,171.2z M429.2,164.4c1.1-1.7,2.5-3.2,4-4.5
			c0.4-0.4,1-0.3,1.3,0c0.6,0.2,1,0.7,1,1.5c0,1.7-1.3,3.8-2.2,5.1c-0.8,1.3-1.8,3.1-3.3,3.7c-1.1,0.4-2.3,0.2-2.5-1.1
			C427.3,167.5,428.4,165.7,429.2,164.4z"/>
		<path fill="#FFFFFF" d="M367.4,187.1c0.5-2.9,2.1-5.3,4.6-6.9c-0.1-0.8,0-1.5,0.1-2.2c-3,1.3-5.9,2.6-8.9,4
			c-1.5,0.7-3,1.5-4.5,2.3c1.5,0.5,3,1,4.5,1.5C364.6,186.2,366,186.7,367.4,187.1z"/>
		<path fill="#545755" d="M373.3,184.6c-0.7-0.4-1.5-0.4-2.3-0.2c-0.4,0.6-0.7,1.2-1,1.9c0.8,0.1,1.6,0.2,2.4,0.2
			c0.8,0.1,0.8,1.3,0,1.2c-0.9-0.1-1.8-0.2-2.7-0.3c0,0.1,0,0.3-0.1,0.4c1.7,0.5,3.3,1.1,5,1.6c1,0.3,2,0.7,3,1
			c0.1-0.3,0.3-0.5,0.7-0.7c0.8-0.4,1.7-0.7,2.6-0.8c2-0.2,1.8,1.7,1.9,3.2c0,0,0,0,0,0c0,0,0.1,0,0.1,0c0-0.5,0-0.9,0.1-1.3
			c0.1-0.5,0.1-0.8,0.4-1.2c0,0,0,0,0-0.1c0.1-0.1,0.3-0.3,0.4-0.4c0.1-0.1,0.2-0.1,0.3,0c0.7-0.3,1.4-0.6,2.2-0.7
			c0.6-0.1,1.7-0.3,2.2,0.3c0.4,0.5-0.1,1.2-0.3,1.6c-0.5,1-1.1,2-1.8,2.9c0,0,0,0-0.1,0.1c11.2,3.9,22.3,8.1,33.1,12.9
			c0.4-0.3,0.7-0.7,1.1-1c-0.1-0.1-0.2-0.2-0.3-0.3c-0.8-1.1-1.6-3.2-1-4.6c0.8-1.5,2.8-0.3,3.9,0.3c0,0,0,0,0,0
			c0.6,0.3,0.8,0.8,0.7,1.4c0.6-0.6,1.2-1.2,1.8-1.8c0-0.1,0-0.1,0-0.2c0.2-1.5,0.8-3,2-3.9c1-0.8,2-0.5,2.6,0.4
			c1.1-0.7,2.3-1.3,3.5-1.7c0.1-0.1,0.3-0.2,0.5-0.3c2-0.6,3.9-0.1,5.5,0.9c0.2-0.2,0.4-0.3,0.6-0.5c0.6-0.5,1.4,0.3,0.9,0.9
			c-0.2,0.1-0.3,0.3-0.5,0.4c0.5,0.4,1,0.9,1.4,1.4c0.7,0.9,1.3,1.7,1.9,2.7c0.1-0.1,0.2-0.1,0.3-0.1c0.4-0.1,0.8-0.3,1.3-0.4
			c-0.2-1.1-0.8-2.1-1.8-2.7c-0.7-0.4,0-1.5,0.6-1.1c1.2,0.8,2.1,2,2.4,3.4c1.1-0.4,2.2-0.8,3.3-1.4c0.3-0.2,0.6-0.4,0.9-0.6
			c-0.6-1.5-1.5-3.1-3.2-3.2c-0.8-0.1-0.8-1.3,0-1.2c2.1,0.1,3.4,1.7,4.2,3.5c0.6-0.8,1.2-1.6,1.9-2.4c0.3-0.3,0.6-0.6,1-0.9
			c-0.7-1.1-1.8-2-3-2.5c-0.7-0.3-0.4-1.5,0.3-1.2c1.5,0.6,2.8,1.6,3.7,2.9c0.7-0.5,1.4-1,2-1.6c0.1-0.2,0.3-0.3,0.4-0.5
			c-0.8-1.3-1.9-2.3-3.3-3c-0.7-0.4-0.1-1.4,0.6-1.1c1.4,0.7,2.5,1.7,3.4,3c0.6-1,0.9-2.2,1.5-3.3c0.1-0.3,0.3-0.6,0.5-0.8
			c-0.4-0.3-0.9-0.6-1.3-0.8c-0.7-0.4-1.4-0.8-2.2-1.2c-0.7-0.3-0.1-1.4,0.6-1.1c1,0.5,2,1.1,3,1.7c0.3,0.2,0.5,0.4,0.8,0.5
			c0.7-0.5,1.6-0.9,2.3-1.7c0.2-0.2,0.4-0.5,0.5-0.7c-0.2-0.2-0.4-0.3-0.6-0.5c-0.4-0.3-0.8-0.5-1.2-0.8c-0.9-0.5-1.8-0.9-2.7-1.3
			c-0.7-0.3-0.4-1.4,0.3-1.2c1.4,0.5,2.8,1.2,4.1,2.1c0.2,0.1,0.4,0.3,0.7,0.4c0.3-0.8,0.4-1.7,0.6-2.5c0.1-0.7,0.3-1.3,0.5-1.9
			c-1.6-1-3.2-1.6-5-1.9c-0.8-0.1-0.4-1.3,0.3-1.2c1.8,0.3,3.6,0.9,5.1,1.9c0.1-0.4,0.3-0.7,0.5-1.1c0.6-1.1,1.9-2.7,1.9-4.2
			c-1.7-0.5-3.5-0.6-5.3-0.4c-0.8,0.1-1.1-1.1-0.3-1.2c1.7-0.2,3.4-0.2,5,0.1c-0.1-0.1-0.1-0.2-0.2-0.3c-0.6-0.2-1-0.7-0.8-1.4
			c0.2-0.6,0.3-1.2,0.3-1.9c-1.5,0-2.9,0.1-4.4,0.5c-0.8,0.2-1.1-1-0.3-1.2c1.5-0.4,3-0.6,4.6-0.6c-0.2-0.9-0.6-1.8-1.2-2.5
			c-1.6,0.1-3,0.8-4.3,1.6c-0.7,0.4-1.3-0.7-0.6-1.1c1.3-0.7,2.5-1.4,3.9-1.6c-0.6-0.6-1.1-1.2-1.6-2c0,0-0.1,0-0.1,0
			c-0.2,0.1-0.4,0.1-0.5,0.1c-0.3,0.1-0.6,0.2-0.9,0.3c-0.7,0.2-1.3,0.5-1.9,0.9c-0.7,0.4-1.3-0.6-0.6-1.1c0.9-0.6,1.8-0.9,2.8-1.2
			c0.2,0,0.3-0.1,0.5-0.2c-0.4-0.8-1-1.7-1.6-2.5c-1.2,0.5-2.3,1.1-3.3,1.9c-0.6,0.5-1.2-0.6-0.6-1.1c0.9-0.7,1.9-1.3,3-1.8
			c-0.3-0.2-0.5-0.5-0.8-0.6c-0.8-0.5-1.9-0.3-2.6-0.8c-0.2,0-0.3,0-0.5,0c-0.6,0.6-1.2,1.2-1.8,1.8c-0.6,0.6-1.4-0.3-0.9-0.9
			c0.6-0.6,1.1-1.1,1.7-1.7c-0.9-0.9-1.9-1.6-3-2c0,0.1-0.1,0.2-0.1,0.3c-0.6,0.6-1,1.3-1.5,2.1c-0.4,0.7-1.4,0.1-1.1-0.6
			c0.4-0.7,0.9-1.4,1.5-2.1c-0.1,0-0.2-0.1-0.3-0.1c-1.3-0.3-2.4-0.1-3.6,0.1c0,0.1,0,0.3-0.1,0.4c-0.3,0.5-0.4,1-0.6,1.5
			c-0.2,0.8-1.3,0.4-1.2-0.3c0.1-0.5,0.3-1,0.5-1.5c-0.1,0-0.2,0-0.4,0c-1.8,0-3.2-1-4.9-1.4c-0.1,0-0.2,0-0.3-0.1
			c0,0.1,0,0.1,0,0.2c-0.2,0.7-0.4,1.5-0.4,2.2c-0.1,0.8-1.3,0.8-1.2,0c0.1-0.9,0.2-1.7,0.5-2.5c0,0,0,0,0,0c-1.4,0-2.5,0.6-3.9,1.1
			c-1.1,0.4-1.9,0.2-2.9,0c0,0.6,0,1.1,0,1.7c0.1,0.8-1.2,0.8-1.2,0c0-0.6-0.1-1.3,0-1.9c0,0,0-0.1,0-0.1c-2-0.5-3.5,0.2-5.4,0.8
			c0.1,0.7,0.2,1.4,0.1,2.2c0,0.3-0.2,0.6-0.6,0.6c-0.3,0-0.7-0.3-0.6-0.6c0.1-0.6,0.1-1.3,0-1.9c-1,0.2-2.1,0.1-3.2,0.1
			c-0.4,0-0.8,0.1-1.2,0.1c0,0,0,0,0,0.1c0,0.9,0,1.7,0.1,2.6c0.1,0.8-1.1,0.8-1.2,0c-0.1-0.8-0.1-1.5-0.1-2.3
			c-0.8,0.3-1.7,0.7-2.6,1.1c-0.8,0.3-1.6,0.4-2.4,0.3c0.1,0.3,0.2,0.7,0.2,1c0,0.2,0,0.4,0,0.6c0,0,0,0.2,0,0.4
			c0,0.1,0.1,0.2,0.1,0.3c0,0,0,0,0,0.1c0,0.2-0.1,0.4-0.3,0.5c-0.5,0.4-1.1-0.1-1.1-0.7c0-0.7,0.1-1.3-0.1-2c0-0.1,0-0.1,0-0.2
			c-0.2,0-0.4,0-0.6,0c-1.6,0.1-3.2,0.6-4.6,1.5c0,0,0,0,0,0.1c0.2,0.7,0.4,1.3,0.8,1.9c0.4,0.7-0.7,1.3-1.1,0.6
			c-0.3-0.6-0.6-1.2-0.8-1.8c-0.7,0.7-1.4,1.3-2.4,1.6c-0.7,0.2-1.4,0.2-2.2,0.2c0.2,0.5,0.3,1,0.4,1.6c0.1,0.8-1,1.1-1.2,0.3
			c-0.1-0.6-0.3-1.2-0.5-1.8c-0.3,0-0.5,0.1-0.8,0.2c-1.3,0.4-2.2,1.3-3.2,2.1c0.2,0.5,0.4,0.9,0.7,1.3c0.2,0.3,0,0.7-0.2,0.8
			c-0.3,0.2-0.6,0-0.8-0.2c-0.3-0.4-0.5-0.8-0.7-1.3c-1,0.5-2.2,0.6-3.3,1c-0.9,0.3-1.7,0.7-2.3,1.3c0,0,0,0,0,0.1
			c0.1,0.4,0.4,0.7,0.8,0.8c0.3,0.1,0.5,0.4,0.4,0.7c-0.1,0.3-0.4,0.5-0.7,0.4c-0.6-0.2-1.1-0.6-1.4-1.1c-0.2,0.3-0.5,0.7-0.7,1
			c-0.6,1.1-1.1,2.1-2.2,2.8c-0.2,0.1-0.3,0.2-0.5,0.2c0.2,0.1,0.3,0.2,0.5,0.2c0.7,0.3,0.4,1.4-0.3,1.2c-0.6-0.2-1.1-0.5-1.6-0.9
			c-0.7,0.2-1.4,0.5-2.1,1.1c-0.8,0.7-1.2,1.6-1.7,2.5c0.4,0.2,0.8,0.4,1.2,0.6c0.3,0.1,0.4,0.6,0.2,0.8c-0.2,0.3-0.5,0.4-0.8,0.2
			c-0.4-0.2-0.8-0.4-1.2-0.6c-0.7,1-1.8,1.4-2.7,2.3c-0.3,0.3-0.6,0.6-0.9,1c0.5,0.1,1,0.3,1.5,0.5c0.7,0.3,0.4,1.4-0.3,1.2
			c-0.6-0.2-1.3-0.4-1.9-0.6c-0.3,0.6-0.7,1.1-1,1.7c-0.1,0.1-0.1,0.2-0.2,0.3c-0.2,0.5-0.4,1-0.5,1.5c0.7,0.1,1.3,0.3,1.9,0.7
			c0.7,0.4,0.1,1.4-0.6,1.1c-0.4-0.3-0.9-0.4-1.4-0.5c0,0.3,0,0.6,0.1,1c0.1,0.5,0,1.1-0.6,1.4c-0.6,0.3-1.2,0.7-1.6,1.1
			c0.6,0.1,1.1,0.2,1.7,0.5C374.6,183.9,374,185,373.3,184.6z M425.3,200.5c0,0.4-0.4,0.8-0.9,0.6c-0.1,0-0.1-0.1-0.2-0.1
			c-0.1,0-0.1-0.1-0.2-0.1c-0.2-0.2-0.2-0.4-0.1-0.6c0,0,0,0,0,0c0-0.1,0-0.2,0.1-0.2c0.1-0.2,0.3-0.4,0.5-0.4
			c0.3,0,0.6,0.1,0.7,0.4C425.3,200.2,425.3,200.4,425.3,200.5z M424.8,198.6c-0.6,0.4-1.2,0.2-1.9,0.2c-0.6-0.1-1.8,0-2.3-0.4
			c-1-0.6,0.2-1.4,0.7-1.7c1.4-0.9,3-1.4,4.7-1.6c0.2,0,0.4,0.1,0.5,0.3c0.1,0.1,0.1,0.2,0.1,0.3
			C426.6,196.5,425.5,198.1,424.8,198.6z M426.1,193.4c-4.5,4.2-10.9,1.9-15.1-1.5c-0.1-0.1-0.2-0.2-0.3-0.3
			c-2.8,0.4-5.6,0.3-8.2-0.2c-1.8-0.4-1-3.1,0.8-2.7c7.3,1.5,17.3-1.2,19-9.5c0.4-1.8,3.1-1,2.7,0.8c-0.1,0.6-0.3,1.1-0.4,1.6
			c1.7,1.4,3.3,3,3.8,5.3C428.8,189.3,427.8,191.8,426.1,193.4z M439,189.2c-0.3,0.4-0.9,0.7-1.5,0.7c-0.6-0.1-1-0.6-1.4-0.9
			c-0.5-0.4-1-0.9-1-1.6c0-0.6,0.4-0.9,0.9-1.1c0.6-0.2,2.7-0.8,3.3-0.1C440.2,186.4,439.4,188.6,439,189.2z M435.5,183.2
			c0.6-0.9,1.5-1.6,2.5-2.1c0.1,0,0.1,0,0.2,0c0.2,0,0.3,0,0.4,0.2c0.5,0.8,1,2.1,0.6,3c-0.5,1-1.9,0.9-2.8,0.7
			c-0.4-0.1-1-0.1-1.2-0.6C435.1,183.9,435.3,183.5,435.5,183.2z M440.2,185.6C440.2,185.6,440.2,185.6,440.2,185.6
			c-0.5,0.3-1,0-1-0.5c0-0.2,0.2-0.4,0.4-0.4c0.1,0,0.1-0.1,0.2-0.1c0.2-0.1,0.5,0.1,0.6,0.3C440.5,185.1,440.4,185.4,440.2,185.6
			C440.3,185.5,440.3,185.5,440.2,185.6z M441.1,181.5c0-0.1,0.1-0.3,0.3-0.4c0.7-0.3,1.5,0,2.2,0.3c0.5,0.2,1.1,0.4,1.4,0.9
			c0.7,1.1-1,1.8-1.8,2.2c-0.8,0.4-2.7,0.8-3-0.5C440.1,183.2,440.5,182,441.1,181.5z M442.2,194.5c-0.2-0.3-0.3-0.7-0.1-1
			c0.1-0.1,0.2-0.2,0.3-0.3c0,0,0,0,0,0c0.2-0.1,0.4-0.2,0.6-0.2c0.2,0,0.4,0.1,0.5,0.3c0.1,0.1,0.2,0.2,0.2,0.4
			C444.1,194.5,442.8,195.2,442.2,194.5z M444.2,187.8c-0.7,0.7-2.1,2.2-3.1,1.4c-0.8-0.7-1-2.5-0.3-3.3c0.9-1.1,3.2-1,4.5-0.9
			c0.2,0,0.3,0.2,0.4,0.3C446,186,444.6,187.4,444.2,187.8z M453.5,184.4c-2,2.5-4.3,4.7-6.8,6.7c-0.6,0.5-1.2-0.6-0.6-1.1
			c2.5-1.9,4.7-4,6.6-6.5C453.2,182.9,454,183.8,453.5,184.4z M451.4,175.8c-0.6-0.8-1.3-2.4-0.3-2.9c0.9-0.8,2.4-1.9,3.6-1.4
			c1.3,0.6,0.1,3-0.3,3.8C453.7,176.5,452.3,177,451.4,175.8z M455.8,181.2c0,0.1-0.1,0.3-0.2,0.3c-0.1,0.1-0.2,0.3-0.4,0.3
			c0,0-0.1,0-0.1,0c-0.1,0-0.2,0-0.4,0c-0.6-0.2-0.7-1-0.3-1.4c0.1-0.1,0.2-0.2,0.3-0.2c0.1,0,0.1-0.1,0.2-0.1
			C455.5,180.2,455.9,180.7,455.8,181.2z M459.2,165.7c0-0.1,0.1-0.2,0.3-0.2c0,0,0.1,0,0.1-0.1c0,0,0.1,0,0.1,0h0
			c0.2-0.1,0.4,0,0.6,0.1c0.4,0.2,0.5,0.7,0.3,1.1c-0.2,0.4-0.7,0.6-1.1,0.4c-0.2-0.1-0.3-0.2-0.4-0.4c0,0,0-0.1,0-0.1c0,0,0,0,0,0
			C459,166.1,459.1,165.9,459.2,165.7z M458.8,169.8c0-0.8,1.2-0.8,1.2,0c-0.1,3.1-1,5.9-2.8,8.5c-0.4,0.6-1.5,0-1.1-0.6
			C457.8,175.3,458.6,172.7,458.8,169.8z M453.2,154.6c2.2,1.1,3.9,2.9,4.7,5.2c0.3,0.7-0.9,1.1-1.2,0.3c-0.7-2-2.3-3.5-4.2-4.5
			C451.9,155.3,452.5,154.3,453.2,154.6z M451.9,167.6c0.6,0.1,1.6,0.2,1.9,0.9c0.3,0.6,0,1.2-0.4,1.7c-0.8,0.9-2.9,2.5-4.1,1.6
			c-0.9-0.7-0.8-2.4-0.1-3.4c0-0.2,0.1-0.4,0.3-0.5C450.2,167.3,451.2,167.4,451.9,167.6z M449.9,173c-0.2,0.5-0.9,0.4-1.1-0.1
			c0-0.1,0-0.3,0.1-0.4c0-0.1,0.1-0.2,0.2-0.3C449.6,172,450.1,172.6,449.9,173z M449.5,153.2c0.3,0.1,0.5,0.4,0.4,0.6
			c0,0.3-0.2,0.6-0.4,0.6c-0.4,0.1-0.8-0.2-0.8-0.6C448.6,153.4,449.1,153.1,449.5,153.2z M448.7,173.5
			C448.7,173.5,448.7,173.5,448.7,173.5C448.7,173.5,448.7,173.5,448.7,173.5c0.3-0.1,0.5,0.1,0.5,0.3c0.8,0.6,0.9,1.9,0.9,2.8
			c0,1.4-1.3,1.3-2.3,1c-0.9-0.2-3-0.7-2.6-2.1c0.2-0.6,0.9-1,1.3-1.3c0.5-0.3,1.1-0.6,1.7-0.7C448.3,173.5,448.5,173.4,448.7,173.5
			z M447.8,170.4c0.7,0.8,1.2,2,0,2.6c-0.6,0.3-1.3,0.5-1.9,0.5c-0.6,0.1-1.1,0.2-1.6-0.1c-0.1-0.1-0.1-0.1-0.2-0.2c0,0,0,0,0,0
			c-0.5-1,0.4-2.6,1-3.3c0.3-0.4,0.8-0.8,1.3-0.7C446.9,169.4,447.4,170,447.8,170.4z M434.5,151.3c4-0.4,7.9,0.1,11.7,1.3
			c0.7,0.2,0.4,1.4-0.3,1.2c-3.7-1.2-7.5-1.7-11.4-1.3C433.7,152.6,433.7,151.4,434.5,151.3z M437.5,153.7c2.3,0,4.9,1.3,6.1,3.3
			c1.4,2.3,0.6,5.6-0.5,7.9c-1.5,3.2-3.9,6.1-6.4,8.4c-2.1,2-4.7,3.9-7.8,4.1c-2.5,0.1-5.2-1-6.4-3.2c-1.5-2.8-0.1-6,1.3-8.5
			c1.8-3,4-6,6.4-8.6C432.2,155.1,434.6,153.4,437.5,153.7z M429.9,152.1c0.1-0.3,0.4-0.6,0.8-0.5c0.4,0.1,0.5,0.5,0.4,0.9
			c-0.1,0.3-0.4,0.5-0.7,0.4c-0.2,0-0.3-0.1-0.4-0.3C430,152.6,429.9,152.3,429.9,152.1z M416,154.6c3.5-1.1,7-1.8,10.6-2.1
			c0.8-0.1,0.8,1.2,0,1.2c-3.5,0.3-6.9,1-10.3,2C415.6,156.1,415.2,154.9,416,154.6z M412,155.5c0.3,0,0.6,0.3,0.6,0.6
			c0,0,0,0.1,0,0.1c0,0.3-0.3,0.6-0.6,0.6c-0.3,0-0.6-0.3-0.6-0.6c0,0,0-0.1,0-0.1C411.4,155.7,411.7,155.5,412,155.5z M402.5,158.4
			c1.9-0.8,3.9-1.3,6-1.6c0.8-0.1,0.8,1.1,0,1.2c-1.9,0.2-3.7,0.7-5.4,1.4C402.4,159.7,401.8,158.7,402.5,158.4z M402.2,161
			c3.9-0.5,9.1,1.2,9.1,5.6c2.5,0,5,0.8,7.3,1.9c1.2,0.6,0.1,2.3-1,1.8c-2.5-1.2-5.5-2.1-8.3-1.3c-2.6,0.7-4.7,2.9-6,5.2
			c-3.2,5.8,2.1,10.6,7.8,10.8c1.3,0.1,1.3,2.1,0,2c-4.3-0.2-8.4-2.5-10.1-6c-3.1,2.2-8,3.6-11.3,1.3c-4.1-2.9-1.5-9.4,0.7-12.7
			C393,165.4,397.1,161.7,402.2,161z M383.7,172.3c1.4-2.3,3.3-4.3,5.4-6c0.6-0.5,1.2,0.6,0.6,1.1c-2,1.5-3.7,3.4-5,5.6
			C384.3,173.6,383.3,173,383.7,172.3z M383.9,184.8c0.5-0.9,2.1-0.2,2.8,0.1c0.9,0.4,2.1,1.6,0.9,2.4c-0.7,0.5-1.5,0.8-2.3,0.9
			c-0.6,0.1-1.4,0.2-1.9-0.1C382.4,187.3,383.4,185.6,383.9,184.8z M383.3,189c-0.1,0.4-0.6,0.6-0.9,0.3c-0.2-0.2-0.2-0.4-0.1-0.6
			c0-0.1,0.1-0.2,0.1-0.2C382.8,188.1,383.4,188.5,383.3,189z M380.7,176c0.1-0.2,0.3-0.3,0.6-0.3c0.3,0,0.6,0.3,0.6,0.6
			c0,0.1,0,0.2-0.1,0.3c-0.1,0.1-0.1,0.2-0.2,0.3c-0.3,0.2-0.7,0.1-0.8-0.2C380.6,176.5,380.6,176.2,380.7,176z M381.6,184.8
			c0.5,0.4,0.7,1.4,0.8,2c0.1,0.5,0.1,1.1-0.3,1.5c-0.8,0.7-3.2,1.2-4.1,0.5c0,0-0.1-0.1-0.1-0.1c-0.7-0.5-0.2-1.8,0.4-2.4
			C378.9,185.6,380.5,183.9,381.6,184.8z M374.8,187.3c0-0.1,0.1-0.2,0.1-0.3c1.1-2.6,2.3-5.2,3.9-7.6c0.4-0.7,1.5,0,1.1,0.6
			c-1.5,2.4-2.8,4.8-3.8,7.4c-0.1,0.2-0.3,0.5-0.6,0.4c0,0,0,0,0,0C375.1,187.9,374.8,187.7,374.8,187.3
			C374.8,187.3,374.8,187.3,374.8,187.3z"/>
		<path fill="#F099BF" d="M424.7,217.4c-0.9,0.8-1.7,1.6-2.6,2.4c0.6-0.1,1.2-0.2,1.7-0.3C424.2,218.9,424.5,218.2,424.7,217.4z"/>
		<path fill="#F099BF" d="M408.9,217.1c0.2-0.1,0.3-0.2,0.5-0.2c2.4-3,5.1-5.8,7.9-8.5c-2.8-1.2-5.5-2.4-8.3-3.5
			c0.3,3.6-0.1,7.2-1.4,10.7C408.1,216.1,408.5,216.6,408.9,217.1z"/>
		<path fill="#545755" d="M436.2,212.2c-0.9-1.3-1.7-2.6-2.5-3.9c-0.9,1.2-1.9,2.3-3,3.4c1.6,0.6,3.1,1.3,4.6,2.2
			C435.5,213.3,435.8,212.8,436.2,212.2z"/>
		<path fill="#FFFFFF" d="M440.4,209.2c1.7-0.7,3.6-0.9,5.4-1c-1.3-2.1-2.6-4.3-3.8-6.4c-1.3-2.2-3.2-5.1-6-5
			c-0.1,0-0.2,0.1-0.3,0.1c-3,0.6-5.2,2.5-7.4,4.5c-2.4,2.2-4.7,4.4-7,6.6c-2.2,2.1-4.4,4.2-6.5,6.4c-1.1,1.1-2.1,2.3-3.1,3.6
			c-0.5,0.6-0.8,1.2-1.3,1.5c0.1,0.2,0.3,0.5,0.4,0.7c0.7,1.4-1.4,2.6-2.1,1.2c-1.3-2.7-3.2-5.1-6-6.3c-2.2-1-5.9-1.3-8,0.4
			c0.3-0.1,0.5-0.2,0.8-0.3c2.9-0.8,5.6,1.5,7.2,3.6c0.6,0.8-0.8,1.6-1.4,0.8c-1-1.4-2.6-2.8-4.4-2.9c-2.4-0.2-3.8,2-3,4.2
			c0.1,0.2,0.1,0.4,0,0.6c0.5,1.5,1.2,3,1.6,4c1.1,2.8,2.6,5.4,4.6,7.6c0.3,0.3,0.4,0.6,0.3,0.9c2.3,0.1,5.1,0,5.9-1.7
			c0.4-0.8,0.1-2.1,0.2-3c0-0.2,0.1-0.5,0.1-0.7c0,0,0,0,0,0c-0.8-2.5-2.1-4.8-3.8-6.8c-0.7-0.8,0.5-1.9,1.1-1.1
			c1.5,1.7,2.7,3.6,3.6,5.6c0.6-1.1,1.4-2,2.4-2.8c2.3-1.9,5.1-2.6,8-3c3-2.9,6.1-5.7,9.1-8.6c0.2-0.3,0.4-0.6,0.8-0.8
			c2.7-2.6,5.1-5.4,6.7-8.8c0.6-1.4,2.7-0.2,2.1,1.2c-0.4,0.9-0.9,1.8-1.5,2.7c0,0,0.1,0.1,0.1,0.1c0.9,1.4,1.8,2.8,2.7,4.2
			C438.7,210,439.5,209.5,440.4,209.2z"/>
		<path fill="#545755" d="M423.4,184.2c-2,3.3-5.4,5.5-9.2,6.6c2.7,1.8,6.2,2.9,9.2,1.1c1.4-0.9,2.3-2.4,2.2-4.1
			C425.6,186.3,424.5,185.2,423.4,184.2z"/>
		<path fill="#FFFFFF" d="M391.2,180.8c2.9,1.5,6.9,0.1,9.2-1.9c-0.2-1.5-0.1-3.1,0.7-4.8c1.3-3.1,4.1-6.1,7.3-7.1
			c0.3-0.1,0.6-0.2,0.9-0.2c0.6-4.8-7.3-4.1-9.9-2.9c-3,1.4-5.5,3.9-7.3,6.7C390.6,172.9,387.6,178.9,391.2,180.8z M392.4,174
			c0.5-1.6,1.4-3.1,2.5-4.4c1-1.2,2.3-2.8,3.9-3.1c0.6-0.1,1,0.2,1.2,0.6c0.5,0.4,0.8,1.2,0.6,1.9c-0.4,1.6-1.6,3.3-2.7,4.6
			c-0.9,1.1-2.2,2.8-3.7,3C392.5,176.8,392,175.3,392.4,174z"/>
		<path fill="#95D2E9" d="M660.1,287c1.7,0.1,3.4,0.3,5.1-0.2c1.7-0.5,3.2-2,2.6-3.9c-0.5-1.7-2.3-2.6-3.9-3.1c-2.8-0.8-5.9-1-8.8-1
			c-6.1,0-12.1,1.2-17.7,3.4c-2.8,1.1-5.4,2.5-7.9,4.1c-0.6,0.4-3.6,2.8-5.4,4.2c6.5-1.6,13.2-2.7,19.9-3.3
			c3.5-0.3,6.9-0.4,10.4-0.4C656.2,286.8,658.1,286.9,660.1,287z"/>
		<path fill="#95D2E9" d="M682.9,308c-1.8-2.7-4.9-7.2-8.3-5.9c0.5,0.8-0.1,2.2-1.3,1.9c-4.6-1.3-11.7-2.1-15.5,1.5
			c-1.9,1.8-1.8,4.5-0.1,6.4c1.8,2.1,4.5,2.7,7.1,2.6c3.6,0,9.9-2.4,12,1.9c1.1,2.2-0.8,4.5,0.1,6.7c0.5,1.2,1.9,2.4,3.3,1.9
			c1.4-0.5,2-2.1,1.5-3.4c-0.2-0.6,0.3-1.4,0.9-1.5c2.8-0.6,3.4-3.9,3-6.3C685.2,311.7,684.1,309.8,682.9,308z"/>
		<path fill="#95D2E9" d="M639.3,307.4c0.7,0.2,1.4,0.4,2.1,0.5c0.9,0.2,2.5,0.7,2.4-0.6c-0.1-1.3-2.2-2.8-3.2-3.5
			c-1.6-1.1-3.4-1.7-5.3-2.2c-2.9-0.7-6.6-1.4-9.7-0.6c2.5,1.6,5.1,3,7.8,4.2C635.3,306,637.3,306.8,639.3,307.4z"/>
		<path fill="#95D2E9" d="M684,333.5c-0.3,0.1-0.5,0.9-0.6,1.2c-0.3,0.7-0.7,1.7-0.5,2.5c0.3,1.4,1.2,0.5,1.6-0.2
			c0.3-0.5,0.7-1.6,0.8-2.3c-0.1-0.1-0.1-0.2-0.2-0.3C685,334.1,684.4,333.4,684,333.5z"/>
		<path fill="#95D2E9" d="M636.8,265.8c0.9-1.2,2.6-3.6,2.1-5.2c-0.9-3.1-5.2,0.7-6.1,1.8c-1.4,1.5-2.5,3.3-3.5,5.1
			c-1.4,2.5-2.4,5.1-3.2,7.8c2.2-1.7,4.4-3.3,6.5-5.1C634.2,268.8,635.6,267.4,636.8,265.8z"/>
		<path fill="#FFFFFF" d="M512.2,191.6c-4.5,5.6-8.2,12-11.3,18.5c-1.6,3.4-3,6.9-3.8,10.5c-0.4,1.9-0.7,3.9-0.8,5.8
			c0,0.7-0.1,1.6,0.3,2.2c0.8,1.1,1.9-0.4,2.5-1c1.3-1.5,2.4-3.2,3.3-5c0.5-1,0.9-2.3,1.8-3.1c1.5-1.2,2.7-0.2,3.3,1.2
			c0,0.2,0,0.4,0,0.6c0.5,0.2,1,0.3,1.5,0.5c0.4-0.1,0.9-0.7,1.1-1c0.5-0.6,0.8-1.3,1.2-2c0.6-1,1.3-1.9,2.4-2.4
			c1.4-0.5,2.9,0.1,3.4,1.4c1.1-0.9,1.3-4.2,1.4-5.1c0.3-2,0.6-4.1,0.8-6.2c0.4-3.4,0.8-6.8,1.4-10.2c1.3-6.6,4.1-12.2,7.6-17.7
			C521.9,181.4,516.5,186.1,512.2,191.6z"/>
		<path fill="#FFFFFF" d="M516.8,225.3c-0.2,0.7-0.3,1.4-0.3,2.1c0.2,0.2,0.3,0.4,0.2,0.8c0.3,0,0.6-0.1,0.8-0.4
			c0.2-0.3,0.4-0.5,0.6-0.8c0.3-0.4,0.5-0.8,0.7-1.3c0.3-0.8,0.5-1.7,0.4-2.5C518,222.4,517,224.6,516.8,225.3z"/>
		<path fill="#FFFFFF" d="M548.7,207.9c9.1,4.9,18.3,9.5,27.7,13.6c0.1-0.1,0.1-0.2,0.2-0.2c6.3-4.5,11.9-10.6,15.2-17.8
			c1.5-3.2,2.4-7.2,0.5-10.4c-2.3-3.8-6.1-2.9-9.7-2c-2.5,0.6-4.9,0.8-7.3-0.4c-2.2-1.1-3.9-3-5.7-4.6c-2.5-2.3-5-4-8.6-3.9
			c-3.5,0.1-6.8,1.5-10,2.6c-3.2,1.1-6.4,2.1-9.8,1.7c-3.4-0.4-7-2.4-10.3-0.6c-0.2,0.1-0.4,0.1-0.6,0.1c-0.2,0.1-0.5,0.3-0.7,0.4
			c-0.2,0.2-0.5,0.3-0.7,0.5c-1.6,1.5-3.3,3-5,4.3c-0.3,0.8-0.5,1.7-0.7,2.5c4.4,1.5,8.5,4.5,12.5,6.9
			C539.9,203,544.3,205.5,548.7,207.9z"/>
		<path fill="#FFFFFF" d="M524.3,215.3c-0.1,1.1-0.7,3.6,0.1,4.5c0,0,0.1,0.1,0.1,0.1c0.7,0.2,1.6-4.1,1.6-4.4
			c0.2-1.4,0.3-2.8,0.2-4.2C525.5,210.7,524.3,215.3,524.3,215.3z"/>
		<path fill="#95D2E9" d="M543.8,145.4c-0.1,0.1-0.3,0.1-0.4,0.1c-12.6,10.1-22,23.8-27,39.1c2.6-2.4,5.4-4.5,8.5-6.1
			c-0.1-0.1-0.1-0.3,0-0.4c2.2-4.7,4.6-9.2,7.3-13.6c0.3-0.4,1,0,0.7,0.4c-2.6,4.3-4.9,8.7-7.1,13.2c1.4-0.7,2.8-1.3,4.4-1.8
			c0.1,0,0.2,0,0.2,0c5.6-7.5,10.1-15.7,13.3-24.5c0.4-1,1.9-0.6,1.6,0.4c-3.6,9.9-8.8,19.1-15.4,27.4c-0.1,0.1-0.2,0.2-0.3,0.2
			c-2,3.1-3.9,6.2-5.2,9.6c0,0.1,0,0.1-0.1,0.2c1.9-1.5,3.7-3.2,5.4-4.9c0.1-0.2,0.2-0.3,0.4-0.4c0,0,0,0,0,0
			c8.1-8.2,14.3-18.1,18-29c0.2-0.5,1-0.3,0.8,0.2c-3.6,10.5-9.5,20.2-17.1,28.2c3.2-0.7,6.3,0.8,9.7,1.1c4.8,0.5,9.3-2,13.8-3.4
			c3.4-1,7.2-1.6,10.5-0.2c2.5,1.1,4.5,3.2,6.4,5c2.9,2.7,5.5,4.1,9.5,3.2c3.1-0.7,6.3-1.8,9.3,0c6.1,3.8,3.8,11.9,1,16.9
			c-3.3,6-8,11.2-13.5,15.3c3.1-0.3,6.8-3.8,8.5-5.6c2.3-2.4,4.3-5.1,6.1-7.9c1.7-2.8,3.2-5.9,4.3-9c1.1-3.2,2.3-6.8,0.6-10
			c-0.1-0.1-0.1-0.3-0.1-0.4c-14-11.9-28-23.7-42-35.6c-0.4-0.3,0.2-0.9,0.6-0.6c14,11.9,28,23.7,42,35.6c0.2,0,0.4,0.1,0.5,0.3
			c1.9,3.4,0.8,7.2-0.4,10.6c-1.3,3.8-3.1,7.4-5.3,10.8c-2.3,3.5-4.9,6.8-8.1,9.4c-2.4,2-6,4.5-9.2,3.2c-0.2-0.1-0.3-0.3-0.3-0.4
			c-9.2-4-18.2-8.4-27-13.2c-4.4-2.4-8.8-4.9-13.2-7.4c-4.2-2.4-8.4-5.6-12.9-7.2c-0.2,1-0.4,1.9-0.6,2.9c0.1,0,0.1,0,0.2,0.1
			c9.3,5.2,18.7,10.4,28,15.6c8.8,5,17.8,9.7,27.5,12.7c0.2,0,0.3,0.1,0.4,0.2c7.2-1.9,12.9-7.6,16.8-13.7c2.1-3.4,3.9-7,5.2-10.7
			c1.3-3.6,2.4-7.3,2.1-11.2c0,0-0.1,0-0.1-0.1c0,0,0,0-0.1-0.1c-0.1-0.1-0.2-0.2-0.3-0.4c-2.2-1.9-4.3-3.9-6.5-5.8
			c-0.1-0.1-0.2-0.2-0.3-0.2c-2.3-1.9-4.5-3.9-6.8-5.8c-4.5-3.9-9-7.7-13.6-11.6c-3.9-3.3-7.8-6.7-11.8-10c-2.9-2.4-5.7-4.7-8.6-7
			c-0.1,0-0.1-0.1-0.2-0.1c-0.1-0.1-0.1-0.1-0.2-0.2c-0.2-0.1-0.3-0.3-0.5-0.4c-0.1-0.1-0.2-0.2-0.2-0.2
			C550.7,146.1,547.1,143.3,543.8,145.4z M534.5,162.2c-0.3,0.4-0.5,0.8-0.8,1.2c-0.3,0.4-1,0-0.7-0.4c0.3-0.4,0.5-0.8,0.8-1.2
			C534.1,161.3,534.8,161.7,534.5,162.2z M541.7,154.3c-2.5,1.6-4.5,3.6-6,6.1c-0.3,0.4-1,0-0.7-0.4c1.6-2.6,3.7-4.8,6.3-6.4
			C541.7,153.3,542.1,154,541.7,154.3z M551.5,154.7c0.2-0.8,0.4-1.7,0.7-2.5c0.1-0.5,0.2-1.2,0.6-1.5c0.8-0.7,1.8,0.5,2.2,1.2
			c0.3,0.4-0.4,0.9-0.7,0.4c-0.1-0.2-0.5-0.8-0.8-0.8c-0.4,0-0.5,0.9-0.6,1.1c-0.2,0.8-0.4,1.6-0.6,2.4
			C552.2,155.4,551.4,155.2,551.5,154.7z M550.5,158.5c0.1-0.5,0.3-1,0.4-1.5c0.1-0.5,0.9-0.3,0.8,0.2c-0.1,0.5-0.3,1-0.4,1.5
			C551.1,159.3,550.3,159.1,550.5,158.5z"/>
		<g>
			<path fill="#C9E6EE" d="M610.4,434.7c0.9,0.1,1.6,0.4,2.3-0.4c0.6-0.6,0.9-1.7,0.9-2.5c0-1.5-0.9-2.8-2.2-3.6
				c-1.5-0.9-3.3-1-4.9-0.8c-0.8,0.1-1.9,0.2-2.5,0.7c-0.8,0.5-0.9,1.2-1.2,2c-0.5,1-1.3,1.8-1.6,2.9c-0.4,1.5,0.2,3.2,1.5,4.1
				c0.2,0.1,0.3,0.3,0.4,0.5c1.6,0.1,2.9-1.4,4.3-2.1C608.2,434.8,609.3,434.5,610.4,434.7z"/>
		</g>
		<g>
			<path fill="#95D2E9" d="M627.1,394.4c2.7,1,2.9-4.2,3.9-5.5c0,0,0.1-0.1,0.1-0.1c0.5-0.9,1-1.7,1.7-2.4c0.3-0.3,0.9-0.6,1.1-1
				c0.5-1-0.5-1.4-1.3-1.5c-2.4-0.2-5.4,2.7-5.4,5c0,0.8,0.2,1.3-0.2,2c-0.2,0.4-0.5,0.8-0.6,1.2
				C626.1,392.9,626.1,394.1,627.1,394.4z"/>
		</g>
		<g>
			<path fill="#95D2E9" d="M621.3,405.7c0.5-1.4,0.3-2.6-1.2-3c-1.4-0.4-2.9-0.7-4.3-0.1c-1.7,0.8-3,2.3-4.5,3.4
				c-0.1,0.6-0.4,1.1-1.1,1.2c-2.7,0.3-5.6,0.4-8.3,1.1c-1.4,0.4-3.1,1.1-3.2,2.7c-0.1,1.4,1,2.6,2.2,3.3c1.1,0.6,2.2,0.8,3.3,1.2
				c0.7,0.3,1.2,1,1.8,1.2c1,0.4,2.7,0,3.8-0.2c1.3-0.2,2.5-0.5,3.6-1.3c1.6-1.2,1.3-3.4,3-4.4C618.5,409.6,620.4,408.3,621.3,405.7
				z"/>
		</g>
		<g>
			<path fill="#95D2E9" d="M592.8,385.1c-1.1-0.9-2.5-1.5-3.8-1.8c-2.2-0.6-7.8-1-8,2.4c-0.1,1.3-1.7,1.5-2.3,0.7c0,0-0.1,0-0.1-0.1
				c0.1,0.5-1.4,0.7-1.8,0.8c-0.8,0.3-1.5,0.6-2.2,1c-1.4,0.8-2.6,2-3.2,3.5c-0.6,1.5-0.4,3.3,0.8,4.4c1.2,1,3.3,0.8,3.9-0.8
				c0.3-0.9,1.7-1.3,2.2-0.3c0.8,1.6,0.4,3.8,1.7,5.2c1.3,1.5,3.4,1.7,5.2,1.2c2.8-0.8,10-6.6,5.7-9.6c-0.9-0.6-0.7-1.9,0.3-2.2
				C593.2,388.9,594.9,386.8,592.8,385.1z"/>
		</g>
	</g>
</g>
</svg>
