<?xml version="1.0" encoding="utf-8"?>
<!-- Generator: Adobe Illustrator 21.1.0, SVG Export Plug-In . SVG Version: 6.00 Build 0)  -->
<svg version="1.0" id="_x30_1_x5F_배경" xmlns="http://www.w3.org/2000/svg" xmlns:xlink="http://www.w3.org/1999/xlink" x="0px"
	 y="0px" width="892.9px" height="609.4px" viewBox="0 0 892.9 609.4" enable-background="new 0 0 892.9 609.4"
	 xml:space="preserve">
<rect x="-5.8" y="-7.2" fill="#A0D6D0" width="904.5" height="624"/>
<path fill="none" d="M369.4-360.1c0.3-0.2,0.6-0.5,0.8-0.6C370-360.5,369.7-360.3,369.4-360.1z"/>
<path fill="none" d="M711-365.1c0.1,0,0.3,0,0.4-0.1C711.2-365.2,711.1-365.1,711-365.1C711-365.1,711-365.1,711-365.1z"/>
<path fill="none" d="M710.5-364.6c0.1,0,0.2-0.3,0.3-0.5c0,0,0,0,0,0C710.7-364.9,710.6-364.6,710.5-364.6z"/>
<path fill="none" d="M711.4-365.2C711.4-365.2,711.3-365.2,711.4-365.2C711.3-365.2,711.4-365.2,711.4-365.2L711.4-365.2z"/>
<path fill="#FFFFFF" d="M710.9-365.1C710.9-365.1,710.8-365.1,710.9-365.1C710.8-365.1,710.9-365.1,710.9-365.1c0,0,0.1,0,0.1-0.1
	c0,0,0,0,0,0C710.9-365.1,710.9-365.1,710.9-365.1C710.8-365.1,710.8-365.1,710.9-365.1C710.8-365.1,710.8-365.1,710.9-365.1
	C710.8-365.1,710.8-365.1,710.9-365.1C710.8-365.1,710.8-365.1,710.9-365.1z"/>
<path fill="#FFFFFF" d="M711.4-365.2L711.4-365.2C711.4-365.2,711.3-365.2,711.4-365.2c-0.1-0.1-0.1-0.1-0.1-0.1
	c-0.1,0-0.1,0.1-0.2,0.1c0,0-0.1,0-0.1,0C711.1-365.1,711.2-365.2,711.4-365.2L711.4-365.2z"/>
<g>
	<path fill="#F2AFC2" d="M534.9,258c-3.2,2.9-6,6.1-8.2,10c-0.4-0.3-0.8-0.5-1.1-0.7c-5.5-3.4-11.4-5.7-17.9-6.6
		c-22.5-3-42.4,11.5-47.6,32.1c-0.1,0.4-0.2,0.7-0.3,1.2c-0.8,0-1.6,0-2.4,0c-1.1,0-1.1,0-1.4,1.1c-0.6,2.3-0.9,4.7-1,7.1
		c-0.1,2.3-0.1,4.5,0,6.8c0.1,1.4,0.3,2.8,0.6,4.2c0.2,1.2,1,1.7,2.2,1.8c0.8,0,1.6,0,2.3,0c0.1,0,0.1,0,0.3,0.1
		c0.1,0.2,0.2,0.5,0.3,0.8c4.5,14.7,16,25.7,30.9,29.5c5,1.3,10,1.6,15.1,1c7.1-0.8,13.5-3.2,19.5-7c0.3-0.2,0.6-0.4,1-0.6
		c2.1,3.8,5,6.9,7.7,10.2c-16.9,13.2-47.5,16.6-70.2-3.3c-23.2-20.4-25.4-56.3-5-79.3C480.4,242.8,513.6,242.1,534.9,258z
		 M522.4,261.6c0,0.6,0.2,1,0.6,1.2c0.4,0.2,0.8,0.1,1.1-0.2c0.3-0.3,0.5-0.6,0.7-0.9c0.7-1.1,1.5-2.1,2.2-3.2
		c0.2-0.2,0.3-0.4,0.4-0.7c0.2-0.5,0.1-0.9-0.3-1.3c-0.4-0.3-0.8-0.5-1.3-0.2c-0.2,0.1-0.4,0.2-0.5,0.4c-1.1,1.3-2.1,2.6-2.7,4.3
		C522.5,261.2,522.5,261.5,522.4,261.6z M509.6,354.9c0-0.1-0.1-0.3-0.1-0.5c-0.2-1-0.4-2-0.7-3c-0.1-0.4-0.1-0.7-0.3-1.1
		c-0.3-0.8-1.3-1-1.8-0.3c-0.2,0.2-0.3,0.6-0.4,0.9c-0.1,1.4,0,2.7,0.5,4c0.1,0.4,0.4,0.8,0.7,1.1c0.3,0.4,0.8,0.4,1.3,0.2
		C509.4,355.9,509.6,355.5,509.6,354.9z M456.8,277.1c-0.9,0-1.4,0.7-1.1,1.3c0.1,0.2,0.2,0.4,0.3,0.5c0.9,1.2,2.1,2.1,3.4,3
		c0.2,0.1,0.5,0.2,0.8,0.3c0.6,0.1,1.3-0.3,1.5-0.8c0.2-0.6,0-1.1-0.7-1.5c-0.3-0.2-0.7-0.4-0.9-0.6c-0.8-0.6-1.6-1.3-2.4-1.9
		C457.4,277.3,457,277.2,456.8,277.1z M486.1,348.5c0-0.6-0.1-1-0.6-1.2c-0.5-0.2-0.9-0.1-1.2,0.3c-0.4,0.5-0.7,1-0.9,1.6
		c-0.4,0.9-0.7,1.8-1,2.7c-0.3,1-0.1,1.7,0.6,2c0.7,0.3,1.4-0.1,1.7-1.1c0.5-1.3,0.9-2.6,1.3-3.9
		C486.1,348.7,486.1,348.6,486.1,348.5z M521.8,352.6c-0.2-0.8-0.3-1.5-0.4-2.1c-0.2-1.2-0.8-2.2-1.4-3.2c-0.2-0.3-0.5-0.6-0.9-0.5
		c-0.3,0.1-0.7,0.4-0.8,0.7c-0.1,0.4,0,0.9,0,1.4c0.2,1,0.4,2,0.7,2.9c0.2,0.5,0.4,1.1,0.8,1.5c0.3,0.4,0.9,0.5,1.3,0.1
		C521.5,353.2,521.7,352.8,521.8,352.6z M456.4,292.6c0.2,0,0.3,0,0.3,0c0.9-0.1,1.5-0.5,1.5-1.2c0-0.7-0.5-1.1-1.5-1.2
		c-0.9-0.2-1.8-0.4-2.8-0.6c-0.5-0.1-1-0.3-1.5-0.3c-0.6-0.1-1.1,0.2-1.2,0.7c-0.2,0.5,0,1.1,0.6,1.3
		C453.4,292,454.9,292.4,456.4,292.6z M506.9,252.1c0-0.9-0.4-1.4-1-1.6c-0.5-0.1-1.1,0.2-1.4,0.8c-0.2,0.4-0.3,0.8-0.4,1.2
		c-0.2,1-0.3,2.1-0.3,3.1c0,0.6,0.4,1,0.9,1.1c0.5,0.1,1-0.1,1.2-0.7C506.2,254.8,506.6,253.3,506.9,252.1z M486.6,258.5
		c0-0.1,0-0.3-0.1-0.4c-0.3-1.1-0.7-2.2-1-3.3c-0.1-0.3-0.2-0.6-0.4-0.9c-0.5-0.7-1.4-0.6-1.7,0.3c-0.1,0.2-0.1,0.5-0.1,0.7
		c0.1,1.4,0.4,2.7,0.9,3.9c0.1,0.3,0.4,0.6,0.7,0.8C485.6,260,486.5,259.4,486.6,258.5z M495.2,354.5
		C495.2,354.5,495.2,354.5,495.2,354.5c0.1,0.4,0,0.8,0.1,1.2c0.1,0.6,0.6,1.1,1.2,1.1c0.6,0,1.2-0.4,1.2-1.1
		c0.1-1.2,0.1-2.4,0.2-3.6c0-0.2-0.1-0.3-0.1-0.5c-0.2-0.7-0.7-1-1.2-1c-0.5,0.1-0.9,0.5-1,1.1C495.4,352.6,495.3,353.5,495.2,354.5
		z M461.4,326.5c-0.4,0.2-0.7,0.3-1,0.5c-0.9,0.6-1.9,1.2-2.8,1.8c-0.3,0.2-0.5,0.4-0.7,0.7c-0.3,0.4-0.2,1,0.1,1.4
		c0.4,0.4,0.8,0.5,1.3,0.2c1.1-0.6,2.2-1.2,3.2-1.9c0.3-0.2,0.6-0.5,0.8-0.8c0.3-0.4,0.3-0.9,0-1.2
		C462,326.9,461.7,326.7,461.4,326.5z M496.7,255.2c-0.1-0.5-0.3-1.2-0.4-1.8c-0.1-0.6,0-1.3,0-1.9c0-0.8-0.4-1.3-0.9-1.4
		c-0.6-0.1-1.1,0.4-1.3,1.2c0,0.1,0,0.1,0,0.2c0,0.9-0.1,1.8,0,2.6c0.1,0.7,0.3,1.5,0.9,2c0.4,0.3,0.8,0.4,1.2,0.2
		C496.6,256.1,496.7,255.7,496.7,255.2z M513.7,257c0,0.2,0,0.3,0,0.5c0,0.4,0.2,0.8,0.7,0.9c0.5,0.1,0.8-0.1,1-0.5
		c0.1-0.2,0.2-0.5,0.3-0.7c0.4-0.8,0.8-1.7,1.2-2.5c0.2-0.4,0.4-0.7,0.5-1.1c0.2-0.5-0.1-1-0.5-1.2c-0.4-0.2-0.9-0.2-1.2,0.2
		C514.7,253.9,513.8,255.2,513.7,257z M453.6,320.1C453.6,320.2,453.6,320.2,453.6,320.1c1.2-0.2,2.3-0.4,3.5-0.7
		c0.6-0.2,0.9-0.7,0.8-1.2c-0.1-0.5-0.5-0.8-1.1-0.9c-0.4,0-0.8,0.1-1.2,0.1c-1,0.1-2,0.3-3,0.4c-0.6,0.1-1,0.3-1.1,0.8
		c-0.1,0.5,0.2,1.1,0.8,1.2C452.6,320.1,453.1,320.1,453.6,320.1z M466.8,334.4c-0.2,0.1-0.6,0.2-0.9,0.5c-0.8,0.7-1.6,1.4-2.4,2.1
		c-0.2,0.2-0.4,0.3-0.5,0.5c-0.4,0.5-0.4,1,0,1.4c0.3,0.4,0.8,0.5,1.4,0.2c0.1-0.1,0.2-0.1,0.3-0.2c0.9-0.8,1.9-1.6,2.8-2.4
		c0.1-0.1,0.3-0.3,0.4-0.5C468.3,335.2,467.8,334.4,466.8,334.4z M464.1,267.2c-0.8-0.1-1.3,0.3-1.4,0.9c0,0.2,0,0.3,0,0.5
		c0.4,1.4,1.1,2.6,2.2,3.4c0.6,0.5,1.3,0.4,1.7-0.1c0.4-0.5,0.4-1-0.1-1.6c-0.6-0.8-1.2-1.6-1.8-2.3
		C464.6,267.5,464.3,267.3,464.1,267.2z M473.7,258.8c-0.5,0-0.9,0.3-1,0.8c0,0.2,0,0.4,0,0.6c0.2,1.3,0.7,2.5,1.4,3.6
		c0.2,0.2,0.4,0.4,0.7,0.6c0.5,0.3,1,0.2,1.3-0.2c0.3-0.3,0.4-0.8,0.2-1.2c-0.5-1.1-1-2.3-1.5-3.4
		C474.5,259.1,474.2,258.8,473.7,258.8z M471.7,346c-0.1,0.8,0.4,1.2,1.1,1c0.4-0.1,0.7-0.4,1-0.7c0.7-0.8,1.4-1.6,2.1-2.5
		c0.5-0.6,0.5-1.1,0.2-1.6c-0.4-0.4-1-0.5-1.6-0.2C472.9,343,472.1,344.5,471.7,346z"/>
	<path fill="#F2AFC2" d="M375.6,249.5c2.3-0.7,4.5-1.2,6.7-1.6c4.2-0.7,8.5-0.9,12.7-0.6c13.6,1.1,25.4,6.1,34.4,16.7
		c4.4,5.1,7.2,11.1,8.2,17.8c1.1,7.8-0.3,15.1-4.2,21.9c-3.7,6.6-9.1,11.7-15.6,15.5c-5.7,3.4-11.9,5.5-18.4,6.5
		c-3.7,0.6-7.4,0.7-11.1,0.5c-3.9-0.2-7.7-0.8-11.5-1.8c-1-0.3-1-0.3-1-1.4c0-10,0-20,0-30.1c0-11.3,0-22.7-0.1-34
		c0-2.8-0.1-5.6-0.1-8.4C375.6,250.2,375.6,249.9,375.6,249.5z M386.7,315.2c1.2,0.1,2.2,0.2,3.3,0.1c2.8-0.1,5.7-0.2,8.5-0.5
		c3.8-0.5,7.6-1.4,11.1-3c3.5-1.5,6.7-3.6,9.4-6.3c3.6-3.5,6.2-7.7,7.8-12.5c1-3,1.1-5.9,0.4-8.9c-0.8-3.7-2.6-7.1-4.7-10.3
		c-2.1-3.3-4.9-6-8.3-8.1c-0.7-0.4-1.4-0.9-2.2-1.3c-3.1-1.7-6.5-2.7-9.8-3.8c-2.1-0.7-4.4-0.8-6.6-1.1c-2.8-0.3-5.5-0.2-8.3,0
		c-0.7,0.1-0.8,0.2-0.8,0.9c0,1.1,0,2.2,0,3.4c0,16.8,0.1,33.5,0.1,50.3C386.7,314.5,386.7,314.8,386.7,315.2z"/>
</g>
<g>
	<path fill="#A0D6D0" d="M498.3,296.7c-0.7,5.2-0.7,10.3,0.1,15.4c-13.5,0-26.9,0-40.3,0c-0.8-2.1-0.4-12.4,0.3-15.1
		c0.1,0,0.2-0.1,0.3-0.1c2-0.1,3.9-0.2,5.9-0.2c10.8,0,21.6,0,32.4,0C497.4,296.7,497.8,296.7,498.3,296.7z"/>
	<g>
		<path fill="#A0D6D0" d="M438.7,360.3c-0.3,0-0.4,0.1-0.6,0.1c-2.3,0-4.7,0-7,0c-1.2,0-1.3-0.2-1.4-1.3c-0.2-1.4-0.4-2.8-0.6-4.2
			c-0.4-2-1-3.9-2.1-5.7c-5-8.5-12.1-14.2-21.6-16.8c-4.7-1.3-9.5-1.5-14.4-1.5c-0.4,0-0.7,0-1.1,0c0,0-0.1,0-0.2-0.1
			c0-0.2-0.1-0.5-0.1-0.8c0-0.3,0-0.5,0.1-0.9c0.4,0,0.7,0,1,0c6.6,0.1,13.1-1,19.3-3.1c1-0.4,2-0.3,3,0c4.1,1.2,7.9,3.2,11.3,5.6
			c5.9,4.3,10.5,9.6,12.9,16.7c1.2,3.7,1.7,7.4,1.6,11.3C438.8,359.9,438.8,360,438.7,360.3z"/>
		<path fill="#A0D6D0" d="M386.5,359.6c-3.6,0-7,0-10.4,0c-0.1,0-0.1-0.1-0.1-0.1c0,0-0.1-0.1-0.1-0.1c0-0.1-0.1-0.3-0.1-0.4
			c0-10.5,0-20.9,0-31.4c0-0.1,0-0.3,0-0.3c3.5,0.6,7,1.3,10.6,1.9C386.5,339.2,386.5,349.4,386.5,359.6z"/>
	</g>
</g>
<g>
	<g>
		<g>
			<path fill="#595757" d="M582.4,284.5c0,1,0,1.8,0,2.7c0.7,0.1,1.4,0.1,2,0.2c5.4,0.4,10.6,1.7,15.4,4.3c2.2,1.2,4.3,2.7,5.9,4.7
				c1.3,1.6,2.3,3.4,2.7,5.4c0.4,2.4,0,4.6-1.1,6.7c-1.1,2-2.7,3.7-4.5,5c-3.4,2.6-7.3,4.1-11.4,5.1c-4.7,1.1-9.5,1.5-14.3,1.1
				c-4.7-0.4-9.2-1.4-13.4-3.3c-2.2-1-4.3-2.3-6.1-3.9c-1.2-1.1-2.2-2.3-3-3.7c-2-3.5-2-7.1,0-10.6c1.2-2.1,3-3.8,5-5.2
				c3.3-2.3,7-3.7,10.9-4.7c2.8-0.7,5.7-1,8.5-1.2c0.2,0,0.5,0,0.8-0.1c0-0.8,0-1.7,0-2.6c-0.4,0-0.8,0-1.1,0c-2.6,0-5.1,0-7.7,0
				c-0.3,0-0.6,0-0.9,0c-0.7-0.1-1.1-0.6-1.1-1.2c0-0.6,0.4-1.1,1-1.2c0.4-0.1,0.7-0.1,1.1-0.1c2.5,0,5.1,0,7.6,0
				c0.4,0,0.7,0,1.1-0.1c0-0.7,0-1.2,0-1.9c-0.3,0-0.6-0.1-1-0.1c-1.5,0-3,0-4.6,0c-0.3,0-0.7,0-1-0.1c-0.7-0.1-1.1-0.7-1.1-1.3
				c0-0.6,0.5-1.1,1.3-1.2c0.2,0,0.5,0,0.7,0c1.5,0,3,0,4.6,0c0.3,0,0.7,0,1.1,0c0-0.4,0-0.7,0.1-1.1c0-0.2,0-0.5,0-0.7
				c0.1-0.7,0.6-1.1,1.2-1.1c0.6,0,1.1,0.4,1.3,1.1c0.1,0.6,0.1,1.1,0.1,1.8c0.3,0,0.6,0.1,0.9,0.1c1.6,0,3.3,0,4.9,0
				c0.2,0,0.5,0,0.7,0c0.8,0.1,1.2,0.5,1.3,1.2c0,0.7-0.4,1.2-1.1,1.3c-0.3,0.1-0.6,0.1-0.9,0.1c-1.6,0-3.1,0-4.7,0
				c-0.3,0-0.7,0-1.1,0c0,0.6,0,1.2,0,1.9c0.4,0,0.7,0,1.1,0c2.7,0,5.3,0,8,0c0.4,0,0.7,0,1.1,0.1c0.6,0.1,1,0.6,1,1.2
				c0,0.6-0.4,1.1-1,1.2c-0.3,0.1-0.6,0-0.9,0c-2.7,0-5.4,0-8.1,0C583.3,284.5,582.9,284.5,582.4,284.5z M581.4,317.6
				c3,0.1,6.5-0.4,10-1.3c3.7-0.9,7.1-2.3,10.2-4.6c1.6-1.2,3.1-2.7,4-4.5c1.3-2.5,1.3-4.9,0-7.4c-0.7-1.3-1.6-2.5-2.7-3.5
				c-1.7-1.6-3.6-2.7-5.7-3.7c-3.9-1.8-8-2.7-12.3-3.1c-4.8-0.4-9.6-0.1-14.3,1.1c-3.8,0.9-7.3,2.4-10.4,4.8c-1.3,1-2.4,2.1-3.3,3.4
				c-2,3.1-2.1,6.4,0,9.4c0.7,1,1.5,1.9,2.4,2.7c1.7,1.6,3.7,2.7,5.8,3.6C570,316.7,575.3,317.6,581.4,317.6z"/>
			<path fill="#595757" d="M576.7,322.8c0.5,0.2,1.1,0.4,1.5,0.7c0.7,0.5,1.4,0.5,2.1,0.1c0.6-0.3,1.1-0.3,1.6,0
				c0.7,0.5,1.4,0.4,2.2-0.1c0.5-0.3,1.1-0.5,1.7-0.6c0.3-0.1,0.7,0.1,0.8,0.4c0.1,0.2,0,0.7-0.2,0.9c-0.5,0.7-1.1,1.2-1.5,1.9
				c-0.9,1.4-1.7,2.8-2.6,4.3c-0.3,0.5-0.5,1.2-1.2,1.2c-0.7,0-0.8-0.7-1.1-1.2c-0.9-1.5-1.8-3-2.8-4.5c-0.3-0.5-0.8-1-1.2-1.5
				c-0.3-0.3-0.6-0.6-0.4-1.1C575.8,322.9,576.2,322.9,576.7,322.8z"/>
			<path fill="#595757" d="M581.2,350.3c-1.8-0.1-3.6-0.2-5.4-0.2c-0.4,0-0.8-0.1-1.2-0.2c-0.5-0.1-0.8-0.5-0.7-1
				c0-0.4,0.4-0.8,0.8-0.9c0.2,0,0.4,0,0.6,0c3.3,0.4,6.6,0.2,9.9,0.2c0.7,0,1.5-0.2,2.2-0.2c0.7-0.1,1.1,0.2,1.2,0.8
				c0.1,0.6-0.2,1-0.9,1.1c-1.5,0.2-3,0.3-4.4,0.4C582.6,350.3,581.9,350.3,581.2,350.3C581.2,350.3,581.2,350.3,581.2,350.3z"/>
			<path fill="#595757" d="M564.8,261c0,0.6-0.4,0.9-0.9,1.1c-1.4,0.7-2.8,1.2-4.1,2c-2.2,1.3-4.5,2.5-6.4,4.2
				c-0.2,0.2-0.7,0.4-1,0.4c-0.3,0-0.6-0.3-0.7-0.6c-0.2-0.4,0-0.8,0.3-1.1c0.8-0.7,1.6-1.4,2.6-2c2.1-1.3,4.2-2.5,6.4-3.7
				c0.8-0.4,1.6-0.8,2.5-1.1C564.1,259.9,564.7,260.3,564.8,261z"/>
			<path fill="#595757" d="M598.7,260.1c0.2,0.1,0.7,0.2,1,0.3c2.5,1.1,5,2.4,7.2,4c0.9,0.6,1.7,1.2,2.6,1.8
				c0.3,0.2,0.6,0.4,0.9,0.7c0.4,0.4,0.4,0.9,0.1,1.3c-0.3,0.4-0.8,0.5-1.3,0.2c-0.5-0.3-1.1-0.7-1.6-1.1c-2.3-1.9-4.9-3.3-7.6-4.6
				c-0.6-0.3-1.3-0.5-2-0.8c-0.5-0.2-0.8-0.6-0.7-1.1C597.5,260.3,597.9,260.1,598.7,260.1z"/>
			<path fill="#595757" d="M553.4,338.9c0.2,0.1,0.6,0.3,0.9,0.5c1.5,1.3,3.1,2.3,4.8,3.4c1.6,1,3.4,1.9,5.2,2.5
				c0.1,0,0.3,0.1,0.4,0.1c0.4,0.2,0.6,0.5,0.6,1c0,0.5-0.3,0.8-0.8,0.8c-0.3,0-0.7,0-1-0.1c-3.9-1.5-7.5-3.6-10.7-6.3
				c-0.2-0.2-0.4-0.3-0.5-0.5C552,339.5,552.5,338.9,553.4,338.9z"/>
			<path fill="#595757" d="M534.4,302.8c0.1-1.4,0.3-3.3,0.5-5.2c0-0.2,0.1-0.5,0.2-0.7c0.2-0.4,0.7-0.6,1.1-0.5
				c0.5,0.1,0.7,0.5,0.6,0.9c-0.1,0.7-0.2,1.5-0.3,2.2c-0.3,2.3-0.3,4.6,0,6.9c0.1,1,0.3,1.9,0.4,2.9c0.1,0.7-0.2,1.2-0.8,1.3
				c-0.6,0.1-1-0.2-1.2-1c-0.2-1-0.3-1.9-0.4-2.9C534.6,305.6,534.5,304.4,534.4,302.8z"/>
			<path fill="#595757" d="M624.5,286.1c0,0.7-0.2,1-0.6,1.1c-0.5,0.1-0.9,0-1.1-0.5c-0.1-0.1-0.1-0.2-0.1-0.4
				c-1-3.2-2.9-5.9-4.6-8.7c-0.3-0.5-0.7-0.9-1.1-1.3c-0.4-0.5-0.4-1.1,0-1.5c0.5-0.4,1.2-0.3,1.6,0.2c2.1,3,4.1,6.1,5.5,9.5
				C624.2,285.2,624.4,285.8,624.5,286.1z"/>
			<path fill="#595757" d="M610.2,339.7c-0.3,0.4-0.5,0.8-0.8,1.1c-0.5,0.5-1.1,0.9-1.7,1.2c-2.6,1.7-5.4,3.2-8.2,4.5
				c-0.3,0.1-0.6,0.3-0.8,0.4c-0.5,0.2-1,0-1.2-0.5c-0.2-0.4-0.1-0.9,0.3-1.2c0.2-0.1,0.4-0.2,0.6-0.3c3.2-1.5,6.4-3.1,9.2-5.2
				c0.4-0.3,0.6-0.6,1-0.8c0.3-0.1,0.7-0.2,0.9,0C609.7,339,609.9,339.4,610.2,339.7z"/>
			<path fill="#595757" d="M537.8,285.9c0-0.1,0.1-0.3,0.1-0.4c1.4-3.8,3.4-7.2,6-10.3c0.6-0.7,1.1-0.8,1.5-0.5c0.5,0.4,0.6,1,0,1.7
				c-1.4,1.7-2.7,3.6-3.7,5.6c-0.7,1.4-1.3,2.9-1.9,4.3c-0.3,0.6-0.6,0.9-1.2,0.8C538,287,537.7,286.5,537.8,285.9z"/>
			<path fill="#595757" d="M538.9,320c0.5,0,0.7,0.3,0.9,0.7c0.3,0.7,0.6,1.3,0.9,2c1,2.3,2.4,4.4,3.8,6.4c0.4,0.5,0.8,1,1.2,1.5
				c0.5,0.6,0.6,1.1,0.2,1.5c-0.4,0.4-0.9,0.4-1.4-0.1c-0.6-0.5-1.1-1.1-1.5-1.8c-1.9-2.7-3.5-5.5-4.8-8.5c-0.1-0.3-0.2-0.6-0.2-0.9
				C537.9,320.3,538.3,320,538.9,320z"/>
			<path fill="#595757" d="M617.4,332.4c-0.8,0-1.3-0.6-1.1-1.2c0.1-0.2,0.2-0.4,0.4-0.6c2.4-2.9,4.3-6.1,5.9-9.5
				c0.1-0.3,0.3-0.5,0.5-0.7c0.4-0.4,0.9-0.4,1.3-0.1c0.4,0.3,0.5,0.7,0.2,1.2c-1.3,2.4-2.6,4.7-4,7.1c-0.7,1.1-1.5,2.1-2.3,3.1
				C618,331.9,617.6,332.2,617.4,332.4z"/>
			<path fill="#595757" d="M582.1,258.7c-2.1,0.2-4.1,0.3-6.2,0.5c-0.3,0-0.7,0-1,0c-0.4-0.1-0.7-0.4-0.7-0.8c0-0.5,0.1-0.8,0.6-1
				c0.2-0.1,0.3-0.1,0.5-0.1c2.5-0.2,4.9-0.5,7.4-0.3c1.1,0.1,2.2,0,3.3,0.1c0.5,0,0.9,0.1,1.4,0.2c0.4,0.1,0.6,0.5,0.6,0.9
				c0,0.4-0.4,0.8-0.9,0.8c-0.2,0-0.4,0-0.6,0c-1.5-0.1-3-0.1-4.5-0.2C582.1,258.8,582.1,258.8,582.1,258.7z"/>
			<path fill="#595757" d="M628.2,283.8c1.7-0.7,3.3-1.4,5-2.2c0.6,1.5,1.1,3.1,1.8,4.8c-1.8,0.4-3.5,0.8-5.4,1.2
				C629.2,286.3,628.7,285.1,628.2,283.8z"/>
			<path fill="#595757" d="M602,277.9c-0.6,0-1.2,0-1.9,0c-0.4,0-0.9,0-0.9-0.5c0-0.3,0.2-0.7,0.4-0.9c0.7-0.6,1.5-1.2,2.2-1.8
				c0.9-0.8,1.8-1.7,2.7-2.6c0.2-0.2,0.5-0.6,0.8-0.3c0.2,0.1,0.3,0.5,0.3,0.8c-0.1,1.3-0.2,2.7-0.3,4c-0.1,0.7-0.5,1.1-1.3,1.2
				c-0.1,0-0.1,0-0.2,0C603.3,277.8,602.7,277.8,602,277.9z"/>
			<path fill="#595757" d="M556.2,332.8c0.1-0.8,0.1-1.6,0.2-2.3c0.1-0.9,0.4-1.4,1.4-1.5c1.2-0.1,2.5-0.2,3.7-0.2
				c0.4,0,0.8-0.1,1,0.4c0.2,0.5-0.2,0.8-0.5,1.1c-0.6,0.6-1.3,1.1-1.9,1.7c-0.9,0.9-1.8,1.9-2.7,2.9c-0.2,0.2-0.3,0.5-0.7,0.4
				c-0.4-0.2-0.4-0.5-0.4-0.8C556.2,333.8,556.2,333.3,556.2,332.8C556.2,332.8,556.2,332.8,556.2,332.8z"/>
			<path fill="#595757" d="M545.9,295.3c0.7,0,1.1,0.3,1.3,0.7c0.7,1.1,1.4,2.2,2,3.3c0.2,0.3,0.4,0.7,0.1,1
				c-0.3,0.3-0.7,0.2-1.1,0.1c-0.8-0.3-1.7-0.7-2.6-0.9c-1.1-0.3-2.3-0.6-3.4-0.9c-0.2-0.1-0.4-0.1-0.6-0.2
				c-0.4-0.2-0.5-0.6-0.2-0.9c0.2-0.2,0.5-0.4,0.8-0.5c1-0.5,2-1,3-1.4C545.5,295.4,545.8,295.4,545.9,295.3z"/>
			<path fill="#595757" d="M555.6,283c0,0.5,0,1,0,1.5c-0.1,0.7-0.5,0.9-1.1,0.5c-0.1-0.1-0.2-0.2-0.3-0.3c-1.2-1.7-2.7-3.1-4.2-4.5
				c-0.3-0.3-0.8-0.5-0.6-1c0.2-0.5,0.7-0.4,1.2-0.4c1.1,0,2.3,0.1,3.4,0.2c1,0.1,1.4,0.5,1.5,1.5
				C555.5,281.3,555.6,282.2,555.6,283C555.6,283,555.6,283,555.6,283z"/>
			<path fill="#595757" d="M616.5,311c-0.7,0-1.1-0.3-1.3-0.7c-0.7-1.1-1.3-2.2-2-3.3c-0.2-0.3-0.4-0.8,0-1c0.3-0.2,0.7-0.2,1,0
				c0.8,0.3,1.5,0.7,2.3,0.9c1.3,0.4,2.6,0.8,3.9,1.2c0.3,0.1,0.6,0.3,0.7,0.5c0.2,0.4-0.2,0.6-0.5,0.7c-1.2,0.6-2.5,1.1-3.7,1.6
				C616.7,311,616.6,311,616.5,311z"/>
			<path fill="#595757" d="M614.7,292.5c-0.3-0.1-0.5-0.1-0.6-0.1c-1.3-0.6-2.7-1.2-4-1.8c-0.2-0.1-0.5-0.4-0.4-0.6
				c0.1-0.2,0.3-0.5,0.6-0.6c0.5-0.2,1-0.2,1.5-0.3c1.5-0.4,3-0.9,4.5-1.4c0.3-0.1,0.5-0.2,0.8-0.3c0.2,0,0.6-0.1,0.7,0
				c0.3,0.2,0.2,0.5,0,0.8c-0.7,1.2-1.4,2.4-2.1,3.6C615.4,292.2,615,292.3,614.7,292.5z"/>
			<path fill="#595757" d="M606.9,322.9c0-0.3,0-0.6,0-0.9c0.1-0.6,0.5-0.8,1.1-0.4c0.1,0.1,0.2,0.2,0.3,0.3c1.3,1.8,3,3.2,4.6,4.7
				c0.3,0.2,0.6,0.4,0.4,0.8c-0.2,0.2-0.6,0.4-0.8,0.4c-1.3,0-2.7-0.1-4-0.2c-0.6,0-1.1-0.4-1.2-1.1
				C607.1,325.2,607,324.1,606.9,322.9C606.9,322.9,606.9,322.9,606.9,322.9z"/>
			<path fill="#595757" d="M594.2,331.7c0.7,0.2,0.8,0.6,0.8,1c0.2,0.9,0.3,1.7,0.5,2.6c0.3,1.2,0.7,2.5,1.1,3.7
				c0.1,0.3,0.3,0.6,0,0.8c-0.3,0.3-0.6,0.1-0.9-0.1c-1.1-0.7-2.3-1.4-3.4-2.2c-0.5-0.4-0.8-1-0.5-1.6c0.6-1.3,1.2-2.5,1.8-3.7
				C593.7,332.1,594,331.9,594.2,331.7z"/>
			<path fill="#595757" d="M552.4,315.9c-0.1,0.2-0.2,0.4-0.3,0.5c-0.2,0.1-0.4,0.3-0.6,0.3c-2.2,0.4-4.2,1.1-6.3,1.9
				c-0.1,0-0.2,0.1-0.3,0.1c-0.5,0.1-0.8-0.2-0.7-0.7c0.1-0.3,0.2-0.5,0.3-0.7c0.6-1,1.1-1.9,1.7-2.9c0.5-0.8,1-1,1.9-0.7
				c1.2,0.5,2.4,1,3.5,1.6C551.9,315.4,552.2,315.7,552.4,315.9z"/>
			<path fill="#595757" d="M570.7,270.2c-0.1,0.3-0.1,0.6-0.2,0.8c-0.6,1.2-1.1,2.4-1.7,3.5c-0.2,0.3-0.4,0.6-0.8,0.5
				c-0.5-0.1-0.6-0.4-0.6-0.8c-0.2-0.8-0.3-1.6-0.5-2.4c-0.4-1.4-0.8-2.7-1.2-4.1c-0.1-0.3-0.2-0.6,0.1-0.8c0.3-0.2,0.6-0.1,0.8,0
				c1.2,0.7,2.4,1.5,3.5,2.3C570.4,269.5,570.5,269.9,570.7,270.2z"/>
			<path fill="#595757" d="M578.4,335.6c0,0.1,0,0.3-0.1,0.5c-0.8,1.9-1.4,3.9-1.8,5.9c0,0.2-0.1,0.4-0.1,0.6
				c-0.2,0.5-0.6,0.6-0.9,0.2c-0.1-0.1-0.2-0.3-0.3-0.5c-0.5-1.1-1.1-2.2-1.6-3.4c-0.3-0.8-0.2-1.3,0.5-1.8c1.1-0.8,2.2-1.5,3.4-2.2
				C578,334.6,578.4,334.8,578.4,335.6z"/>
			<path fill="#595757" d="M588.8,268.9c-0.2,0.3-0.3,0.7-0.5,0.9c-1.2,0.8-2.4,1.6-3.7,2.3c-0.2,0.1-0.6,0.1-0.7,0
				c-0.2-0.2-0.2-0.5-0.2-0.8c0-0.1,0-0.3,0.1-0.4c0.9-1.9,1.4-3.9,1.9-5.9c0-0.2,0.1-0.4,0.1-0.6c0.2-0.5,0.6-0.6,1-0.1
				c0.2,0.2,0.3,0.5,0.4,0.7c0.5,1,1,2,1.4,3C588.7,268.3,588.7,268.6,588.8,268.9z"/>
			<path fill="#595757" d="M602.4,288.9c0,0.6-0.4,0.8-0.9,0.7c-0.3-0.1-0.7-0.3-1-0.5c-1.6-0.7-3.2-1.4-4.8-2.2
				c-0.3-0.1-0.6-0.3-0.6-0.5c0-0.2,0.3-0.5,0.5-0.7c0.1-0.1,0.3-0.2,0.4-0.2c1.1-0.4,2.3-0.8,3.4-1.2c1.1-0.4,1.3-0.2,1.7,0.9
				c0.4,1.1,0.7,2.1,1,3.2C602.3,288.4,602.4,288.7,602.4,288.9z"/>
			<path fill="#595757" d="M587.5,353.5c0.4,1.9,0.8,3.8,1.2,5.7c-1.4,0.1-2.7,0.3-4.1,0.4c-0.2-2-0.4-3.8-0.6-5.8
				C585.2,353.7,586.3,353.6,587.5,353.5z"/>
			<path fill="#595757" d="M559.7,288.9c0.5-1.4,0.9-2.9,1.5-4.3c0.1-0.2,0.6-0.5,0.9-0.4c1.5,0.1,3,0.6,4.3,1.3
				c0.7,0.4,0.7,0.9,0,1.3c-1.9,0.9-3.7,1.9-5.6,2.8C560.1,289.9,559.9,289.7,559.7,288.9z"/>
			<path fill="#595757" d="M607,332.1c0.1-0.6,0.2-1.3,0.3-2c0.1-0.6,0.5-1.1,1.2-1.3c1.3-0.3,2.5-0.4,3.8-0.2
				c0.4,0.1,0.7,0.2,0.7,0.6c0,0.3-0.2,0.6-0.4,0.8c-1.5,1.3-2.9,2.7-4,4.3c-0.2,0.3-0.5,0.6-0.8,0.4c-0.3-0.1-0.5-0.5-0.6-0.7
				C607.1,333.4,607.1,332.8,607,332.1z"/>
			<path fill="#595757" d="M571.3,268.2c-0.2,0-0.4,0-0.5-0.1c-1.3-0.3-2.4-0.9-3.4-1.8c-0.2-0.2-0.4-0.6-0.4-0.8
				c0.1-0.2,0.4-0.5,0.7-0.5c1.9-0.3,3.8-0.9,5.6-1.6c0.7-0.3,1.3,0.2,1.1,0.9c-0.5,1.4-1.1,2.7-2.3,3.6
				C571.9,268,571.5,268.1,571.3,268.2z"/>
			<path fill="#595757" d="M545.2,313.6c-0.2,0.4-0.4,1.2-0.7,1.8c-0.3,0.6-0.6,1.1-1,1.6c-0.2,0.2-0.6,0.4-0.8,0.4
				c-0.2,0-0.4-0.4-0.5-0.7c-0.2-0.6-0.2-1.2-0.4-1.8c-0.4-1.2-0.9-2.5-1.4-3.7c-0.1-0.4-0.3-0.7,0-1c0.3-0.3,0.7-0.3,1-0.2
				c1.1,0.4,2.2,0.9,3.1,1.7C544.9,312.2,545.2,312.7,545.2,313.6z"/>
			<path fill="#595757" d="M571.2,339c0.2,0.1,0.7,0.2,1,0.5c1,0.9,1.6,2.1,2,3.4c0.2,0.7-0.1,1.1-0.9,0.9c-0.1,0-0.1,0-0.2-0.1
				c-1.8-0.8-3.7-1.2-5.6-1.6c-0.8-0.1-1-0.8-0.4-1.3C568.2,339.9,569.5,339.2,571.2,339z"/>
			<path fill="#595757" d="M595.6,341.3c-0.3,0.2-0.6,0.5-0.8,0.6c-0.5,0.2-1.1,0.2-1.7,0.4c-1.3,0.4-2.6,0.9-3.9,1.3
				c-0.4,0.1-0.7,0.3-1,0c-0.3-0.3-0.3-0.7-0.1-1c0.5-1.1,1-2.2,1.9-3.1c0.6-0.6,1.2-0.9,2-0.5c1,0.5,2,1.1,3,1.6
				C595.2,340.7,595.3,341,595.6,341.3z"/>
			<path fill="#595757" d="M551.9,278c-0.6-0.1-1.3-0.1-1.8-0.3c-0.6-0.2-0.7-0.6-0.3-1.1c0.2-0.2,0.4-0.3,0.5-0.5
				c1.3-1.1,2.5-2.3,3.5-3.6c0.1-0.1,0.2-0.2,0.2-0.3c0.5-0.5,1.1-0.4,1.3,0.3c0.3,1.5,0.4,2.9-0.3,4.4c-0.2,0.5-0.6,0.8-1.1,0.9
				C553.3,277.8,552.6,277.9,551.9,278z"/>
			<path fill="#595757" d="M545.3,293.2c-0.1,0.3-0.3,0.7-0.6,1.1c-0.9,0.9-2,1.5-3.2,1.9c-0.3,0.1-0.7,0.1-0.9-0.1
				c-0.3-0.2-0.2-0.6-0.1-0.9c0.7-1.8,1.3-3.6,1.6-5.5c0.1-0.4,0.1-0.8,0.6-0.9c0.4-0.1,0.7,0.2,0.9,0.5
				C544.4,290.4,545.1,291.6,545.3,293.2z"/>
			<path fill="#595757" d="M606.6,274.4c0.1-0.5,0.1-1.2,0.2-1.8c0.2-0.8,0.7-0.9,1.2-0.3c0.4,0.4,0.7,1,1.2,1.4
				c0.9,0.9,1.9,1.8,2.8,2.7c0.3,0.3,0.7,0.6,0.4,1c-0.2,0.3-0.6,0.5-0.9,0.5c-1.1,0.2-2.3,0.1-3.4-0.2c-0.9-0.3-1.4-0.8-1.5-1.8
				C606.6,275.6,606.6,275,606.6,274.4z"/>
			<path fill="#595757" d="M590.8,268.1c-0.3-0.2-0.8-0.3-1.1-0.6c-0.9-0.9-1.5-2-1.9-3.2c-0.1-0.3-0.2-0.7,0.1-0.9
				c0.2-0.1,0.6-0.2,0.8-0.1c1.9,0.7,3.8,1.3,5.7,1.6c0.7,0.1,1,0.8,0.5,1.2C593.9,267.2,592.6,267.9,590.8,268.1z"/>
			<path fill="#595757" d="M616.9,313.1c0.2-0.3,0.3-0.8,0.6-1c0.9-0.9,2.1-1.4,3.2-1.8c0.1,0,0.3-0.1,0.4-0.1
				c0.5,0,0.8,0.3,0.7,0.8c0,0.2-0.1,0.4-0.2,0.6c-0.7,1.6-1.3,3.3-1.6,5.1c0,0.1,0,0.3-0.1,0.4c-0.2,0.6-0.8,0.8-1.2,0.3
				C617.8,316.2,617.1,314.9,616.9,313.1z"/>
			<path fill="#595757" d="M621,296.1c-0.1,0-0.3,0-0.4-0.1c-1-0.5-2-1-2.9-1.7c-0.8-0.5-1.1-1.4-0.7-2.3c0.5-1,1-1.9,1.5-2.9
				c0.2-0.3,0.5-0.7,0.9-0.5c0.2,0.1,0.4,0.5,0.5,0.8c0.3,0.9,0.4,1.8,0.7,2.6c0.3,1,0.8,1.9,1.1,2.9
				C622,295.7,621.7,296.1,621,296.1z"/>
			<path fill="#595757" d="M548.9,327.1c0.2-0.2,0.4-0.5,0.7-0.7c1.5-1.2,2.9-2.5,4-4.1c0.5-0.6,0.9-0.6,1.1,0.1
				c0.1,0.2,0.2,0.5,0.2,0.8c0,1,0,2.1,0,3.1c0,0.7-0.3,1.1-1,1.2c-1.3,0.4-2.7,0.5-4.1,0.3C549.5,327.8,549.1,327.7,548.9,327.1z"
				/>
			<path fill="#595757" d="M544.4,288.1c0-0.6,0.3-0.8,0.8-0.6c0.2,0.1,0.4,0.1,0.6,0.2c1.7,0.7,3.5,1.3,5.3,1.6
				c0.3,0.1,0.6,0.3,0.9,0.4c-0.2,0.3-0.3,0.8-0.5,0.9c-1.1,0.7-2.3,1.3-3.5,1.8c-0.3,0.1-0.8,0-1-0.2c-1.2-1.1-1.9-2.4-2.5-3.9
				C544.4,288.2,544.4,288.1,544.4,288.1z"/>
			<path fill="#595757" d="M590.4,324.6c0.3,0.1,0.5,0.1,0.7,0.2c1,0.5,2.1,1,3.1,1.5c0.1,0.1,0.3,0.2,0.4,0.3
				c0.3,0.3,0.3,0.7-0.2,0.9c-0.6,0.2-1.2,0.3-1.7,0.6c-1.1,0.5-2.2,1-3.3,1.5c-0.2,0.1-0.4,0.2-0.7,0.3c-0.8,0.3-1.4-0.2-1.1-1
				c0.4-1.3,1.1-2.5,2-3.6C589.8,324.9,590.2,324.8,590.4,324.6z"/>
			<path fill="#595757" d="M617.8,318.2c0,0.6-0.4,0.8-1,0.6c-1.4-0.5-2.8-1.1-4.2-1.5c-0.6-0.2-1.2-0.3-1.8-0.4
				c-0.6-0.2-0.8-0.5-0.4-1c0.2-0.3,0.5-0.5,0.9-0.7c0.9-0.5,1.8-0.8,2.6-1.3c0.6-0.3,1-0.2,1.5,0.2c1,1.1,1.7,2.4,2.2,3.8
				C617.7,318.1,617.7,318.2,617.8,318.2z"/>
			<path fill="#595757" d="M555.3,332.5c0,0.5,0,1.1-0.1,1.5c-0.1,0.3-0.3,0.6-0.5,0.7c-0.2,0.1-0.6-0.1-0.8-0.3
				c-0.4-0.4-0.7-0.9-1.1-1.3c-1-0.9-1.9-1.8-2.9-2.6c-0.3-0.3-0.7-0.5-0.6-1c0.1-0.6,0.6-0.7,1.1-0.7c1,0,2-0.1,2.9,0
				c1.2,0.1,1.7,0.7,1.9,1.9C555.2,331.4,555.3,332,555.3,332.5z"/>
			<path fill="#595757" d="M570.5,336.8c-0.1,0.2-0.3,0.6-0.5,0.8c-1,1-2.2,1.7-3.6,2.3c-0.3,0.1-0.7,0-0.9-0.1
				c-0.1-0.1-0.1-0.6,0-0.8c0.8-1.9,1.4-3.9,1.7-5.9c0.1-0.5,0.4-0.7,0.8-0.4c0.3,0.2,0.5,0.4,0.7,0.7c0.5,0.9,1,1.9,1.5,2.9
				C570.4,336.3,570.4,336.5,570.5,336.8z"/>
			<path fill="#595757" d="M577.7,271.9c-0.2,0-0.5-0.1-0.8-0.3c-0.9-0.5-1.8-1.1-2.7-1.6c-0.6-0.3-0.8-0.8-0.6-1.5
				c0.4-1.4,1-2.6,1.8-3.7c0.1-0.1,0.2-0.3,0.4-0.3c0.4-0.3,0.8-0.2,0.9,0.3c0.1,0.2,0.1,0.4,0.1,0.6c0.3,1.9,0.8,3.8,1.6,5.6
				C578.6,271.7,578.5,271.9,577.7,271.9z"/>
			<path fill="#595757" d="M588.8,338.1c0,0.2,0,0.5-0.1,0.7c-0.5,1.1-1,2.1-1.6,3.2c-0.1,0.2-0.3,0.4-0.5,0.5
				c-0.4,0.2-0.7,0.1-0.9-0.3c-0.1-0.5-0.2-1-0.3-1.5c-0.4-1.5-0.9-3-1.3-4.6c-0.1-0.3-0.2-0.7-0.1-0.8c0.2-0.2,0.6-0.2,0.9-0.2
				c0.2,0,0.4,0.1,0.6,0.2c0.9,0.5,1.8,1,2.7,1.6C588.7,337.2,588.8,337.5,588.8,338.1z"/>
			<path fill="#595757" d="M606.6,282.3c0-0.6,0-1.2,0.1-1.7c0-0.6,0.3-1.1,1-1.2c1.4-0.3,2.9-0.3,4.3-0.1c0.2,0,0.6,0.3,0.6,0.5
				c0,0.2-0.2,0.6-0.4,0.7c-1.7,1.3-3.2,2.6-4.6,4.3c-0.4,0.4-0.7,0.4-0.9-0.1c-0.2-0.4-0.2-0.8-0.2-1.2
				C606.5,283,606.6,282.6,606.6,282.3z"/>
			<path fill="#595757" d="M613.4,300.3c-0.3-0.5-0.2-1,0-1.4c0.5-1,1.1-2,1.6-2.9c0.3-0.5,0.7-0.7,1.3-0.5c1.4,0.3,2.7,0.9,3.9,1.7
				c0.2,0.2,0.5,0.6,0.4,0.8c0,0.2-0.5,0.5-0.7,0.5c-2,0.4-4,0.9-5.8,1.8c-0.1,0.1-0.3,0.1-0.4,0.1
				C613.7,300.3,613.6,300.3,613.4,300.3z"/>
			<path fill="#595757" d="M548.7,306.6c0,0.1,0,0.3-0.1,0.5c-0.6,1.1-1.1,2.2-1.7,3.2c-0.2,0.4-0.7,0.6-1.1,0.5
				c-1.5-0.3-2.8-0.9-4-1.8c-0.2-0.2-0.4-0.6-0.4-0.8c0-0.2,0.4-0.4,0.7-0.4c2-0.4,4-1,5.9-1.9C548.4,305.5,548.7,305.8,548.7,306.6
				z"/>
			<path fill="#595757" d="M591.5,270.4c0.1-0.2,0.2-0.5,0.4-0.7c1.1-1.1,2.3-1.8,3.7-2.4c0.2-0.1,0.7,0,0.8,0.1
				c0.1,0.2,0.1,0.6,0,0.8c-0.5,1.6-1.1,3.3-1.6,4.9c-0.1,0.4-0.1,0.7-0.2,1.1c-0.1,0.5-0.4,0.6-0.8,0.4c-0.3-0.2-0.6-0.4-0.7-0.7
				c-0.5-1-1-2-1.6-3C591.6,270.8,591.6,270.6,591.5,270.4z"/>
			<path fill="#595757" d="M562.7,276.9c-0.4,0.7-0.9,0.8-1.5,0.8c-1,0-2,0-3,0c-0.8,0-1.1-0.3-1.4-1.1c-0.4-1.4-0.3-2.7-0.2-4.1
				c0-0.3,0.3-0.6,0.5-0.9c0.2,0.1,0.4,0.2,0.5,0.2C559.2,273.7,560.8,275.5,562.7,276.9z"/>
			<path fill="#595757" d="M605.5,335.1c-1.9-1.8-3.7-3.6-5.5-5.4c0.2-0.5,0.7-0.7,1.3-0.7c1.1,0,2.2,0,3.3,0c0.6,0,1,0.3,1.1,0.9
				c0.4,1.4,0.5,2.9,0.3,4.4C606,334.5,605.7,334.8,605.5,335.1z"/>
			<path fill="#595757" d="M599.3,323c-0.5-0.2-1.1-0.3-1.6-0.6c-0.6-0.2-1.1-0.5-1.7-0.7c-0.2-0.1-0.5-0.3-0.5-0.5
				c0-0.3,0.2-0.6,0.4-0.7c0.6-0.4,1.3-0.6,1.9-1c1-0.6,2-1.2,3.1-1.7c0.1-0.1,0.3-0.2,0.4-0.3c0.5-0.3,1-0.1,1,0.5
				c0,0.3,0,0.7-0.1,1c-0.5,1.1-0.9,2.2-1.5,3.2C600.5,322.7,599.8,323,599.3,323z"/>
			<path fill="#595757" d="M572,324.8c0.2,0.1,0.6,0.2,0.8,0.5c0.6,1.2,1.2,2.3,1.7,3.6c0.3,0.7-0.1,1.1-0.9,0.9
				c-0.1,0-0.2,0-0.3-0.1c-1.8-0.8-3.7-1.6-5.5-2.4c-0.6-0.3-0.7-0.8,0-1.1C569,325.5,570.4,325.1,572,324.8z"/>
			<path fill="#595757" d="M619.3,345c-1.3-1.5-2.5-2.9-3.6-4.2c0.7-0.8,1.4-1.6,2.2-2.5c1.4,1.4,2.7,2.7,4,3.9
				C621,343.1,620.2,344.1,619.3,345z"/>
			<path fill="#595757" d="M562.3,323c-0.2-0.1-0.5-0.3-0.6-0.5c-0.6-1.2-1.2-2.4-1.8-3.6c-0.2-0.4-0.2-0.8,0.2-1.1
				c0.4-0.3,0.7-0.1,1,0.1c1.8,0.9,3.6,1.8,5.3,2.7c0.6,0.3,0.7,0.8,0.1,1.1c-1.3,0.5-2.5,0.9-3.8,1.3
				C562.6,322.9,562.5,322.9,562.3,323z"/>
			<path fill="#595757" d="M589.5,271.1c0.3,0.2,0.6,0.3,0.9,0.5c0.9,1,1.6,2.2,2.1,3.4c0.1,0.2,0,0.6-0.1,0.8
				c-0.1,0.1-0.5,0.1-0.7,0c-0.6-0.2-1.2-0.5-1.8-0.7c-1.2-0.3-2.4-0.6-3.6-0.9c-0.2,0-0.4,0-0.6-0.1c-0.5-0.2-0.6-0.6-0.3-1
				c0-0.1,0.1-0.1,0.1-0.1C586.6,272,588,271.5,589.5,271.1z"/>
			<path fill="#595757" d="M632.5,279.9c-1.8,0.7-3.4,1.4-5.1,2c-0.5-1-1-1.9-1.5-3c1.6-0.9,3.1-1.7,4.8-2.6
				C631.3,277.5,631.9,278.7,632.5,279.9z"/>
			<path fill="#595757" d="M572.5,335.9c-0.3-0.2-0.6-0.3-0.9-0.5c-0.9-1-1.6-2.1-2.1-3.4c-0.1-0.2,0-0.6,0.1-0.8
				c0.1-0.1,0.5-0.1,0.7,0c0.5,0.2,1,0.4,1.5,0.6c1.3,0.6,2.7,0.9,4.1,1.1c0.4,0,0.8,0.1,0.8,0.5c0,0.3-0.1,0.7-0.4,0.8
				C575.3,335.1,574,335.6,572.5,335.9z"/>
			<path fill="#595757" d="M535.7,336.3c-0.7-1-1.4-2-2.1-3.1c1.6-1,3.2-1.9,4.9-3c0.6,0.9,1.2,1.7,1.8,2.7
				C538.8,334,537.3,335.1,535.7,336.3z"/>
			<path fill="#595757" d="M611.2,299.3c-0.1-0.4-0.3-0.8-0.4-1.2c-0.4-1.8-0.7-3.6-1.6-5.3c-0.2-0.3-0.3-0.7,0-0.9
				c0.2-0.1,0.6-0.2,0.8-0.1c1.3,0.4,2.5,1.2,3.5,2.2c0.2,0.2,0.3,0.6,0.3,0.8c-0.2,1.6-0.9,2.9-2,4.2
				C611.7,299.1,611.5,299.2,611.2,299.3z"/>
			<path fill="#595757" d="M609,314.4c0.1-0.3,0.1-0.7,0.3-1c0.8-1.7,1.5-3.5,1.7-5.4c0-0.3,0.2-0.7,0.6-0.7c0.2,0,0.6,0.2,0.7,0.4
				c0.9,1.1,1.4,2.4,1.6,3.9c0,0.3-0.1,0.6-0.3,0.8c-1.1,1.1-2.4,1.8-3.8,2.2c-0.1,0-0.3,0-0.4,0C609.3,314.6,609.2,314.5,609,314.4
				z"/>
			<path fill="#595757" d="M560.2,278.9c0.7,0.1,1.3,0.1,1.9,0.2c0.6,0.1,0.7,0.5,0.3,1c-0.4,0.4-1,0.7-1.4,1.2
				c-1,0.9-1.9,1.9-2.8,2.9c-0.1,0.1-0.2,0.3-0.3,0.4c-0.4,0.4-0.8,0.3-1-0.2c-0.1-0.2-0.2-0.5-0.2-0.8c0.1-1.1,0.2-2.3,0.3-3.4
				c0.1-0.6,0.5-0.9,1-1C558.8,279,559.6,279,560.2,278.9z"/>
			<path fill="#595757" d="M577.6,274c-1,0.2-1.6,0.4-2.3,0.5c-1.4,0.2-2.8,0.6-4.2,1.2c-0.1,0.1-0.2,0.1-0.4,0.2
				c-0.6,0.2-0.9-0.1-0.9-0.7c0-0.3,0.1-0.6,0.3-0.9c0.5-0.8,1.1-1.7,1.7-2.5c0.4-0.6,1-0.7,1.6-0.5c1.3,0.4,2.4,1,3.5,1.8
				C577.1,273.3,577.2,273.5,577.6,274z"/>
			<path fill="#595757" d="M589.4,335.8c-0.5-0.1-0.9-0.2-1.3-0.4c-0.8-0.4-1.6-0.8-2.3-1.2c-0.2-0.1-0.4-0.3-0.6-0.5
				c-0.4-0.5-0.3-0.8,0.3-0.9c0.5-0.2,1.1-0.3,1.7-0.3c1.4-0.2,2.8-0.6,4-1.2c0.1-0.1,0.2-0.1,0.4-0.2c0.5-0.2,0.9,0.1,0.9,0.6
				c0,0.2,0,0.4-0.1,0.6c-0.5,1.2-1.2,2.3-2.1,3.2C590,335.6,589.7,335.7,589.4,335.8z"/>
			<path fill="#595757" d="M557,321.6c0.5,0.6,1,1.2,1.5,1.7c1,0.9,1.9,1.9,2.9,2.8c0.1,0.1,0.2,0.1,0.2,0.2c0.6,0.5,0.6,1-0.2,1.2
				c-0.5,0.1-1.1,0.2-1.7,0.2c-0.8,0-1.5-0.2-2.3-0.3c-0.5-0.1-0.8-0.4-1-0.9c-0.4-1.4-0.4-2.7-0.2-4.1
				C556.3,322,556.5,321.7,557,321.6z"/>
			<path fill="#595757" d="M605.5,282.4c-0.1,0.7-0.1,1.3-0.2,1.9c-0.1,0.3-0.3,0.6-0.5,0.7c-0.1,0.1-0.5-0.2-0.6-0.4
				c-0.3-0.4-0.6-0.8-0.9-1.2c-0.8-1.2-1.8-2.2-3-3c-0.2-0.1-0.3-0.2-0.4-0.4c-0.2-0.3-0.2-0.7,0.2-0.8c0.2-0.1,0.4-0.2,0.7-0.2
				c1.2-0.1,2.4,0,3.5,0.3c0.6,0.2,0.9,0.5,1,1.1C605.3,281.1,605.4,281.8,605.5,282.4z"/>
			<path fill="#595757" d="M553.2,291.7c-0.1,0.4-0.1,0.8-0.3,1.1c-0.7,1.7-1.3,3.3-1.5,5.1c0,0.2-0.1,0.4-0.2,0.6
				c-0.2,0.3-0.5,0.4-0.8,0.3c-0.2-0.1-0.4-0.3-0.5-0.5c-0.8-1.1-1.4-2.3-1.6-3.6c0-0.3,0.1-0.7,0.3-0.9c1-1.1,2.3-1.8,3.8-2.3
				c0.1,0,0.3,0,0.4,0C553,291.6,553.1,291.6,553.2,291.7z"/>
			<path fill="#595757" d="M548.1,311.3c0-0.2,0.1-0.3,0.1-0.5c0.3-1.3,0.9-2.5,1.6-3.6c0.2-0.2,0.5-0.5,0.7-0.4
				c0.2,0,0.4,0.4,0.5,0.7c0.1,0.4,0.2,0.9,0.3,1.4c0.3,1.4,0.8,2.8,1.4,4.1c0.1,0.3,0.2,0.7,0.1,0.9c-0.1,0.2-0.6,0.3-0.9,0.2
				c-1.4-0.4-2.6-1.2-3.6-2.2C548.2,311.7,548.2,311.5,548.1,311.3z"/>
			<path fill="#595757" d="M602.4,327.8c-0.7,0-1.2,0-1.7-0.1c-0.3,0-0.6-0.2-0.7-0.5c-0.1-0.1,0.1-0.5,0.3-0.7
				c0.4-0.4,0.8-0.7,1.2-1c1.1-0.9,2.1-1.9,2.9-3.1c0.1-0.2,0.2-0.3,0.4-0.5c0.3-0.2,0.7-0.2,0.8,0.2c0.1,0.2,0.2,0.5,0.2,0.8
				c0,1.2-0.1,2.4-0.2,3.5c-0.1,0.6-0.5,0.9-1,1C603.8,327.7,603,327.7,602.4,327.8z"/>
			<path fill="#595757" d="M569.6,352.5c0.9,0.2,1.8,0.3,2.8,0.5c-0.1,1.9-0.5,3.8-0.8,5.8c-1.2-0.2-2.2-0.4-3.3-0.7
				C568.2,357.4,569,354.2,569.6,352.5z"/>
			<path fill="#595757" d="M536.8,337.8c1.6-1.1,3.1-2.2,4.7-3.3c0.6,0.8,1.2,1.4,1.8,2.2c-1.3,1.4-2.6,2.7-4,4.1
				C538.4,339.8,537.6,338.8,536.8,337.8z"/>
			<path fill="#595757" d="M530.7,302.4c0,1.2,0,2.2,0,3.4c-1.8,0.1-3.6,0.2-5.5,0.3c0-1.2,0-2.3,0-3.5
				C527,302.5,528.7,302.4,530.7,302.4z"/>
			<path fill="#595757" d="M623.3,274.7c1.5-1.1,2.9-2.1,4.4-3.2c0.7,1.1,1.4,2.2,2.1,3.4c-1.7,0.8-3.2,1.6-4.9,2.4
				C624.4,276.5,623.8,275.6,623.3,274.7z"/>
			<path fill="#595757" d="M604.5,354.7c-1.1,0.5-2.2,0.9-3.3,1.4c-0.7-1.9-1.3-3.6-2-5.5c0.9-0.4,1.7-0.7,2.7-1.1
				C602.8,351.2,603.6,352.9,604.5,354.7z"/>
			<path fill="#595757" d="M627.1,325.2c0.4-0.9,0.8-1.8,1.2-2.8c1.7,0.8,3.4,1.5,5.1,2.3c-0.5,1.2-1,2.2-1.5,3.4
				C630.3,327.1,628.7,326.2,627.1,325.2z"/>
			<path fill="#595757" d="M557.1,258.7c-0.9,0.5-1.7,1-2.6,1.6c-1.1-1.4-2.1-2.9-3.3-4.4c1.1-0.7,2.1-1.3,3.3-1.9
				C555.3,255.6,556.2,257.1,557.1,258.7z"/>
			<path fill="#595757" d="M530.3,279.8c0.6-1.2,1.1-2.2,1.7-3.3c1.6,1,3.2,1.9,4.8,2.8c-0.5,0.9-0.9,1.8-1.4,2.7
				C533.6,281.2,532,280.5,530.3,279.8z"/>
			<path fill="#595757" d="M579,353.8c1,0,1.8,0,2.8,0c0.2,1.9,0.4,3.8,0.6,5.7c-1.2,0-2.3,0-3.5,0C578.9,357.7,579,355.8,579,353.8
				z"/>
			<path fill="#595757" d="M615.9,266.2c-0.8-0.7-1.6-1.4-2.5-2.2c1.2-1.4,2.3-2.7,3.5-4.1c0.9,0.7,1.7,1.4,2.6,2.2
				C618.3,263.4,617.1,264.8,615.9,266.2z"/>
			<path fill="#595757" d="M551.7,344.3c0.8,0.5,1.5,1,2.4,1.6c-0.9,1.7-1.9,3.3-2.8,5.1c-1-0.6-1.8-1.2-2.8-1.9
				C549.5,347.5,550.6,346,551.7,344.3z"/>
			<path fill="#595757" d="M599.3,356.8c-1.2,0.4-2.2,0.7-3.3,1c-0.5-1.9-1-3.7-1.5-5.6c0.8-0.3,1.6-0.5,2.6-0.8
				C598.1,353,598.6,354.9,599.3,356.8z"/>
			<path fill="#595757" d="M603.9,257.8c-1-0.5-1.9-0.9-2.9-1.3c0.5-1.7,1-3.4,1.6-5.2c1.1,0.5,2.1,0.9,3.3,1.4
				C605.2,254.4,604.6,256.1,603.9,257.8z"/>
			<path fill="#595757" d="M589.6,353.2c1-0.2,1.8-0.3,2.8-0.5c0.5,1.9,1,3.6,1.6,5.5c-1.1,0.4-2.2,0.6-3.3,0.7
				C590.3,356.9,590,355.1,589.6,353.2z"/>
			<path fill="#595757" d="M625.6,338.1c-0.8,1-1.6,1.9-2.4,2.9c-1.3-1.4-2.6-2.7-3.9-4.1c0.6-0.7,1.1-1.3,1.7-2
				C622.5,335.9,624,337,625.6,338.1z"/>
			<path fill="#595757" d="M525.1,300.6c0.1-1.2,0.2-2.4,0.3-3.6c1.9,0.2,3.6,0.4,5.5,0.6c-0.1,1-0.1,1.8-0.2,2.8
				C528.9,300.5,527.1,300.5,525.1,300.6z"/>
			<path fill="#595757" d="M533,288c-0.3,1-0.6,2-0.8,3c-1.8-0.4-3.6-0.7-5.5-1.1c0.3-1.1,0.6-2.1,0.9-3.3
				C529.4,287.1,531.2,287.5,533,288z"/>
			<path fill="#595757" d="M575.6,252.9c-1,0.1-1.8,0.3-2.7,0.4c-0.5-1.7-1-3.4-1.5-5.3c1.3-0.2,2.5-0.4,3.8-0.6
				C575.4,249.3,575.5,251,575.6,252.9z"/>
			<path fill="#595757" d="M560.3,349.3c0.9,0.4,1.7,0.7,2.6,1.1c-0.6,1.8-1.3,3.6-1.9,5.4c-1.1-0.3-2-0.8-3.1-1.3
				C558.7,352.8,559.5,351.1,560.3,349.3z"/>
			<path fill="#595757" d="M617.7,346.3c-0.9,0.7-1.7,1.4-2.6,2c-1.2-1.5-2.4-3-3.6-4.5c0.7-0.6,1.5-1.2,2.3-1.8
				C615.2,343.5,616.4,344.8,617.7,346.3z"/>
			<path fill="#595757" d="M530.2,327c-0.5-1.1-0.9-2.1-1.3-3.2c1.8-0.7,3.5-1.3,5.3-2c0.4,0.8,0.7,1.7,1.1,2.6
				C533.6,325.2,532,326.1,530.2,327z"/>
			<path fill="#595757" d="M566.2,357.6c-1.1-0.4-2.1-0.7-3.2-1c0.7-1.9,1.3-3.6,2-5.5c0.9,0.3,1.7,0.5,2.5,0.8
				C567.1,353.8,566.6,355.7,566.2,357.6z"/>
			<path fill="#595757" d="M594.4,254.3c-1-0.2-1.8-0.4-2.8-0.6c0.1-1.8,0.5-3.5,0.8-5.4c1.2,0.3,2.3,0.5,3.4,0.8
				C595.3,250.8,594.9,252.5,594.4,254.3z"/>
			<path fill="#595757" d="M563.4,255.9c-0.8-1.7-1.5-3.3-2.3-5c1.1-0.4,2.1-0.7,3.2-1.1c0.7,1.7,1.3,3.4,2,5.1
				C565.2,255.2,564.4,255.5,563.4,255.9z"/>
			<path fill="#595757" d="M556,347c0.8,0.5,1.6,0.9,2.4,1.3c-0.8,1.8-1.6,3.5-2.4,5.3c-1-0.5-1.9-1-2.8-1.5
				C554.1,350.4,555,348.8,556,347z"/>
			<path fill="#595757" d="M531.5,312.7c0.2,0.9,0.4,1.7,0.5,2.5c-0.4,0.1-0.6,0.2-0.9,0.3c-1.4,0.4-2.9,0.8-4.5,1.3
				c-0.2-1.1-0.5-2.2-0.7-3.4C527.8,313.1,529.7,312.9,531.5,312.7z"/>
			<path fill="#595757" d="M527.2,318.7c1.9-0.5,3.6-1,5.5-1.5c0.3,0.8,0.5,1.7,0.8,2.6c-1.8,0.7-3.5,1.3-5.3,2
				C527.8,320.8,527.5,319.8,527.2,318.7z"/>
			<path fill="#595757" d="M631.7,297.3c-0.1-1-0.3-1.9-0.4-2.8c1.8-0.3,3.5-0.5,5.3-0.8c0.3,1.1,0.5,2.2,0.5,3.3
				C635.3,297.1,633.5,297.2,631.7,297.3z"/>
			<path fill="#595757" d="M525.6,311.4c-0.1-1.1-0.2-2.1-0.3-3.2c1.9-0.1,3.7-0.2,5.6-0.3c0.1,0.8,0.2,1.7,0.4,2.6
				C529.4,310.9,527.5,311.1,525.6,311.4z"/>
			<path fill="#595757" d="M586.9,247.4c1.2,0.2,2.3,0.3,3.4,0.4c-0.3,1.8-0.6,3.5-0.9,5.4c-0.9-0.1-1.8-0.2-2.8-0.3
				C586.5,251.1,586.9,249.3,586.9,247.4z"/>
			<path fill="#595757" d="M605.8,258.8c0.7-1.7,1.3-3.4,2-5.1c1,0.6,2,1.1,3.1,1.7c-0.9,1.6-1.8,3.1-2.7,4.7
				C607.3,259.7,606.6,259.3,605.8,258.8z"/>
			<path fill="#595757" d="M539.1,266.2c0.8-0.8,1.5-1.6,2.3-2.4c1.4,1.2,2.7,2.4,4.1,3.7c-0.6,0.7-1.3,1.4-2,2.1
				C542.1,268.4,540.7,267.3,539.1,266.2z"/>
			<path fill="#595757" d="M558.9,257.8c-0.9-1.6-1.8-3.1-2.8-4.7c1-0.5,2-0.9,3-1.4c0.8,1.7,1.5,3.3,2.3,5
				C560.6,257,559.8,257.4,558.9,257.8z"/>
			<path fill="#595757" d="M542.1,271.1c-0.6,0.7-1.1,1.4-1.7,2.2c-1.6-1-3.1-1.9-4.7-2.9c0.7-0.9,1.3-1.7,2-2.6
				C539.2,268.9,540.7,270,542.1,271.1z"/>
			<path fill="#595757" d="M610.8,351.4c-1-1.7-2-3.3-3-4.9c0.7-0.5,1.4-0.9,2.1-1.3c1.2,1.5,2.4,2.9,3.7,4.5
				C612.7,350.1,611.8,350.7,610.8,351.4z"/>
			<path fill="#595757" d="M631,313.5c1.9,0.4,3.6,0.8,5.4,1.3c-0.2,1.1-0.5,2.1-0.7,3.2c-1.8-0.7-3.5-1.3-5.3-1.9
				C630.6,315.2,630.8,314.4,631,313.5z"/>
			<path fill="#595757" d="M603.8,348.6c0.8-0.4,1.5-0.8,2.2-1.1c1,1.6,2,3.2,3.1,4.8c-0.9,0.6-1.8,1-2.8,1.5
				C605.5,352.1,604.7,350.4,603.8,348.6z"/>
			<path fill="#595757" d="M619.2,269.5c-0.6-0.7-1.2-1.3-1.8-2c1.2-1.4,2.3-2.7,3.5-4c0.8,0.8,1.6,1.6,2.3,2.3
				C621.9,267.1,620.6,268.3,619.2,269.5z"/>
			<path fill="#595757" d="M534.6,272c1.6,1,3.1,2,4.6,3c-0.5,0.8-1,1.6-1.5,2.4c-1.6-0.9-3.1-1.8-4.8-2.8
				C533.5,273.8,534,272.9,534.6,272z"/>
			<path fill="#595757" d="M611.8,262.7c-0.7-0.5-1.3-0.9-1.9-1.4c0.7-1.7,1.6-3.2,2.6-4.8c1,0.7,1.9,1.4,2.9,2.1
				C614.2,260,613,261.3,611.8,262.7z"/>
			<path fill="#595757" d="M624.5,267.3c0.7,0.9,1.4,1.8,2.1,2.7c-1.5,1.1-2.9,2.1-4.4,3.1c-0.5-0.6-1-1.3-1.6-1.9
				C621.7,269.7,623.2,268.7,624.5,267.3z"/>
			<path fill="#595757" d="M566.3,249.1c1.1-0.3,2.1-0.5,3.2-0.8c0.5,1.8,0.9,3.5,1.4,5.3c-0.9,0.2-1.7,0.4-2.6,0.6
				C567.6,252.6,567,250.9,566.3,249.1z"/>
			<path fill="#595757" d="M630.9,292.4c-0.2-0.9-0.4-1.7-0.7-2.6c1.7-0.5,3.5-0.9,5.3-1.3c0.3,1,0.5,2,0.8,3.1
				C634.5,291.8,632.7,292.1,630.9,292.4z"/>
			<path fill="#595757" d="M536.2,326.2c0.4,0.8,0.8,1.4,1.2,2.2c-1.5,1.1-3.2,1.9-4.8,3.1c-0.6-0.9-1.1-1.8-1.5-2.8
				C532.8,327.9,534.5,327.1,536.2,326.2z"/>
			<path fill="#595757" d="M624.8,329.3c0.5-0.8,0.9-1.5,1.3-2.3c1.6,1,3.2,1.9,4.9,2.8c-0.5,0.9-1,1.8-1.6,2.7
				C627.9,331.5,626.4,330.4,624.8,329.3z"/>
			<path fill="#595757" d="M574.6,353.4c0.8,0.1,1.5,0.2,2.2,0.2c0.1,1.9-0.1,3.8,0,5.9c-1.1-0.1-2.1-0.2-3.1-0.3
				C574.1,357.2,574.3,355.4,574.6,353.4z"/>
			<path fill="#595757" d="M543,344.6c-0.7-0.8-1.4-1.5-2.2-2.4c1.3-1.3,2.6-2.6,4-4c0.6,0.7,1.1,1.3,1.7,2
				C545.3,341.5,544.2,343,543,344.6z"/>
			<path fill="#595757" d="M528.3,284.7c0.4-1.1,0.8-2.1,1.2-3c0.8,0.1,3.9,1.4,5.1,2.2c-0.3,0.7-0.5,1.4-0.8,2.2
				C531.9,285.6,530.1,285.2,528.3,284.7z"/>
			<path fill="#595757" d="M544.4,345.9c1.2-1.5,2.4-3,3.6-4.5c0.7,0.6,1.4,1.1,2,1.6c-1.1,1.6-2.2,3.1-3.3,4.7
				C545.9,347.3,545.3,346.5,544.4,345.9z"/>
			<path fill="#595757" d="M597.7,249.6c1.1,0.4,2,0.7,3,1c-0.6,1.7-1.1,3.4-1.7,5.2c-0.9-0.3-1.7-0.6-2.6-0.9
				C596.8,253.1,597.2,251.4,597.7,249.6z"/>
			<path fill="#595757" d="M632.1,306.7c0-0.9,0-1.7,0-2.5c1.8,0.1,3.6,0.1,5.4,0.2c0,1.1,0,2.1,0,3.2
				C635.5,307.4,633.7,307.2,632.1,306.7z"/>
			<path fill="#595757" d="M637.4,299.1c0,1.1,0,2,0,3c-0.7,0.2-4.4,0-5.4-0.3c0-0.7-0.1-1.5-0.1-2.4
				C633.7,299.2,635.5,299.4,637.4,299.1z"/>
			<path fill="#595757" d="M542.9,262.3c0.8-0.7,1.6-1.4,2.4-2.1c1.3,1.4,2.5,2.7,3.7,4c-0.7,0.6-1.3,1.1-2,1.7
				C545.7,264.7,544.4,263.5,542.9,262.3z"/>
			<path fill="#595757" d="M526.3,292c1.9,0.4,3.6,0.7,5.4,1.1c-0.2,0.9-0.3,1.6-0.4,2.5c-1.8-0.2-3.6-0.4-5.4-0.6
				C525.8,293.9,526.1,293,526.3,292z"/>
			<path fill="#595757" d="M634.1,322.9c-1.8-0.8-3.4-1.6-5.1-2.4c0.2-0.7,0.5-1.5,0.8-2.3c1.8,0.6,3.5,1.2,5.3,1.8
				C634.8,320.9,634.5,321.9,634.1,322.9z"/>
			<path fill="#595757" d="M631.7,309c1.9,0.3,3.7,0.5,5.5,0.8c-0.1,1-0.3,1.9-0.4,3c-1.8-0.4-3.6-0.8-5.4-1.3
				C631.5,310.6,631.6,309.9,631.7,309z"/>
			<path fill="#595757" d="M626.9,336.4c-1.6-1.1-3.1-2.1-4.6-3.2c0.5-0.7,1-1.4,1.5-2.2c1.6,1.1,3.1,2.1,4.7,3.2
				C627.9,334.9,627.5,335.6,626.9,336.4z"/>
			<path fill="#595757" d="M546.9,258.9c0.9-0.6,1.7-1.2,2.5-1.8c1.1,1.5,2.1,2.9,3.2,4.4c-0.6,0.5-1.2,0.9-1.9,1.4
				C549.5,261.6,548.3,260.3,546.9,258.9z"/>
			<path fill="#595757" d="M580.2,252.6c-0.9,0.1-1.7,0.1-2.6,0.2c-0.2-1.8-0.3-3.6-0.4-5.4c0.9-0.1,1.8-0.1,2.8-0.2
				C580.1,249,580.1,250.7,580.2,252.6z"/>
			<path fill="#595757" d="M584.4,252.7c-0.8,0-1.4-0.1-2.2-0.1c-0.1-1.8-0.3-3.6-0.4-5.5c1.1,0.1,2,0.1,3.1,0.2
				C584.8,249.1,584.6,250.8,584.4,252.7z"/>
			<path fill="#595757" d="M600.3,334c0.8,0,1.3,0.5,1.2,1.3c0,0.7-0.6,1.2-1.3,1.2c-0.7,0-1.2-0.5-1.2-1.2
				C599.1,334.5,599.6,334,600.3,334z"/>
			<path fill="#595757" d="M550.2,284.5c0,0.7-0.6,1.2-1.2,1.3c-0.7,0-1.2-0.6-1.2-1.2c0-0.7,0.6-1.2,1.2-1.3
				C549.6,283.3,550.2,283.9,550.2,284.5z"/>
			<path fill="#595757" d="M613.2,283.2c0.7,0,1.2,0.5,1.2,1.2c0,0.7-0.5,1.2-1.2,1.3c-0.6,0-1.2-0.6-1.2-1.2
				C611.9,283.7,612.5,283.2,613.2,283.2z"/>
			<path fill="#595757" d="M599.4,272.3c-0.7,0-1.3-0.5-1.3-1.2c0-0.7,0.5-1.2,1.2-1.3c0.7,0,1.2,0.5,1.3,1.2
				C600.6,271.7,600.1,272.2,599.4,272.3z"/>
			<path fill="#595757" d="M562.6,272.1c-0.7,0-1.2-0.5-1.2-1.2c0-0.7,0.6-1.2,1.2-1.2c0.7,0,1.2,0.6,1.2,1.3
				C563.9,271.6,563.3,272.1,562.6,272.1z"/>
			<path fill="#595757" d="M582.3,266.1c0,0.7-0.6,1.2-1.2,1.2c-0.7,0-1.2-0.6-1.2-1.3c0-0.7,0.6-1.2,1.2-1.2
				C581.8,264.9,582.3,265.4,582.3,266.1z"/>
			<path fill="#595757" d="M545,303.1c0,0.7-0.5,1.2-1.2,1.3c-0.7,0-1.2-0.5-1.2-1.2c0-0.7,0.5-1.2,1.2-1.2
				C544.4,301.9,545,302.4,545,303.1z"/>
			<path fill="#595757" d="M618.3,301.9c0.7,0,1.2,0.5,1.2,1.3c0,0.7-0.6,1.2-1.3,1.2c-0.7,0-1.2-0.6-1.2-1.3
				C617,302.4,617.6,301.9,618.3,301.9z"/>
			<path fill="#595757" d="M613.5,320.6c0.7,0,1.2,0.6,1.2,1.2c0,0.7-0.5,1.2-1.2,1.2c-0.7,0-1.2-0.5-1.2-1.2
				C612.3,321.2,612.8,320.6,613.5,320.6z"/>
			<path fill="#595757" d="M561.6,336.5c-0.7,0-1.2-0.5-1.2-1.2c0-0.7,0.5-1.2,1.2-1.2c0.7,0,1.2,0.5,1.2,1.2
				C562.9,335.9,562.3,336.5,561.6,336.5z"/>
			<path fill="#595757" d="M548.4,322.9c-0.7-0.1-1.2-0.7-1.1-1.3c0.1-0.7,0.7-1.2,1.3-1.1c0.7,0.1,1.1,0.6,1.1,1.3
				C549.7,322.5,549.1,323,548.4,322.9z"/>
			<path fill="#595757" d="M582.3,340.6c0,0.7-0.5,1.2-1.2,1.2c-0.7,0-1.2-0.6-1.2-1.2c0-0.6,0.6-1.2,1.3-1.2
				C581.8,339.4,582.3,339.9,582.3,340.6z"/>
			<path fill="#595757" d="M589.3,337.4c0-0.6,0.5-1,1-1.1c0.6,0,1.1,0.5,1.1,1.1c0,0.6-0.5,1-1,1
				C589.7,338.5,589.3,338,589.3,337.4z"/>
			<path fill="#595757" d="M573.1,269.5c0,0.6-0.5,1.1-1.1,1.1c-0.6,0-1-0.5-1-1c0-0.6,0.5-1.1,1.1-1.1
				C572.6,268.5,573.1,268.9,573.1,269.5z"/>
			<path fill="#595757" d="M555.6,327.4c0.6,0,1,0.4,1.1,1c0,0.6-0.4,1.1-1,1.1c-0.5,0-1-0.5-1.1-1
				C554.6,327.9,555,327.4,555.6,327.4z"/>
			<path fill="#595757" d="M547.7,293.9c0,0.6-0.5,1.1-1.1,1.1c-0.5,0-1-0.5-1-1.1c0-0.6,0.5-1.1,1.1-1.1
				C547.3,292.8,547.7,293.3,547.7,293.9z"/>
			<path fill="#595757" d="M546.6,313.3c-0.6,0-1-0.5-1.1-1c0-0.6,0.5-1.1,1.1-1.1c0.6,0,1,0.5,1.1,1
				C547.7,312.8,547.2,313.3,546.6,313.3z"/>
			<path fill="#595757" d="M615.6,311.3c0.5,0,1,0.4,1.1,1c0,0.6-0.4,1.1-1,1.2c-0.5,0-1-0.4-1.1-1
				C614.5,311.9,615,311.3,615.6,311.3z"/>
			<path fill="#595757" d="M615.5,294.8c-0.6,0-1.1-0.4-1.1-1c0-0.6,0.4-1,1-1c0.6,0,1.1,0.4,1.1,1
				C616.5,294.4,616.1,294.8,615.5,294.8z"/>
			<path fill="#595757" d="M572.9,337.6c0,0.6-0.5,1-1,1c-0.6,0-1.1-0.5-1.1-1.1c0-0.6,0.5-1,1-1C572.4,336.5,572.9,337,572.9,337.6
				z"/>
			<path fill="#595757" d="M607.7,328.3c0,0.6-0.5,1-1,1c-0.6,0-1.1-0.5-1-1.1c0-0.6,0.5-1,1-1C607.2,327.2,607.7,327.7,607.7,328.3
				z"/>
			<path fill="#595757" d="M591.2,269.4c0,0.6-0.5,1.1-1,1.1c-0.5,0-1-0.5-1-1c0-0.6,0.5-1.1,1.1-1.1
				C590.7,268.4,591.2,268.9,591.2,269.4z"/>
			<path fill="#595757" d="M556,277.3c0.6,0,1.1,0.5,1.1,1.1c0,0.6-0.5,1-1,1c-0.6,0-1.1-0.5-1.1-1.1
				C555,277.7,555.4,277.3,556,277.3z"/>
			<path fill="#595757" d="M606.1,277.3c0.6,0,1,0.5,1,1c0,0.6-0.5,1.1-1.1,1.1c-0.6,0-1-0.4-1-1C605,277.8,605.5,277.3,606.1,277.3
				z"/>
			<path fill="#595757" d="M626.5,315.2c0,0.5-0.5,1.1-1.1,1.1c-0.5,0-1-0.4-1-0.9c0-0.6,0.5-1.1,1.1-1.1
				C626.1,314.3,626.5,314.6,626.5,315.2z"/>
			<path fill="#595757" d="M548.7,270.1c0.5,0,1,0.5,0.9,1c0,0.5-0.6,1-1.1,1c-0.5,0-0.9-0.5-0.9-1
				C547.7,270.5,548.2,270,548.7,270.1z"/>
			<path fill="#595757" d="M549.8,336c0,0.5-0.4,1-0.9,1c-0.5,0-1-0.4-1-0.9c0-0.6,0.4-1.1,1-1.1C549.3,335.1,549.8,335.6,549.8,336
				z"/>
			<path fill="#595757" d="M592.4,347.1c0.5,0,1,0.4,1,0.9c0,0.5-0.5,1-1,1c-0.5,0-1-0.5-0.9-1C591.4,347.5,591.9,347.1,592.4,347.1
				z"/>
			<path fill="#595757" d="M537,316.1c-0.5,0-0.9-0.4-0.9-1c0-0.5,0.4-1,0.9-1c0.5,0,0.9,0.4,0.9,1
				C537.9,315.7,537.5,316.1,537,316.1z"/>
			<path fill="#595757" d="M592.6,257.8c0.5,0,1,0.4,1,0.9c0,0.5-0.5,1-1,1c-0.5,0-0.9-0.4-0.9-0.9
				C591.6,258.2,592,257.8,592.6,257.8z"/>
			<path fill="#595757" d="M569.6,260c-0.5,0-1-0.5-1-1c0-0.5,0.4-0.9,0.9-0.9c0.6,0,1.1,0.5,1,1C570.6,259.6,570.1,260,569.6,260z"
				/>
			<path fill="#595757" d="M614.1,336.3c0,0.5-0.4,0.8-1,0.8c-0.6,0-0.9-0.5-0.9-1c0-0.5,0.4-0.8,1-0.8
				C613.8,335.3,614.2,335.7,614.1,336.3z"/>
			<path fill="#595757" d="M537,292.7c-0.5,0-0.9-0.4-0.9-0.9c0-0.5,0.4-1,0.9-0.9c0.5,0,0.9,0.4,0.9,0.9
				C537.9,292.3,537.5,292.8,537,292.7z"/>
			<path fill="#595757" d="M625.2,291.1c0.5,0,0.9,0.3,0.9,0.8c0,0.5-0.3,0.9-0.8,0.9c-0.5,0-0.9-0.4-0.9-0.9
				C624.3,291.6,624.7,291.1,625.2,291.1z"/>
			<path fill="#595757" d="M612.7,271c0-0.5,0.4-0.9,0.9-0.9c0.5,0,0.9,0.4,0.9,0.9c0,0.5-0.4,0.9-0.9,0.9
				C613.1,271.9,612.7,271.5,612.7,271z"/>
			<path fill="#595757" d="M570.1,347.9c0,0.5-0.4,0.9-0.9,0.9c-0.5,0-0.9-0.4-0.9-0.9c0-0.5,0.5-0.9,0.9-0.9
				C569.7,347,570.1,347.4,570.1,347.9z"/>
			<path fill="#595757" d="M571.5,303.6c0-1.8,0-3.5,0-5.3c0-1.4,0.4-1.9,1.8-1.9c1.3-0.1,2.7-0.1,4,0.2c2.3,0.5,3.2,2.3,2.7,4.8
				c-0.1,0.6-0.5,1.3-1,1.7c-0.7,0.6-0.6,1.2-0.3,1.9c0.6,1.5,1.3,3,2,4.4c0.4,0.9,0.1,1.5-1,1.6c-0.8,0.1-1.4-0.3-1.7-1.1
				c-0.4-1.1-0.8-2.1-1.3-3.2c-0.2-0.6-0.6-1.1-0.9-1.6c-0.2-0.3-0.5-0.5-0.9-0.3c-0.2,0.2-0.5,0.5-0.5,0.8c-0.1,0.8,0,1.7,0,2.5
				c0,0.4,0,0.8,0,1.2c0.1,1-0.5,1.3-1.5,1.4c-0.7,0.1-1.4-0.6-1.4-1.4C571.5,307.4,571.5,305.5,571.5,303.6
				C571.5,303.6,571.5,303.6,571.5,303.6z M577.6,300.3c0-1-0.4-1.5-1.4-1.7c-0.5-0.1-0.9,0-1.4,0c-0.5,0.1-0.7,0.4-0.6,0.9
				c0.1,0.5,0.1,1.1,0.1,1.6c0,0.5,0.3,0.8,0.8,0.9c0.4,0,0.8,0,1.2-0.1C577.3,301.7,577.6,301.3,577.6,300.3z"/>
			<path fill="#595757" d="M585.4,298.7c0,1,0,2,0,3.1c1,0,1.9,0,2.8,0c0.4,0,0.8,0,1.2,0.1c0.8,0.1,1.1,0.6,1.1,1.3
				c0,0.7-0.4,1.1-1.2,1.1c-0.8,0.1-1.6,0-2.3,0c-0.5,0-1.1,0-1.7,0c0,1.3,0,2.5,0,3.8c0.3,0,0.7,0.1,1,0.1c1,0,2,0,2.9,0
				c0.8,0,1.1,0.3,1.3,0.9c0.2,0.8-0.3,1.5-1.1,1.5c-1.9,0-3.9,0-5.8,0c-0.7,0-1.1-0.3-1.2-1c-0.1-0.3-0.1-0.5-0.1-0.8
				c0-3,0-6.1,0-9.1c0-0.7,0.1-1.5,0.2-2.2c0.1-0.9,0.3-1.1,1.2-1.1c1.9,0,3.8,0,5.7,0c0.8,0,1.3,0.5,1.2,1.2c0,0.6-0.5,1-1.3,1
				c-0.9,0-1.9,0-2.8,0C586.3,298.7,585.9,298.7,585.4,298.7z"/>
			<path fill="#595757" d="M592.8,303.6c0.1-1.6,0.2-3.4,1-5c1-1.9,2.9-2.8,5-2.3c0.9,0.2,1.7,0.8,2.1,1.6c1.5,3.6,1.9,7.2,0,10.9
				c-0.8,1.5-2,2.2-3.6,2.1c-1.7,0-2.9-0.7-3.6-2.3C592.9,307.1,592.8,305.4,592.8,303.6z M600,303.5c0,0-0.1,0-0.1,0
				c0-0.4,0.1-0.9,0-1.3c-0.1-0.8-0.3-1.7-0.5-2.5c-0.3-0.8-0.9-1.3-1.8-1.3c-0.9,0-1.5,0.4-1.9,1.1c-0.2,0.4-0.4,0.9-0.5,1.3
				c-0.3,1.5-0.3,3-0.1,4.4c0.2,0.8,0.4,1.6,0.7,2.3c0.6,1.2,2,1.3,2.9,0.4c0.4-0.5,0.8-1.2,0.9-1.9
				C599.9,305.3,599.9,304.4,600,303.5z"/>
			<path fill="#595757" d="M560.3,303.7c-0.1-1.9,0.2-3.6,1.1-5.2c1.2-2.3,3.8-3,6-1.6c0.6,0.4,1,1,1.3,1.6c1,2.6,1.1,5.2,0.5,7.9
				c-0.2,1-0.5,2-1.1,2.8c-0.9,1.3-2.2,1.9-3.8,1.7c-1.6-0.2-2.7-1.2-3.3-2.7C560.4,306.7,560.2,305.2,560.3,303.7z M567.3,303.6
				c-0.2-1.2-0.3-2.4-0.5-3.6c-0.1-0.8-0.7-1.2-1.4-1.4c-1.4-0.4-2.3,0.3-2.7,1.6c-0.6,2.2-0.7,4.4,0,6.6c0.3,1.1,1,1.6,2.1,1.6
				c1,0,1.7-0.5,2-1.6C567.1,305.8,567.2,304.7,567.3,303.6z"/>
			<path fill="#595757" d="M581,294.2c-1.3,0-2.6,0-4,0c-0.3,0-0.8-0.2-0.8-0.3c-0.1-0.3,0.1-0.7,0.3-1c0.9-1,2-1.5,3.3-1.8
				c1.9-0.3,3.7-0.1,5.3,1.1c0.4,0.3,0.6,0.7,0.9,1.1c0.2,0.4,0.1,0.7-0.3,0.8c-0.3,0.1-0.6,0.1-0.9,0.1
				C583.5,294.1,582.2,294.1,581,294.2C581,294.1,581,294.2,581,294.2z"/>
			<path fill="#595757" d="M581.3,313.5c1.3,0,2.6,0,3.8,0c0.4,0,0.8,0,0.9,0.4c0.1,0.4-0.2,0.7-0.5,0.9c-2.2,1.3-4.5,1.7-6.9,0.8
				c-0.6-0.2-1.2-0.5-1.8-0.9c-0.2-0.1-0.5-0.5-0.5-0.8c0-0.4,0.4-0.4,0.8-0.4C578.5,313.5,579.9,313.5,581.3,313.5
				C581.3,313.5,581.3,313.5,581.3,313.5z"/>
		</g>
		<path fill="#595757" d="M628.1,304.1c-0.1,1.4-0.3,3.3-0.5,5.2c0,0.2-0.1,0.5-0.2,0.7c-0.2,0.4-0.7,0.6-1.1,0.5
			c-0.5-0.1-0.7-0.5-0.6-0.9c0.1-0.7,0.2-1.5,0.3-2.2c0.3-2.3,0.3-4.6,0-6.9c-0.1-1-0.3-1.9-0.4-2.9c-0.1-0.7,0.2-1.2,0.8-1.3
			c0.6-0.1,1,0.2,1.2,1c0.2,1,0.3,1.9,0.4,2.9C628,301.2,628,302.4,628.1,304.1z"/>
	</g>
	<g>
		<g>
			<path fill="#595757" d="M312.1,284.5c0,1,0,1.8,0,2.7c0.7,0.1,1.4,0.1,2,0.2c5.4,0.4,10.6,1.7,15.4,4.3c2.2,1.2,4.3,2.7,5.9,4.7
				c1.3,1.6,2.3,3.4,2.7,5.4c0.4,2.4,0,4.6-1.1,6.7c-1.1,2-2.7,3.7-4.5,5c-3.4,2.6-7.3,4.1-11.4,5.1c-4.7,1.1-9.5,1.5-14.3,1.1
				c-4.7-0.4-9.2-1.4-13.4-3.3c-2.2-1-4.3-2.3-6.1-3.9c-1.2-1.1-2.2-2.3-3-3.7c-2-3.5-2-7.1,0-10.6c1.2-2.1,3-3.8,5-5.2
				c3.3-2.3,7-3.7,10.9-4.7c2.8-0.7,5.7-1,8.5-1.2c0.2,0,0.5,0,0.8-0.1c0-0.8,0-1.7,0-2.6c-0.4,0-0.8,0-1.1,0c-2.6,0-5.1,0-7.7,0
				c-0.3,0-0.6,0-0.9,0c-0.7-0.1-1.1-0.6-1.1-1.2c0-0.6,0.4-1.1,1-1.2c0.4-0.1,0.7-0.1,1.1-0.1c2.5,0,5.1,0,7.6,0
				c0.4,0,0.7,0,1.1-0.1c0-0.7,0-1.2,0-1.9c-0.3,0-0.6-0.1-1-0.1c-1.5,0-3,0-4.6,0c-0.3,0-0.7,0-1-0.1c-0.7-0.1-1.1-0.7-1.1-1.3
				c0-0.6,0.5-1.1,1.3-1.2c0.2,0,0.5,0,0.7,0c1.5,0,3,0,4.6,0c0.3,0,0.7,0,1.1,0c0-0.4,0-0.7,0.1-1.1c0-0.2,0-0.5,0-0.7
				c0.1-0.7,0.6-1.1,1.2-1.1c0.6,0,1.1,0.4,1.3,1.1c0.1,0.6,0.1,1.1,0.1,1.8c0.3,0,0.6,0.1,0.9,0.1c1.6,0,3.3,0,4.9,0
				c0.2,0,0.5,0,0.7,0c0.8,0.1,1.2,0.5,1.3,1.2c0,0.7-0.4,1.2-1.1,1.3c-0.3,0.1-0.6,0.1-0.9,0.1c-1.6,0-3.1,0-4.7,0
				c-0.3,0-0.7,0-1.1,0c0,0.6,0,1.2,0,1.9c0.4,0,0.7,0,1.1,0c2.7,0,5.3,0,8,0c0.4,0,0.7,0,1.1,0.1c0.6,0.1,1,0.6,1,1.2
				c0,0.6-0.4,1.1-1,1.2c-0.3,0.1-0.6,0-0.9,0c-2.7,0-5.4,0-8.1,0C312.9,284.5,312.5,284.5,312.1,284.5z M311,317.6
				c3,0.1,6.5-0.4,10-1.3c3.7-0.9,7.1-2.3,10.2-4.6c1.6-1.2,3.1-2.7,4-4.5c1.3-2.5,1.3-4.9,0-7.4c-0.7-1.3-1.6-2.5-2.7-3.5
				c-1.7-1.6-3.6-2.7-5.7-3.7c-3.9-1.8-8-2.7-12.3-3.1c-4.8-0.4-9.6-0.1-14.3,1.1c-3.8,0.9-7.3,2.4-10.4,4.8c-1.3,1-2.4,2.1-3.3,3.4
				c-2,3.1-2.1,6.4,0,9.4c0.7,1,1.5,1.9,2.4,2.7c1.7,1.6,3.7,2.7,5.8,3.6C299.6,316.7,304.9,317.6,311,317.6z"/>
			<path fill="#595757" d="M306.3,322.8c0.5,0.2,1.1,0.4,1.5,0.7c0.7,0.5,1.4,0.5,2.1,0.1c0.6-0.3,1.1-0.3,1.6,0
				c0.7,0.5,1.4,0.4,2.2-0.1c0.5-0.3,1.1-0.5,1.7-0.6c0.3-0.1,0.7,0.1,0.8,0.4c0.1,0.2,0,0.7-0.2,0.9c-0.5,0.7-1.1,1.2-1.5,1.9
				c-0.9,1.4-1.7,2.8-2.6,4.3c-0.3,0.5-0.5,1.2-1.2,1.2c-0.7,0-0.8-0.7-1.1-1.2c-0.9-1.5-1.8-3-2.8-4.5c-0.3-0.5-0.8-1-1.2-1.5
				c-0.3-0.3-0.6-0.6-0.4-1.1C305.4,322.9,305.8,322.9,306.3,322.8z"/>
			<path fill="#595757" d="M310.9,350.3c-1.8-0.1-3.6-0.2-5.4-0.2c-0.4,0-0.8-0.1-1.2-0.2c-0.5-0.1-0.8-0.5-0.7-1
				c0-0.4,0.4-0.8,0.8-0.9c0.2,0,0.4,0,0.6,0c3.3,0.4,6.6,0.2,9.9,0.2c0.7,0,1.5-0.2,2.2-0.2c0.7-0.1,1.1,0.2,1.2,0.8
				c0.1,0.6-0.2,1-0.9,1.1c-1.5,0.2-3,0.3-4.4,0.4C312.3,350.3,311.6,350.3,310.9,350.3C310.9,350.3,310.9,350.3,310.9,350.3z"/>
			<path fill="#595757" d="M294.4,261c0,0.6-0.4,0.9-0.9,1.1c-1.4,0.7-2.8,1.2-4.1,2c-2.2,1.3-4.5,2.5-6.4,4.2
				c-0.2,0.2-0.7,0.4-1,0.4c-0.3,0-0.6-0.3-0.7-0.6c-0.2-0.4,0-0.8,0.3-1.1c0.8-0.7,1.6-1.4,2.6-2c2.1-1.3,4.2-2.5,6.4-3.7
				c0.8-0.4,1.6-0.8,2.5-1.1C293.7,259.9,294.4,260.3,294.4,261z"/>
			<path fill="#595757" d="M328.3,260.1c0.2,0.1,0.7,0.2,1,0.3c2.5,1.1,5,2.4,7.2,4c0.9,0.6,1.7,1.2,2.6,1.8
				c0.3,0.2,0.6,0.4,0.9,0.7c0.4,0.4,0.4,0.9,0.1,1.3c-0.3,0.4-0.8,0.5-1.3,0.2c-0.5-0.3-1.1-0.7-1.6-1.1c-2.3-1.9-4.9-3.3-7.6-4.6
				c-0.6-0.3-1.3-0.5-2-0.8c-0.5-0.2-0.8-0.6-0.7-1.1C327.1,260.3,327.5,260.1,328.3,260.1z"/>
			<path fill="#595757" d="M283,338.9c0.2,0.1,0.6,0.3,0.9,0.5c1.5,1.3,3.1,2.3,4.8,3.4c1.6,1,3.4,1.9,5.2,2.5
				c0.1,0,0.3,0.1,0.4,0.1c0.4,0.2,0.6,0.5,0.6,1c0,0.5-0.3,0.8-0.8,0.8c-0.3,0-0.7,0-1-0.1c-3.9-1.5-7.5-3.6-10.7-6.3
				c-0.2-0.2-0.4-0.3-0.5-0.5C281.6,339.5,282.1,338.9,283,338.9z"/>
			<path fill="#595757" d="M264.1,302.8c0.1-1.4,0.3-3.3,0.5-5.2c0-0.2,0.1-0.5,0.2-0.7c0.2-0.4,0.7-0.6,1.1-0.5
				c0.5,0.1,0.7,0.5,0.6,0.9c-0.1,0.7-0.2,1.5-0.3,2.2c-0.3,2.3-0.3,4.6,0,6.9c0.1,1,0.3,1.9,0.4,2.9c0.1,0.7-0.2,1.2-0.8,1.3
				c-0.6,0.1-1-0.2-1.2-1c-0.2-1-0.3-1.9-0.4-2.9C264.2,305.6,264.2,304.4,264.1,302.8z"/>
			<path fill="#595757" d="M354.2,286.1c0,0.7-0.2,1-0.6,1.1c-0.5,0.1-0.9,0-1.1-0.5c-0.1-0.1-0.1-0.2-0.1-0.4
				c-1-3.2-2.9-5.9-4.6-8.7c-0.3-0.5-0.7-0.9-1.1-1.3c-0.4-0.5-0.4-1.1,0-1.5c0.5-0.4,1.2-0.3,1.6,0.2c2.1,3,4.1,6.1,5.5,9.5
				C353.9,285.2,354,285.8,354.2,286.1z"/>
			<path fill="#595757" d="M339.8,339.7c-0.3,0.4-0.5,0.8-0.8,1.1c-0.5,0.5-1.1,0.9-1.7,1.2c-2.6,1.7-5.4,3.2-8.2,4.5
				c-0.3,0.1-0.6,0.3-0.8,0.4c-0.5,0.2-1,0-1.2-0.5c-0.2-0.4-0.1-0.9,0.3-1.2c0.2-0.1,0.4-0.2,0.6-0.3c3.2-1.5,6.4-3.1,9.2-5.2
				c0.4-0.3,0.6-0.6,1-0.8c0.3-0.1,0.7-0.2,0.9,0C339.4,339,339.5,339.4,339.8,339.7z"/>
			<path fill="#595757" d="M267.4,285.9c0-0.1,0.1-0.3,0.1-0.4c1.4-3.8,3.4-7.2,6-10.3c0.6-0.7,1.1-0.8,1.5-0.5c0.5,0.4,0.6,1,0,1.7
				c-1.4,1.7-2.7,3.6-3.7,5.6c-0.7,1.4-1.3,2.9-1.9,4.3c-0.3,0.6-0.6,0.9-1.2,0.8C267.6,287,267.3,286.5,267.4,285.9z"/>
			<path fill="#595757" d="M268.5,320c0.5,0,0.7,0.3,0.9,0.7c0.3,0.7,0.6,1.3,0.9,2c1,2.3,2.4,4.4,3.8,6.4c0.4,0.5,0.8,1,1.2,1.5
				c0.5,0.6,0.6,1.1,0.2,1.5c-0.4,0.4-0.9,0.4-1.4-0.1c-0.6-0.5-1.1-1.1-1.5-1.8c-1.9-2.7-3.5-5.5-4.8-8.5c-0.1-0.3-0.2-0.6-0.2-0.9
				C267.6,320.3,268,320,268.5,320z"/>
			<path fill="#595757" d="M347,332.4c-0.8,0-1.3-0.6-1.1-1.2c0.1-0.2,0.2-0.4,0.4-0.6c2.4-2.9,4.3-6.1,5.9-9.5
				c0.1-0.3,0.3-0.5,0.5-0.7c0.4-0.4,0.9-0.4,1.3-0.1c0.4,0.3,0.5,0.7,0.2,1.2c-1.3,2.4-2.6,4.7-4,7.1c-0.7,1.1-1.5,2.1-2.3,3.1
				C347.7,331.9,347.3,332.2,347,332.4z"/>
			<path fill="#595757" d="M311.8,258.7c-2.1,0.2-4.1,0.3-6.2,0.5c-0.3,0-0.7,0-1,0c-0.4-0.1-0.7-0.4-0.7-0.8c0-0.5,0.1-0.8,0.6-1
				c0.2-0.1,0.3-0.1,0.5-0.1c2.5-0.2,4.9-0.5,7.4-0.3c1.1,0.1,2.2,0,3.3,0.1c0.5,0,0.9,0.1,1.4,0.2c0.4,0.1,0.6,0.5,0.6,0.9
				c0,0.4-0.4,0.8-0.9,0.8c-0.2,0-0.4,0-0.6,0c-1.5-0.1-3-0.1-4.5-0.2C311.8,258.8,311.8,258.8,311.8,258.7z"/>
			<path fill="#595757" d="M357.8,283.8c1.7-0.7,3.3-1.4,5-2.2c0.6,1.5,1.1,3.1,1.8,4.8c-1.8,0.4-3.5,0.8-5.4,1.2
				C358.8,286.3,358.3,285.1,357.8,283.8z"/>
			<path fill="#595757" d="M331.7,277.9c-0.6,0-1.2,0-1.9,0c-0.4,0-0.9,0-0.9-0.5c0-0.3,0.2-0.7,0.4-0.9c0.7-0.6,1.5-1.2,2.2-1.8
				c0.9-0.8,1.8-1.7,2.7-2.6c0.2-0.2,0.5-0.6,0.8-0.3c0.2,0.1,0.3,0.5,0.3,0.8c-0.1,1.3-0.2,2.7-0.3,4c-0.1,0.7-0.5,1.1-1.3,1.2
				c-0.1,0-0.1,0-0.2,0C332.9,277.8,332.3,277.8,331.7,277.9z"/>
			<path fill="#595757" d="M285.9,332.8c0.1-0.8,0.1-1.6,0.2-2.3c0.1-0.9,0.4-1.4,1.4-1.5c1.2-0.1,2.5-0.2,3.7-0.2
				c0.4,0,0.8-0.1,1,0.4c0.2,0.5-0.2,0.8-0.5,1.1c-0.6,0.6-1.3,1.1-1.9,1.7c-0.9,0.9-1.8,1.9-2.7,2.9c-0.2,0.2-0.3,0.5-0.7,0.4
				c-0.4-0.2-0.4-0.5-0.4-0.8C285.9,333.8,285.9,333.3,285.9,332.8C285.9,332.8,285.9,332.8,285.9,332.8z"/>
			<path fill="#595757" d="M275.5,295.3c0.7,0,1.1,0.3,1.3,0.7c0.7,1.1,1.4,2.2,2,3.3c0.2,0.3,0.4,0.7,0.1,1
				c-0.3,0.3-0.7,0.2-1.1,0.1c-0.8-0.3-1.7-0.7-2.6-0.9c-1.1-0.3-2.3-0.6-3.4-0.9c-0.2-0.1-0.4-0.1-0.6-0.2
				c-0.4-0.2-0.5-0.6-0.2-0.9c0.2-0.2,0.5-0.4,0.8-0.5c1-0.5,2-1,3-1.4C275.1,295.4,275.4,295.4,275.5,295.3z"/>
			<path fill="#595757" d="M285.2,283c0,0.5,0,1,0,1.5c-0.1,0.7-0.5,0.9-1.1,0.5c-0.1-0.1-0.2-0.2-0.3-0.3c-1.2-1.7-2.7-3.1-4.2-4.5
				c-0.3-0.3-0.8-0.5-0.6-1c0.2-0.5,0.7-0.4,1.2-0.4c1.1,0,2.3,0.1,3.4,0.2c1,0.1,1.4,0.5,1.5,1.5
				C285.1,281.3,285.2,282.2,285.2,283C285.3,283,285.2,283,285.2,283z"/>
			<path fill="#595757" d="M346.1,311c-0.7,0-1.1-0.3-1.3-0.7c-0.7-1.1-1.3-2.2-2-3.3c-0.2-0.3-0.4-0.8,0-1c0.3-0.2,0.7-0.2,1,0
				c0.8,0.3,1.5,0.7,2.3,0.9c1.3,0.4,2.6,0.8,3.9,1.2c0.3,0.1,0.6,0.3,0.7,0.5c0.2,0.4-0.2,0.6-0.5,0.7c-1.2,0.6-2.5,1.1-3.7,1.6
				C346.4,311,346.2,311,346.1,311z"/>
			<path fill="#595757" d="M344.4,292.5c-0.3-0.1-0.5-0.1-0.6-0.1c-1.3-0.6-2.7-1.2-4-1.8c-0.2-0.1-0.5-0.4-0.4-0.6
				c0.1-0.2,0.3-0.5,0.6-0.6c0.5-0.2,1-0.2,1.5-0.3c1.5-0.4,3-0.9,4.5-1.4c0.3-0.1,0.5-0.2,0.8-0.3c0.2,0,0.6-0.1,0.7,0
				c0.3,0.2,0.2,0.5,0,0.8c-0.7,1.2-1.4,2.4-2.1,3.6C345.1,292.2,344.6,292.3,344.4,292.5z"/>
			<path fill="#595757" d="M336.5,322.9c0-0.3,0-0.6,0-0.9c0.1-0.6,0.5-0.8,1.1-0.4c0.1,0.1,0.2,0.2,0.3,0.3c1.3,1.8,3,3.2,4.6,4.7
				c0.3,0.2,0.6,0.4,0.4,0.8c-0.2,0.2-0.6,0.4-0.8,0.4c-1.3,0-2.7-0.1-4-0.2c-0.6,0-1.1-0.4-1.2-1.1
				C336.7,325.2,336.6,324.1,336.5,322.9C336.5,322.9,336.5,322.9,336.5,322.9z"/>
			<path fill="#595757" d="M323.8,331.7c0.7,0.2,0.8,0.6,0.8,1c0.2,0.9,0.3,1.7,0.5,2.6c0.3,1.2,0.7,2.5,1.1,3.7
				c0.1,0.3,0.3,0.6,0,0.8c-0.3,0.3-0.6,0.1-0.9-0.1c-1.1-0.7-2.3-1.4-3.4-2.2c-0.5-0.4-0.8-1-0.5-1.6c0.6-1.3,1.2-2.5,1.8-3.7
				C323.4,332.1,323.6,331.9,323.8,331.7z"/>
			<path fill="#595757" d="M282.1,315.9c-0.1,0.2-0.2,0.4-0.3,0.5c-0.2,0.1-0.4,0.3-0.6,0.3c-2.2,0.4-4.2,1.1-6.3,1.9
				c-0.1,0-0.2,0.1-0.3,0.1c-0.5,0.1-0.8-0.2-0.7-0.7c0.1-0.3,0.2-0.5,0.3-0.7c0.6-1,1.1-1.9,1.7-2.9c0.5-0.8,1-1,1.9-0.7
				c1.2,0.5,2.4,1,3.5,1.6C281.6,315.4,281.8,315.7,282.1,315.9z"/>
			<path fill="#595757" d="M300.3,270.2c-0.1,0.3-0.1,0.6-0.2,0.8c-0.6,1.2-1.1,2.4-1.7,3.5c-0.2,0.3-0.4,0.6-0.8,0.5
				c-0.5-0.1-0.6-0.4-0.6-0.8c-0.2-0.8-0.3-1.6-0.5-2.4c-0.4-1.4-0.8-2.7-1.2-4.1c-0.1-0.3-0.2-0.6,0.1-0.8c0.3-0.2,0.6-0.1,0.8,0
				c1.2,0.7,2.4,1.5,3.5,2.3C300,269.5,300.2,269.9,300.3,270.2z"/>
			<path fill="#595757" d="M308,335.6c0,0.1,0,0.3-0.1,0.5c-0.8,1.9-1.4,3.9-1.8,5.9c0,0.2-0.1,0.4-0.1,0.6
				c-0.2,0.5-0.6,0.6-0.9,0.2c-0.1-0.1-0.2-0.3-0.3-0.5c-0.5-1.1-1.1-2.2-1.6-3.4c-0.3-0.8-0.2-1.3,0.5-1.8c1.1-0.8,2.2-1.5,3.4-2.2
				C307.6,334.6,308.1,334.8,308,335.6z"/>
			<path fill="#595757" d="M318.4,268.9c-0.2,0.3-0.3,0.7-0.5,0.9c-1.2,0.8-2.4,1.6-3.7,2.3c-0.2,0.1-0.6,0.1-0.7,0
				c-0.2-0.2-0.2-0.5-0.2-0.8c0-0.1,0-0.3,0.1-0.4c0.9-1.9,1.4-3.9,1.9-5.9c0-0.2,0.1-0.4,0.1-0.6c0.2-0.5,0.6-0.6,1-0.1
				c0.2,0.2,0.3,0.5,0.4,0.7c0.5,1,1,2,1.4,3C318.3,268.3,318.3,268.6,318.4,268.9z"/>
			<path fill="#595757" d="M332,288.9c0,0.6-0.4,0.8-0.9,0.7c-0.3-0.1-0.7-0.3-1-0.5c-1.6-0.7-3.2-1.4-4.8-2.2
				c-0.3-0.1-0.6-0.3-0.6-0.5c0-0.2,0.3-0.5,0.5-0.7c0.1-0.1,0.3-0.2,0.4-0.2c1.1-0.4,2.3-0.8,3.4-1.2c1.1-0.4,1.3-0.2,1.7,0.9
				c0.4,1.1,0.7,2.1,1,3.2C332,288.4,332,288.7,332,288.9z"/>
			<path fill="#595757" d="M317.2,353.5c0.4,1.9,0.8,3.8,1.2,5.7c-1.4,0.1-2.7,0.3-4.1,0.4c-0.2-2-0.4-3.8-0.6-5.8
				C314.9,353.7,316,353.6,317.2,353.5z"/>
			<path fill="#595757" d="M289.4,288.9c0.5-1.4,0.9-2.9,1.5-4.3c0.1-0.2,0.6-0.5,0.9-0.4c1.5,0.1,3,0.6,4.3,1.3
				c0.7,0.4,0.7,0.9,0,1.3c-1.9,0.9-3.7,1.9-5.6,2.8C289.8,289.9,289.5,289.7,289.4,288.9z"/>
			<path fill="#595757" d="M336.6,332.1c0.1-0.6,0.2-1.3,0.3-2c0.1-0.6,0.5-1.1,1.2-1.3c1.3-0.3,2.5-0.4,3.8-0.2
				c0.4,0.1,0.7,0.2,0.7,0.6c0,0.3-0.2,0.6-0.4,0.8c-1.5,1.3-2.9,2.7-4,4.3c-0.2,0.3-0.5,0.6-0.8,0.4c-0.3-0.1-0.5-0.5-0.6-0.7
				C336.7,333.4,336.7,332.8,336.6,332.1z"/>
			<path fill="#595757" d="M300.9,268.2c-0.2,0-0.4,0-0.5-0.1c-1.3-0.3-2.4-0.9-3.4-1.8c-0.2-0.2-0.4-0.6-0.4-0.8
				c0.1-0.2,0.4-0.5,0.7-0.5c1.9-0.3,3.8-0.9,5.6-1.6c0.7-0.3,1.3,0.2,1.1,0.9c-0.5,1.4-1.1,2.7-2.3,3.6
				C301.5,268,301.1,268.1,300.9,268.2z"/>
			<path fill="#595757" d="M274.8,313.6c-0.2,0.4-0.4,1.2-0.7,1.8c-0.3,0.6-0.6,1.1-1,1.6c-0.2,0.2-0.6,0.4-0.8,0.4
				c-0.2,0-0.4-0.4-0.5-0.7c-0.2-0.6-0.2-1.2-0.4-1.8c-0.4-1.2-0.9-2.5-1.4-3.7c-0.1-0.4-0.3-0.7,0-1c0.3-0.3,0.7-0.3,1-0.2
				c1.1,0.4,2.2,0.9,3.1,1.7C274.5,312.2,274.9,312.7,274.8,313.6z"/>
			<path fill="#595757" d="M300.8,339c0.2,0.1,0.7,0.2,1,0.5c1,0.9,1.6,2.1,2,3.4c0.2,0.7-0.1,1.1-0.9,0.9c-0.1,0-0.1,0-0.2-0.1
				c-1.8-0.8-3.7-1.2-5.6-1.6c-0.8-0.1-1-0.8-0.4-1.3C297.8,339.9,299.1,339.2,300.8,339z"/>
			<path fill="#595757" d="M325.2,341.3c-0.3,0.2-0.6,0.5-0.8,0.6c-0.5,0.2-1.1,0.2-1.7,0.4c-1.3,0.4-2.6,0.9-3.9,1.3
				c-0.4,0.1-0.7,0.3-1,0c-0.3-0.3-0.3-0.7-0.1-1c0.5-1.1,1-2.2,1.9-3.1c0.6-0.6,1.2-0.9,2-0.5c1,0.5,2,1.1,3,1.6
				C324.8,340.7,324.9,341,325.2,341.3z"/>
			<path fill="#595757" d="M281.6,278c-0.6-0.1-1.3-0.1-1.8-0.3c-0.6-0.2-0.7-0.6-0.3-1.1c0.2-0.2,0.4-0.3,0.5-0.5
				c1.3-1.1,2.5-2.3,3.5-3.6c0.1-0.1,0.2-0.2,0.2-0.3c0.5-0.5,1.1-0.4,1.3,0.3c0.3,1.5,0.4,2.9-0.3,4.4c-0.2,0.5-0.6,0.8-1.1,0.9
				C283,277.8,282.3,277.9,281.6,278z"/>
			<path fill="#595757" d="M274.9,293.2c-0.1,0.3-0.3,0.7-0.6,1.1c-0.9,0.9-2,1.5-3.2,1.9c-0.3,0.1-0.7,0.1-0.9-0.1
				c-0.3-0.2-0.2-0.6-0.1-0.9c0.7-1.8,1.3-3.6,1.6-5.5c0.1-0.4,0.1-0.8,0.6-0.9c0.4-0.1,0.7,0.2,0.9,0.5
				C274,290.4,274.8,291.6,274.9,293.2z"/>
			<path fill="#595757" d="M336.2,274.4c0.1-0.5,0.1-1.2,0.2-1.8c0.2-0.8,0.7-0.9,1.2-0.3c0.4,0.4,0.7,1,1.2,1.4
				c0.9,0.9,1.9,1.8,2.8,2.7c0.3,0.3,0.7,0.6,0.4,1c-0.2,0.3-0.6,0.5-0.9,0.5c-1.1,0.2-2.3,0.1-3.4-0.2c-0.9-0.3-1.4-0.8-1.5-1.8
				C336.3,275.6,336.2,275,336.2,274.4z"/>
			<path fill="#595757" d="M320.5,268.1c-0.3-0.2-0.8-0.3-1.1-0.6c-0.9-0.9-1.5-2-1.9-3.2c-0.1-0.3-0.2-0.7,0.1-0.9
				c0.2-0.1,0.6-0.2,0.8-0.1c1.9,0.7,3.8,1.3,5.7,1.6c0.7,0.1,1,0.8,0.5,1.2C323.5,267.2,322.2,267.9,320.5,268.1z"/>
			<path fill="#595757" d="M346.6,313.1c0.2-0.3,0.3-0.8,0.6-1c0.9-0.9,2.1-1.4,3.2-1.8c0.1,0,0.3-0.1,0.4-0.1
				c0.5,0,0.8,0.3,0.7,0.8c0,0.2-0.1,0.4-0.2,0.6c-0.7,1.6-1.3,3.3-1.6,5.1c0,0.1,0,0.3-0.1,0.4c-0.2,0.6-0.8,0.8-1.2,0.3
				C347.5,316.2,346.8,314.9,346.6,313.1z"/>
			<path fill="#595757" d="M350.6,296.1c-0.1,0-0.3,0-0.4-0.1c-1-0.5-2-1-2.9-1.7c-0.8-0.5-1.1-1.4-0.7-2.3c0.5-1,1-1.9,1.5-2.9
				c0.2-0.3,0.5-0.7,0.9-0.5c0.2,0.1,0.4,0.5,0.5,0.8c0.3,0.9,0.4,1.8,0.7,2.6c0.3,1,0.8,1.9,1.1,2.9
				C351.6,295.7,351.3,296.1,350.6,296.1z"/>
			<path fill="#595757" d="M278.6,327.1c0.2-0.2,0.4-0.5,0.7-0.7c1.5-1.2,2.9-2.5,4-4.1c0.5-0.6,0.9-0.6,1.1,0.1
				c0.1,0.2,0.2,0.5,0.2,0.8c0,1,0,2.1,0,3.1c0,0.7-0.3,1.1-1,1.2c-1.3,0.4-2.7,0.5-4.1,0.3C279.1,327.8,278.8,327.7,278.6,327.1z"
				/>
			<path fill="#595757" d="M274,288.1c0-0.6,0.3-0.8,0.8-0.6c0.2,0.1,0.4,0.1,0.6,0.2c1.7,0.7,3.5,1.3,5.3,1.6
				c0.3,0.1,0.6,0.3,0.9,0.4c-0.2,0.3-0.3,0.8-0.5,0.9c-1.1,0.7-2.3,1.3-3.5,1.8c-0.3,0.1-0.8,0-1-0.2c-1.2-1.1-1.9-2.4-2.5-3.9
				C274,288.2,274,288.1,274,288.1z"/>
			<path fill="#595757" d="M320.1,324.6c0.3,0.1,0.5,0.1,0.7,0.2c1,0.5,2.1,1,3.1,1.5c0.1,0.1,0.3,0.2,0.4,0.3
				c0.3,0.3,0.3,0.7-0.2,0.9c-0.6,0.2-1.2,0.3-1.7,0.6c-1.1,0.5-2.2,1-3.3,1.5c-0.2,0.1-0.4,0.2-0.7,0.3c-0.8,0.3-1.4-0.2-1.1-1
				c0.4-1.3,1.1-2.5,2-3.6C319.4,324.9,319.8,324.8,320.1,324.6z"/>
			<path fill="#595757" d="M347.4,318.2c0,0.6-0.4,0.8-1,0.6c-1.4-0.5-2.8-1.1-4.2-1.5c-0.6-0.2-1.2-0.3-1.8-0.4
				c-0.6-0.2-0.8-0.5-0.4-1c0.2-0.3,0.5-0.5,0.9-0.7c0.9-0.5,1.8-0.8,2.6-1.3c0.6-0.3,1.1-0.2,1.5,0.2c1,1.1,1.7,2.4,2.2,3.8
				C347.4,318.1,347.4,318.2,347.4,318.2z"/>
			<path fill="#595757" d="M284.9,332.5c0,0.5,0,1.1-0.1,1.5c-0.1,0.3-0.3,0.6-0.5,0.7c-0.2,0.1-0.6-0.1-0.8-0.3
				c-0.4-0.4-0.7-0.9-1.1-1.3c-1-0.9-1.9-1.8-2.9-2.6c-0.3-0.3-0.7-0.5-0.6-1c0.1-0.6,0.6-0.7,1.1-0.7c1,0,2-0.1,2.9,0
				c1.2,0.1,1.7,0.7,1.9,1.9C284.9,331.4,284.9,332,284.9,332.5z"/>
			<path fill="#595757" d="M300.1,336.8c-0.1,0.2-0.3,0.6-0.5,0.8c-1,1-2.2,1.7-3.6,2.3c-0.3,0.1-0.7,0-0.9-0.1
				c-0.1-0.1-0.1-0.6,0-0.8c0.8-1.9,1.4-3.9,1.7-5.9c0.1-0.5,0.4-0.7,0.8-0.4c0.3,0.2,0.5,0.4,0.7,0.7c0.5,0.9,1,1.9,1.5,2.9
				C300,336.3,300,336.5,300.1,336.8z"/>
			<path fill="#595757" d="M307.3,271.9c-0.2,0-0.5-0.1-0.8-0.3c-0.9-0.5-1.8-1.1-2.7-1.6c-0.6-0.3-0.8-0.8-0.6-1.5
				c0.4-1.4,1-2.6,1.8-3.7c0.1-0.1,0.2-0.3,0.4-0.3c0.4-0.3,0.8-0.2,0.9,0.3c0.1,0.2,0.1,0.4,0.1,0.6c0.3,1.9,0.8,3.8,1.6,5.6
				C308.3,271.7,308.1,271.9,307.3,271.9z"/>
			<path fill="#595757" d="M318.4,338.1c0,0.2,0,0.5-0.1,0.7c-0.5,1.1-1,2.1-1.6,3.2c-0.1,0.2-0.3,0.4-0.5,0.5
				c-0.4,0.2-0.7,0.1-0.9-0.3c-0.1-0.5-0.2-1-0.3-1.5c-0.4-1.5-0.9-3-1.3-4.6c-0.1-0.3-0.2-0.7-0.1-0.8c0.2-0.2,0.6-0.2,0.9-0.2
				c0.2,0,0.4,0.1,0.6,0.2c0.9,0.5,1.8,1,2.7,1.6C318.3,337.2,318.4,337.5,318.4,338.1z"/>
			<path fill="#595757" d="M336.2,282.3c0-0.6,0-1.2,0.1-1.7c0-0.6,0.3-1.1,1-1.2c1.4-0.3,2.9-0.3,4.3-0.1c0.2,0,0.6,0.3,0.6,0.5
				c0,0.2-0.2,0.6-0.4,0.7c-1.7,1.3-3.2,2.6-4.6,4.3c-0.4,0.4-0.7,0.4-0.9-0.1c-0.2-0.4-0.2-0.8-0.2-1.2
				C336.1,283,336.2,282.6,336.2,282.3z"/>
			<path fill="#595757" d="M343.1,300.3c-0.3-0.5-0.2-1,0-1.4c0.5-1,1.1-2,1.6-2.9c0.3-0.5,0.7-0.7,1.3-0.5c1.4,0.3,2.7,0.9,3.9,1.7
				c0.2,0.2,0.5,0.6,0.4,0.8c0,0.2-0.5,0.5-0.7,0.5c-2,0.4-4,0.9-5.8,1.8c-0.1,0.1-0.3,0.1-0.4,0.1
				C343.3,300.3,343.2,300.3,343.1,300.3z"/>
			<path fill="#595757" d="M278.3,306.6c0,0.1,0,0.3-0.1,0.5c-0.6,1.1-1.1,2.2-1.7,3.2c-0.2,0.4-0.7,0.6-1.1,0.5
				c-1.5-0.3-2.8-0.9-4-1.8c-0.2-0.2-0.4-0.6-0.4-0.8c0-0.2,0.4-0.4,0.7-0.4c2-0.4,4-1,5.9-1.9C278.1,305.5,278.3,305.8,278.3,306.6
				z"/>
			<path fill="#595757" d="M321.2,270.4c0.1-0.2,0.2-0.5,0.4-0.7c1.1-1.1,2.3-1.8,3.7-2.4c0.2-0.1,0.7,0,0.8,0.1
				c0.1,0.2,0.1,0.6,0,0.8c-0.5,1.6-1.1,3.3-1.6,4.9c-0.1,0.4-0.1,0.7-0.2,1.1c-0.1,0.5-0.4,0.6-0.8,0.4c-0.3-0.2-0.6-0.4-0.7-0.7
				c-0.5-1-1-2-1.6-3C321.3,270.8,321.2,270.6,321.2,270.4z"/>
			<path fill="#595757" d="M292.4,276.9c-0.4,0.7-0.9,0.8-1.5,0.8c-1,0-2,0-3,0c-0.8,0-1.1-0.3-1.4-1.1c-0.4-1.4-0.3-2.7-0.2-4.1
				c0-0.3,0.3-0.6,0.5-0.9c0.2,0.1,0.4,0.2,0.5,0.2C288.8,273.7,290.4,275.5,292.4,276.9z"/>
			<path fill="#595757" d="M335.1,335.1c-1.9-1.8-3.7-3.6-5.5-5.4c0.2-0.5,0.7-0.7,1.3-0.7c1.1,0,2.2,0,3.3,0c0.6,0,1,0.3,1.1,0.9
				c0.4,1.4,0.5,2.9,0.3,4.4C335.6,334.5,335.3,334.8,335.1,335.1z"/>
			<path fill="#595757" d="M328.9,323c-0.5-0.2-1.1-0.3-1.6-0.6c-0.6-0.2-1.1-0.5-1.7-0.7c-0.2-0.1-0.5-0.3-0.5-0.5
				c0-0.3,0.2-0.6,0.4-0.7c0.6-0.4,1.3-0.6,1.9-1c1-0.6,2-1.2,3.1-1.7c0.1-0.1,0.3-0.2,0.4-0.3c0.5-0.3,1-0.1,1,0.5
				c0,0.3,0,0.7-0.1,1c-0.5,1.1-0.9,2.2-1.5,3.2C330.2,322.7,329.5,323,328.9,323z"/>
			<path fill="#595757" d="M301.6,324.8c0.2,0.1,0.6,0.2,0.8,0.5c0.6,1.2,1.2,2.3,1.7,3.6c0.3,0.7-0.1,1.1-0.9,0.9
				c-0.1,0-0.2,0-0.3-0.1c-1.8-0.8-3.7-1.6-5.5-2.4c-0.6-0.3-0.7-0.8,0-1.1C298.7,325.5,300,325.1,301.6,324.8z"/>
			<path fill="#595757" d="M348.9,345c-1.3-1.5-2.5-2.9-3.6-4.2c0.7-0.8,1.4-1.6,2.2-2.5c1.4,1.4,2.7,2.7,4,3.9
				C350.6,343.1,349.8,344.1,348.9,345z"/>
			<path fill="#595757" d="M292,323c-0.2-0.1-0.5-0.3-0.6-0.5c-0.6-1.2-1.2-2.4-1.8-3.6c-0.2-0.4-0.2-0.8,0.2-1.1
				c0.4-0.3,0.7-0.1,1,0.1c1.8,0.9,3.6,1.8,5.3,2.7c0.6,0.3,0.7,0.8,0.1,1.1c-1.3,0.5-2.5,0.9-3.8,1.3
				C292.3,322.9,292.2,322.9,292,323z"/>
			<path fill="#595757" d="M319.2,271.1c0.3,0.2,0.6,0.3,0.9,0.5c0.9,1,1.6,2.2,2.1,3.4c0.1,0.2,0,0.6-0.1,0.8
				c-0.1,0.1-0.5,0.1-0.7,0c-0.6-0.2-1.2-0.5-1.8-0.7c-1.2-0.3-2.4-0.6-3.6-0.9c-0.2,0-0.4,0-0.6-0.1c-0.5-0.2-0.6-0.6-0.3-1
				c0-0.1,0.1-0.1,0.1-0.1C316.2,272,317.6,271.5,319.2,271.1z"/>
			<path fill="#595757" d="M362.1,279.9c-1.8,0.7-3.4,1.4-5.1,2c-0.5-1-1-1.9-1.5-3c1.6-0.9,3.1-1.7,4.8-2.6
				C360.9,277.5,361.5,278.7,362.1,279.9z"/>
			<path fill="#595757" d="M302.1,335.9c-0.3-0.2-0.6-0.3-0.9-0.5c-0.9-1-1.6-2.1-2.1-3.4c-0.1-0.2,0-0.6,0.1-0.8
				c0.1-0.1,0.5-0.1,0.7,0c0.5,0.2,1,0.4,1.5,0.6c1.3,0.6,2.7,0.9,4.1,1.1c0.4,0,0.8,0.1,0.8,0.5c0,0.3-0.1,0.7-0.4,0.8
				C304.9,335.1,303.6,335.6,302.1,335.9z"/>
			<path fill="#595757" d="M265.3,336.3c-0.7-1-1.4-2-2.1-3.1c1.6-1,3.2-1.9,4.9-3c0.6,0.9,1.2,1.7,1.8,2.7
				C268.4,334,266.9,335.1,265.3,336.3z"/>
			<path fill="#595757" d="M340.8,299.3c-0.1-0.4-0.3-0.8-0.4-1.2c-0.4-1.8-0.7-3.6-1.6-5.3c-0.2-0.3-0.3-0.7,0-0.9
				c0.2-0.1,0.6-0.2,0.8-0.1c1.3,0.4,2.5,1.2,3.5,2.2c0.2,0.2,0.3,0.6,0.3,0.8c-0.2,1.6-0.9,2.9-2,4.2
				C341.4,299.1,341.1,299.2,340.8,299.3z"/>
			<path fill="#595757" d="M338.6,314.4c0.1-0.3,0.1-0.7,0.3-1c0.8-1.7,1.5-3.5,1.7-5.4c0-0.3,0.2-0.7,0.6-0.7
				c0.2,0,0.6,0.2,0.7,0.4c0.9,1.1,1.4,2.4,1.6,3.9c0,0.3-0.1,0.6-0.3,0.8c-1.1,1.1-2.4,1.8-3.8,2.2c-0.1,0-0.3,0-0.4,0
				C338.9,314.6,338.8,314.5,338.6,314.4z"/>
			<path fill="#595757" d="M289.8,278.9c0.7,0.1,1.3,0.1,1.9,0.2c0.6,0.1,0.7,0.5,0.3,1c-0.4,0.4-1,0.7-1.4,1.2
				c-1,0.9-1.9,1.9-2.8,2.9c-0.1,0.1-0.2,0.3-0.3,0.4c-0.4,0.4-0.8,0.3-1-0.2c-0.1-0.2-0.2-0.5-0.2-0.8c0.1-1.1,0.2-2.3,0.3-3.4
				c0.1-0.6,0.5-0.9,1-1C288.4,279,289.2,279,289.8,278.9z"/>
			<path fill="#595757" d="M307.2,274c-1,0.2-1.6,0.4-2.3,0.5c-1.4,0.2-2.8,0.6-4.2,1.2c-0.1,0.1-0.2,0.1-0.4,0.2
				c-0.6,0.2-0.9-0.1-0.9-0.7c0-0.3,0.1-0.6,0.3-0.9c0.5-0.8,1.1-1.7,1.7-2.5c0.4-0.6,1-0.7,1.6-0.5c1.3,0.4,2.4,1,3.5,1.8
				C306.8,273.3,306.9,273.5,307.2,274z"/>
			<path fill="#595757" d="M319.1,335.8c-0.5-0.1-0.9-0.2-1.3-0.4c-0.8-0.4-1.6-0.8-2.3-1.2c-0.2-0.1-0.4-0.3-0.6-0.5
				c-0.4-0.5-0.3-0.8,0.3-0.9c0.5-0.2,1.1-0.3,1.7-0.3c1.4-0.2,2.8-0.6,4-1.2c0.1-0.1,0.2-0.1,0.4-0.2c0.5-0.2,0.9,0.1,0.9,0.6
				c0,0.2,0,0.4-0.1,0.6c-0.5,1.2-1.2,2.3-2.1,3.2C319.6,335.6,319.3,335.7,319.1,335.8z"/>
			<path fill="#595757" d="M286.6,321.6c0.5,0.6,1,1.2,1.5,1.7c1,0.9,1.9,1.9,2.9,2.8c0.1,0.1,0.2,0.1,0.2,0.2
				c0.6,0.5,0.6,1-0.2,1.2c-0.5,0.1-1.1,0.2-1.7,0.2c-0.8,0-1.5-0.2-2.3-0.3c-0.5-0.1-0.8-0.4-1-0.9c-0.4-1.4-0.4-2.7-0.2-4.1
				C285.9,322,286.1,321.7,286.6,321.6z"/>
			<path fill="#595757" d="M335.1,282.4c-0.1,0.7-0.1,1.3-0.2,1.9c-0.1,0.3-0.3,0.6-0.5,0.7c-0.1,0.1-0.5-0.2-0.6-0.4
				c-0.3-0.4-0.6-0.8-0.9-1.2c-0.8-1.2-1.8-2.2-3-3c-0.2-0.1-0.3-0.2-0.4-0.4c-0.2-0.3-0.2-0.7,0.2-0.8c0.2-0.1,0.4-0.2,0.7-0.2
				c1.2-0.1,2.4,0,3.5,0.3c0.6,0.2,0.9,0.5,1,1.1C334.9,281.1,335,281.8,335.1,282.4z"/>
			<path fill="#595757" d="M282.9,291.7c-0.1,0.4-0.1,0.8-0.3,1.1c-0.7,1.7-1.3,3.3-1.5,5.1c0,0.2-0.1,0.4-0.2,0.6
				c-0.2,0.3-0.5,0.4-0.8,0.3c-0.2-0.1-0.4-0.3-0.5-0.5c-0.8-1.1-1.4-2.3-1.6-3.6c0-0.3,0.1-0.7,0.3-0.9c1-1.1,2.3-1.8,3.8-2.3
				c0.1,0,0.3,0,0.4,0C282.6,291.6,282.7,291.6,282.9,291.7z"/>
			<path fill="#595757" d="M277.8,311.3c0-0.2,0.1-0.3,0.1-0.5c0.3-1.3,0.9-2.5,1.6-3.6c0.2-0.2,0.5-0.5,0.7-0.4
				c0.2,0,0.4,0.4,0.5,0.7c0.1,0.4,0.2,0.9,0.3,1.4c0.3,1.4,0.8,2.8,1.4,4.1c0.1,0.3,0.2,0.7,0.1,0.9c-0.1,0.2-0.6,0.3-0.9,0.2
				c-1.4-0.4-2.6-1.2-3.6-2.2C277.9,311.7,277.8,311.5,277.8,311.3z"/>
			<path fill="#595757" d="M332,327.8c-0.7,0-1.2,0-1.7-0.1c-0.3,0-0.6-0.2-0.7-0.5c-0.1-0.1,0.1-0.5,0.3-0.7c0.4-0.4,0.8-0.7,1.2-1
				c1.1-0.9,2.1-1.9,2.9-3.1c0.1-0.2,0.2-0.3,0.4-0.5c0.3-0.2,0.7-0.2,0.8,0.2c0.1,0.2,0.2,0.5,0.2,0.8c0,1.2-0.1,2.4-0.2,3.5
				c-0.1,0.6-0.5,0.9-1,1C333.4,327.7,332.7,327.7,332,327.8z"/>
			<path fill="#595757" d="M299.3,352.5c0.9,0.2,1.8,0.3,2.8,0.5c-0.1,1.9-0.5,3.8-0.8,5.8c-1.2-0.2-2.2-0.4-3.3-0.7
				C297.9,357.4,298.6,354.2,299.3,352.5z"/>
			<path fill="#595757" d="M266.4,337.8c1.6-1.1,3.1-2.2,4.7-3.3c0.6,0.8,1.2,1.4,1.8,2.2c-1.3,1.4-2.6,2.7-4,4.1
				C268.1,339.8,267.3,338.8,266.4,337.8z"/>
			<path fill="#595757" d="M260.3,302.4c0,1.2,0,2.2,0,3.4c-1.8,0.1-3.6,0.2-5.5,0.3c0-1.2,0-2.3,0-3.5
				C256.6,302.5,258.4,302.4,260.3,302.4z"/>
			<path fill="#595757" d="M352.9,274.7c1.5-1.1,2.9-2.1,4.4-3.2c0.7,1.1,1.4,2.2,2.1,3.4c-1.7,0.8-3.2,1.6-4.9,2.4
				C354,276.5,353.5,275.6,352.9,274.7z"/>
			<path fill="#595757" d="M334.2,354.7c-1.1,0.5-2.2,0.9-3.3,1.4c-0.7-1.9-1.3-3.6-2-5.5c0.9-0.4,1.7-0.7,2.7-1.1
				C332.4,351.2,333.3,352.9,334.2,354.7z"/>
			<path fill="#595757" d="M356.7,325.2c0.4-0.9,0.8-1.8,1.2-2.8c1.7,0.8,3.4,1.5,5.1,2.3c-0.5,1.2-1,2.2-1.5,3.4
				C359.9,327.1,358.4,326.2,356.7,325.2z"/>
			<path fill="#595757" d="M286.7,258.7c-0.9,0.5-1.7,1-2.6,1.6c-1.1-1.4-2.1-2.9-3.3-4.4c1.1-0.7,2.1-1.3,3.3-1.9
				C285,255.6,285.8,257.1,286.7,258.7z"/>
			<path fill="#595757" d="M259.9,279.8c0.6-1.2,1.1-2.2,1.7-3.3c1.6,1,3.2,1.9,4.8,2.8c-0.5,0.9-0.9,1.8-1.4,2.7
				C263.3,281.2,261.6,280.5,259.9,279.8z"/>
			<path fill="#595757" d="M308.7,353.8c1,0,1.8,0,2.8,0c0.2,1.9,0.4,3.8,0.6,5.7c-1.2,0-2.3,0-3.5,0
				C308.5,357.7,308.7,355.8,308.7,353.8z"/>
			<path fill="#595757" d="M345.6,266.2c-0.8-0.7-1.6-1.4-2.5-2.2c1.2-1.4,2.3-2.7,3.5-4.1c0.9,0.7,1.7,1.4,2.6,2.2
				C347.9,263.4,346.8,264.8,345.6,266.2z"/>
			<path fill="#595757" d="M281.4,344.3c0.8,0.5,1.5,1,2.4,1.6c-0.9,1.7-1.9,3.3-2.8,5.1c-1-0.6-1.8-1.2-2.8-1.9
				C279.1,347.5,280.2,346,281.4,344.3z"/>
			<path fill="#595757" d="M329,356.8c-1.2,0.4-2.2,0.7-3.3,1c-0.5-1.9-1-3.7-1.5-5.6c0.8-0.3,1.6-0.5,2.6-0.8
				C327.7,353,328.2,354.9,329,356.8z"/>
			<path fill="#595757" d="M333.5,257.8c-1-0.5-1.9-0.9-2.9-1.3c0.5-1.7,1-3.4,1.6-5.2c1.1,0.5,2.1,0.9,3.3,1.4
				C334.8,254.4,334.2,256.1,333.5,257.8z"/>
			<path fill="#595757" d="M319.3,353.2c1-0.2,1.8-0.3,2.8-0.5c0.5,1.9,1,3.6,1.6,5.5c-1.1,0.4-2.2,0.6-3.3,0.7
				C320,356.9,319.6,355.1,319.3,353.2z"/>
			<path fill="#595757" d="M355.3,338.1c-0.8,1-1.6,1.9-2.4,2.9c-1.3-1.4-2.6-2.7-3.9-4.1c0.6-0.7,1.1-1.3,1.7-2
				C352.1,335.9,353.6,337,355.3,338.1z"/>
			<path fill="#595757" d="M254.8,300.6c0.1-1.2,0.2-2.4,0.3-3.6c1.9,0.2,3.6,0.4,5.5,0.6c-0.1,1-0.1,1.8-0.2,2.8
				C258.5,300.5,256.7,300.5,254.8,300.6z"/>
			<path fill="#595757" d="M262.6,288c-0.3,1-0.6,2-0.8,3c-1.8-0.4-3.6-0.7-5.5-1.1c0.3-1.1,0.6-2.1,0.9-3.3
				C259.1,287.1,260.8,287.5,262.6,288z"/>
			<path fill="#595757" d="M305.3,252.9c-1,0.1-1.8,0.3-2.7,0.4c-0.5-1.7-1-3.4-1.5-5.3c1.3-0.2,2.5-0.4,3.8-0.6
				C305,249.3,305.2,251,305.3,252.9z"/>
			<path fill="#595757" d="M290,349.3c0.9,0.4,1.7,0.7,2.6,1.1c-0.6,1.8-1.3,3.6-1.9,5.4c-1.1-0.3-2-0.8-3.1-1.3
				C288.3,352.8,289.1,351.1,290,349.3z"/>
			<path fill="#595757" d="M347.4,346.3c-0.9,0.7-1.7,1.4-2.6,2c-1.2-1.5-2.4-3-3.6-4.5c0.7-0.6,1.5-1.2,2.3-1.8
				C344.8,343.5,346,344.8,347.4,346.3z"/>
			<path fill="#595757" d="M259.9,327c-0.5-1.1-0.9-2.1-1.3-3.2c1.8-0.7,3.5-1.3,5.3-2c0.4,0.8,0.7,1.7,1.1,2.6
				C263.3,325.2,261.6,326.1,259.9,327z"/>
			<path fill="#595757" d="M295.8,357.6c-1.1-0.4-2.1-0.7-3.2-1c0.7-1.9,1.3-3.6,2-5.5c0.9,0.3,1.7,0.5,2.5,0.8
				C296.7,353.8,296.3,355.7,295.8,357.6z"/>
			<path fill="#595757" d="M324,254.3c-1-0.2-1.8-0.4-2.8-0.6c0.1-1.8,0.5-3.5,0.8-5.4c1.2,0.3,2.3,0.5,3.4,0.8
				C325,250.8,324.5,252.5,324,254.3z"/>
			<path fill="#595757" d="M293,255.9c-0.8-1.7-1.5-3.3-2.3-5c1.1-0.4,2.1-0.7,3.2-1.1c0.7,1.7,1.3,3.4,2,5.1
				C294.9,255.2,294,255.5,293,255.9z"/>
			<path fill="#595757" d="M285.6,347c0.8,0.5,1.6,0.9,2.4,1.3c-0.8,1.8-1.6,3.5-2.4,5.3c-1-0.5-1.9-1-2.8-1.5
				C283.7,350.4,284.6,348.8,285.6,347z"/>
			<path fill="#595757" d="M261.2,312.7c0.2,0.9,0.4,1.7,0.5,2.5c-0.4,0.1-0.6,0.2-0.9,0.3c-1.4,0.4-2.9,0.8-4.5,1.3
				c-0.2-1.1-0.5-2.2-0.7-3.4C257.5,313.1,259.3,312.9,261.2,312.7z"/>
			<path fill="#595757" d="M256.8,318.7c1.9-0.5,3.6-1,5.4-1.5c0.3,0.8,0.5,1.7,0.8,2.6c-1.8,0.7-3.5,1.3-5.3,2
				C257.5,320.8,257.2,319.8,256.8,318.7z"/>
			<path fill="#595757" d="M361.3,297.3c-0.1-1-0.3-1.9-0.4-2.8c1.8-0.3,3.5-0.5,5.3-0.8c0.3,1.1,0.5,2.2,0.5,3.3
				C365,297.1,363.2,297.2,361.3,297.3z"/>
			<path fill="#595757" d="M255.3,311.4c-0.1-1.1-0.2-2.1-0.3-3.2c1.9-0.1,3.7-0.2,5.6-0.3c0.1,0.8,0.2,1.7,0.4,2.6
				C259,310.9,257.2,311.1,255.3,311.4z"/>
			<path fill="#595757" d="M316.5,247.4c1.2,0.2,2.3,0.3,3.4,0.4c-0.3,1.8-0.6,3.5-0.9,5.4c-0.9-0.1-1.8-0.2-2.8-0.3
				C316.2,251.1,316.5,249.3,316.5,247.4z"/>
			<path fill="#595757" d="M335.4,258.8c0.7-1.7,1.3-3.4,2-5.1c1,0.6,2,1.1,3.1,1.7c-0.9,1.6-1.8,3.1-2.7,4.7
				C337,259.7,336.2,259.3,335.4,258.8z"/>
			<path fill="#595757" d="M268.8,266.2c0.8-0.8,1.5-1.6,2.3-2.4c1.4,1.2,2.7,2.4,4.1,3.7c-0.6,0.7-1.3,1.4-2,2.1
				C271.7,268.4,270.3,267.3,268.8,266.2z"/>
			<path fill="#595757" d="M288.6,257.8c-0.9-1.6-1.8-3.1-2.8-4.7c1-0.5,2-0.9,3-1.4c0.8,1.7,1.5,3.3,2.3,5
				C290.3,257,289.4,257.4,288.6,257.8z"/>
			<path fill="#595757" d="M271.8,271.1c-0.6,0.7-1.1,1.4-1.7,2.2c-1.6-1-3.1-1.9-4.7-2.9c0.7-0.9,1.3-1.7,2-2.6
				C268.9,268.9,270.3,270,271.8,271.1z"/>
			<path fill="#595757" d="M340.5,351.4c-1-1.7-2-3.3-3-4.9c0.7-0.5,1.4-0.9,2.1-1.3c1.2,1.5,2.4,2.9,3.7,4.5
				C342.3,350.1,341.4,350.7,340.5,351.4z"/>
			<path fill="#595757" d="M360.7,313.5c1.9,0.4,3.6,0.8,5.4,1.3c-0.2,1.1-0.5,2.1-0.7,3.2c-1.8-0.7-3.5-1.3-5.3-1.9
				C360.3,315.2,360.4,314.4,360.7,313.5z"/>
			<path fill="#595757" d="M333.4,348.6c0.8-0.4,1.5-0.8,2.2-1.1c1,1.6,2,3.2,3.1,4.8c-0.9,0.6-1.8,1-2.8,1.5
				C335.1,352.1,334.3,350.4,333.4,348.6z"/>
			<path fill="#595757" d="M348.9,269.5c-0.6-0.7-1.2-1.3-1.8-2c1.2-1.4,2.3-2.7,3.5-4c0.8,0.8,1.6,1.6,2.3,2.3
				C351.5,267.1,350.2,268.3,348.9,269.5z"/>
			<path fill="#595757" d="M264.2,272c1.6,1,3.1,2,4.6,3c-0.5,0.8-1,1.6-1.5,2.4c-1.6-0.9-3.1-1.8-4.8-2.8
				C263.1,273.8,263.7,272.9,264.2,272z"/>
			<path fill="#595757" d="M341.4,262.7c-0.7-0.5-1.3-0.9-1.9-1.4c0.7-1.7,1.6-3.2,2.6-4.8c1,0.7,1.9,1.4,2.9,2.1
				C343.8,260,342.7,261.3,341.4,262.7z"/>
			<path fill="#595757" d="M354.2,267.3c0.7,0.9,1.4,1.8,2.1,2.7c-1.5,1.1-2.9,2.1-4.4,3.1c-0.5-0.6-1-1.3-1.6-1.9
				C351.4,269.7,352.8,268.7,354.2,267.3z"/>
			<path fill="#595757" d="M295.9,249.1c1.1-0.3,2.1-0.5,3.2-0.8c0.5,1.8,0.9,3.5,1.4,5.3c-0.9,0.2-1.7,0.4-2.6,0.6
				C297.3,252.6,296.6,250.9,295.9,249.1z"/>
			<path fill="#595757" d="M360.5,292.4c-0.2-0.9-0.4-1.7-0.7-2.6c1.7-0.5,3.5-0.9,5.3-1.3c0.3,1,0.5,2,0.8,3.1
				C364.1,291.8,362.4,292.1,360.5,292.4z"/>
			<path fill="#595757" d="M265.8,326.2c0.4,0.8,0.8,1.4,1.2,2.2c-1.5,1.1-3.2,1.9-4.8,3.1c-0.6-0.9-1.1-1.8-1.5-2.8
				C262.5,327.9,264.1,327.1,265.8,326.2z"/>
			<path fill="#595757" d="M354.5,329.3c0.5-0.8,0.9-1.5,1.3-2.3c1.6,1,3.2,1.9,4.9,2.8c-0.5,0.9-1,1.8-1.6,2.7
				C357.5,331.5,356,330.4,354.5,329.3z"/>
			<path fill="#595757" d="M304.3,353.4c0.8,0.1,1.5,0.2,2.2,0.2c0.1,1.9-0.1,3.8,0,5.9c-1.1-0.1-2.1-0.2-3.1-0.3
				C303.7,357.2,304,355.4,304.3,353.4z"/>
			<path fill="#595757" d="M272.6,344.6c-0.7-0.8-1.4-1.5-2.2-2.4c1.3-1.3,2.6-2.6,4-4c0.6,0.7,1.1,1.3,1.7,2
				C275,341.5,273.8,343,272.6,344.6z"/>
			<path fill="#595757" d="M257.9,284.7c0.4-1.1,0.8-2.1,1.2-3c0.8,0.1,3.9,1.4,5.1,2.2c-0.3,0.7-0.5,1.4-0.8,2.2
				C261.5,285.6,259.8,285.2,257.9,284.7z"/>
			<path fill="#595757" d="M274.1,345.9c1.2-1.5,2.4-3,3.6-4.5c0.7,0.6,1.4,1.1,2,1.6c-1.1,1.6-2.2,3.1-3.3,4.7
				C275.5,347.3,274.9,346.5,274.1,345.9z"/>
			<path fill="#595757" d="M327.3,249.6c1.1,0.4,2,0.7,3,1c-0.6,1.7-1.1,3.4-1.7,5.2c-0.9-0.3-1.7-0.6-2.6-0.9
				C326.5,253.1,326.9,251.4,327.3,249.6z"/>
			<path fill="#595757" d="M361.7,306.7c0-0.9,0-1.7,0-2.5c1.8,0.1,3.6,0.1,5.4,0.2c0,1.1,0,2.1,0,3.2
				C365.2,307.4,363.4,307.2,361.7,306.7z"/>
			<path fill="#595757" d="M367.1,299.1c0,1.1,0,2,0,3c-0.7,0.2-4.4,0-5.4-0.3c0-0.7-0.1-1.5-0.1-2.4
				C363.4,299.2,365.2,299.4,367.1,299.1z"/>
			<path fill="#595757" d="M272.6,262.3c0.8-0.7,1.6-1.4,2.4-2.1c1.3,1.4,2.5,2.7,3.7,4c-0.7,0.6-1.3,1.1-2,1.7
				C275.3,264.7,274,263.5,272.6,262.3z"/>
			<path fill="#595757" d="M255.9,292c1.9,0.4,3.6,0.7,5.4,1.1c-0.2,0.9-0.3,1.6-0.4,2.5c-1.8-0.2-3.6-0.4-5.4-0.6
				C255.4,293.9,255.7,293,255.9,292z"/>
			<path fill="#595757" d="M363.8,322.9c-1.8-0.8-3.4-1.6-5.1-2.4c0.2-0.7,0.5-1.5,0.8-2.3c1.8,0.6,3.5,1.2,5.3,1.8
				C364.4,320.9,364.1,321.9,363.8,322.9z"/>
			<path fill="#595757" d="M361.4,309c1.9,0.3,3.7,0.5,5.5,0.8c-0.1,1-0.3,1.9-0.4,3c-1.8-0.4-3.6-0.8-5.4-1.3
				C361.2,310.6,361.2,309.9,361.4,309z"/>
			<path fill="#595757" d="M356.6,336.4c-1.6-1.1-3.1-2.1-4.6-3.2c0.5-0.7,1-1.4,1.5-2.2c1.6,1.1,3.1,2.1,4.7,3.2
				C357.6,334.9,357.1,335.6,356.6,336.4z"/>
			<path fill="#595757" d="M276.6,258.9c0.9-0.6,1.7-1.2,2.5-1.8c1.1,1.5,2.1,2.9,3.2,4.4c-0.6,0.5-1.2,0.9-1.9,1.4
				C279.1,261.6,277.9,260.3,276.6,258.9z"/>
			<path fill="#595757" d="M309.8,252.6c-0.9,0.1-1.7,0.1-2.6,0.2c-0.2-1.8-0.3-3.6-0.4-5.4c0.9-0.1,1.8-0.1,2.8-0.2
				C309.7,249,309.8,250.7,309.8,252.6z"/>
			<path fill="#595757" d="M314.1,252.7c-0.8,0-1.4-0.1-2.2-0.1c-0.1-1.8-0.3-3.6-0.4-5.5c1.1,0.1,2,0.1,3.1,0.2
				C314.4,249.1,314.2,250.8,314.1,252.7z"/>
			<path fill="#595757" d="M330,334c0.8,0,1.3,0.5,1.2,1.3c0,0.7-0.6,1.2-1.3,1.2c-0.7,0-1.2-0.5-1.2-1.2
				C328.7,334.5,329.2,334,330,334z"/>
			<path fill="#595757" d="M279.8,284.5c0,0.7-0.6,1.2-1.2,1.3c-0.7,0-1.2-0.6-1.2-1.2c0-0.7,0.6-1.2,1.2-1.3
				C279.3,283.3,279.8,283.9,279.8,284.5z"/>
			<path fill="#595757" d="M342.8,283.2c0.7,0,1.2,0.5,1.2,1.2c0,0.7-0.5,1.2-1.2,1.3c-0.6,0-1.2-0.6-1.2-1.2
				C341.6,283.7,342.1,283.2,342.8,283.2z"/>
			<path fill="#595757" d="M329,272.3c-0.7,0-1.3-0.5-1.3-1.2c0-0.7,0.5-1.2,1.2-1.3c0.7,0,1.2,0.5,1.3,1.2
				C330.2,271.7,329.7,272.2,329,272.3z"/>
			<path fill="#595757" d="M292.3,272.1c-0.7,0-1.2-0.5-1.2-1.2c0-0.7,0.6-1.2,1.2-1.2c0.7,0,1.2,0.6,1.2,1.3
				C293.5,271.6,293,272.1,292.3,272.1z"/>
			<path fill="#595757" d="M311.9,266.1c0,0.7-0.6,1.2-1.2,1.2c-0.7,0-1.2-0.6-1.2-1.3c0-0.7,0.6-1.2,1.2-1.2
				C311.4,264.9,311.9,265.4,311.9,266.1z"/>
			<path fill="#595757" d="M274.6,303.1c0,0.7-0.5,1.2-1.2,1.3c-0.7,0-1.2-0.5-1.2-1.2c0-0.7,0.5-1.2,1.2-1.2
				C274.1,301.9,274.6,302.4,274.6,303.1z"/>
			<path fill="#595757" d="M347.9,301.9c0.7,0,1.2,0.5,1.2,1.3c0,0.7-0.6,1.2-1.3,1.2c-0.7,0-1.2-0.6-1.2-1.3
				C346.7,302.4,347.2,301.9,347.9,301.9z"/>
			<path fill="#595757" d="M343.1,320.6c0.7,0,1.2,0.6,1.2,1.2c0,0.7-0.5,1.2-1.2,1.2c-0.7,0-1.2-0.5-1.2-1.2
				C341.9,321.2,342.5,320.6,343.1,320.6z"/>
			<path fill="#595757" d="M291.3,336.5c-0.7,0-1.2-0.5-1.2-1.2c0-0.7,0.5-1.2,1.2-1.2c0.7,0,1.2,0.5,1.2,1.2
				C292.5,335.9,291.9,336.5,291.3,336.5z"/>
			<path fill="#595757" d="M278.1,322.9c-0.7-0.1-1.2-0.7-1.1-1.3c0.1-0.7,0.7-1.2,1.3-1.1c0.7,0.1,1.1,0.6,1.1,1.3
				C279.3,322.5,278.8,323,278.1,322.9z"/>
			<path fill="#595757" d="M311.9,340.6c0,0.7-0.5,1.2-1.2,1.2c-0.7,0-1.2-0.6-1.2-1.2c0-0.6,0.6-1.2,1.3-1.2
				C311.4,339.4,311.9,339.9,311.9,340.6z"/>
			<path fill="#595757" d="M318.9,337.4c0-0.6,0.5-1,1-1.1c0.6,0,1.1,0.5,1.1,1.1c0,0.6-0.5,1-1,1
				C319.4,338.5,318.9,338,318.9,337.4z"/>
			<path fill="#595757" d="M302.7,269.5c0,0.6-0.5,1.1-1.1,1.1c-0.6,0-1-0.5-1-1c0-0.6,0.5-1.1,1.1-1.1
				C302.2,268.5,302.7,268.9,302.7,269.5z"/>
			<path fill="#595757" d="M285.3,327.4c0.6,0,1,0.4,1.1,1c0,0.6-0.4,1.1-1,1.1c-0.5,0-1-0.5-1.1-1
				C284.2,327.9,284.7,327.4,285.3,327.4z"/>
			<path fill="#595757" d="M277.4,293.9c0,0.6-0.5,1.1-1.1,1.1c-0.5,0-1-0.5-1-1.1c0-0.6,0.5-1.1,1.1-1.1
				C276.9,292.8,277.4,293.3,277.4,293.9z"/>
			<path fill="#595757" d="M276.2,313.3c-0.6,0-1-0.5-1.1-1c0-0.6,0.5-1.1,1.1-1.1c0.6,0,1,0.5,1.1,1
				C277.3,312.8,276.8,313.3,276.2,313.3z"/>
			<path fill="#595757" d="M345.2,311.3c0.5,0,1,0.4,1.1,1c0,0.6-0.4,1.1-1,1.2c-0.5,0-1-0.4-1.1-1
				C344.1,311.9,344.6,311.3,345.2,311.3z"/>
			<path fill="#595757" d="M345.1,294.8c-0.6,0-1.1-0.4-1.1-1c0-0.6,0.4-1,1-1c0.6,0,1.1,0.4,1.1,1
				C346.2,294.4,345.7,294.8,345.1,294.8z"/>
			<path fill="#595757" d="M302.5,337.6c0,0.6-0.5,1-1,1c-0.6,0-1.1-0.5-1.1-1.1c0-0.6,0.5-1,1-1C302.1,336.5,302.6,337,302.5,337.6
				z"/>
			<path fill="#595757" d="M337.3,328.3c0,0.6-0.5,1-1,1c-0.6,0-1.1-0.5-1-1.1c0-0.6,0.5-1,1-1C336.8,327.2,337.3,327.7,337.3,328.3
				z"/>
			<path fill="#595757" d="M320.8,269.4c0,0.6-0.5,1.1-1,1.1c-0.5,0-1-0.5-1-1c0-0.6,0.5-1.1,1.1-1.1
				C320.4,268.4,320.8,268.9,320.8,269.4z"/>
			<path fill="#595757" d="M285.6,277.3c0.6,0,1.1,0.5,1.1,1.1c0,0.6-0.5,1-1,1c-0.6,0-1.1-0.5-1.1-1.1
				C284.6,277.7,285,277.3,285.6,277.3z"/>
			<path fill="#595757" d="M335.7,277.3c0.6,0,1,0.5,1,1c0,0.6-0.5,1.1-1.1,1.1c-0.6,0-1-0.4-1-1
				C334.6,277.8,335.1,277.3,335.7,277.3z"/>
			<path fill="#595757" d="M356.2,315.2c0,0.5-0.5,1.1-1.1,1.1c-0.5,0-1-0.4-1-0.9c0-0.6,0.5-1.1,1.1-1.1
				C355.8,314.3,356.2,314.6,356.2,315.2z"/>
			<path fill="#595757" d="M278.4,270.1c0.5,0,1,0.5,0.9,1c0,0.5-0.6,1-1.1,1c-0.5,0-0.9-0.5-0.9-1
				C277.4,270.5,277.8,270,278.4,270.1z"/>
			<path fill="#595757" d="M279.5,336c0,0.5-0.4,1-0.9,1c-0.5,0-1-0.4-1-0.9c0-0.6,0.4-1.1,1-1.1C279,335.1,279.5,335.6,279.5,336z"
				/>
			<path fill="#595757" d="M322,347.1c0.5,0,1,0.4,1,0.9c0,0.5-0.5,1-1,1c-0.5,0-1-0.5-0.9-1C321.1,347.5,321.5,347.1,322,347.1z"/>
			<path fill="#595757" d="M266.6,316.1c-0.5,0-0.9-0.4-0.9-1c0-0.5,0.4-1,0.9-1c0.5,0,0.9,0.4,0.9,1
				C267.6,315.7,267.1,316.1,266.6,316.1z"/>
			<path fill="#595757" d="M322.2,257.8c0.5,0,1,0.4,1,0.9c0,0.5-0.5,1-1,1c-0.5,0-0.9-0.4-0.9-0.9
				C321.3,258.2,321.7,257.8,322.2,257.8z"/>
			<path fill="#595757" d="M299.3,260c-0.5,0-1-0.5-1-1c0-0.5,0.4-0.9,0.9-0.9c0.6,0,1.1,0.5,1,1C300.2,259.6,299.7,260,299.3,260z"
				/>
			<path fill="#595757" d="M343.8,336.3c0,0.5-0.4,0.8-1,0.8c-0.6,0-0.9-0.5-0.9-1c0-0.5,0.4-0.8,1-0.8
				C343.5,335.3,343.8,335.7,343.8,336.3z"/>
			<path fill="#595757" d="M266.6,292.7c-0.5,0-0.9-0.4-0.9-0.9c0-0.5,0.4-1,0.9-0.9c0.5,0,0.9,0.4,0.9,0.9
				C267.5,292.3,267.1,292.8,266.6,292.7z"/>
			<path fill="#595757" d="M354.8,291.1c0.5,0,0.9,0.3,0.9,0.8c0,0.5-0.3,0.9-0.8,0.9c-0.5,0-0.9-0.4-0.9-0.9
				C354,291.6,354.4,291.1,354.8,291.1z"/>
			<path fill="#595757" d="M342.3,271c0-0.5,0.4-0.9,0.9-0.9c0.5,0,0.9,0.4,0.9,0.9c0,0.5-0.4,0.9-0.9,0.9
				C342.7,271.9,342.3,271.5,342.3,271z"/>
			<path fill="#595757" d="M299.7,347.9c0,0.5-0.4,0.9-0.9,0.9c-0.5,0-0.9-0.4-0.9-0.9c0-0.5,0.5-0.9,0.9-0.9
				C299.4,347,299.7,347.4,299.7,347.9z"/>
			<path fill="#595757" d="M301.2,303.6c0-1.8,0-3.5,0-5.3c0-1.4,0.4-1.9,1.8-1.9c1.3-0.1,2.7-0.1,4,0.2c2.3,0.5,3.2,2.3,2.7,4.8
				c-0.1,0.6-0.5,1.3-1,1.7c-0.7,0.6-0.6,1.2-0.3,1.9c0.6,1.5,1.3,3,2,4.4c0.4,0.9,0.1,1.5-1,1.6c-0.8,0.1-1.4-0.3-1.7-1.1
				c-0.4-1.1-0.8-2.1-1.3-3.2c-0.2-0.6-0.6-1.1-0.9-1.6c-0.2-0.3-0.5-0.5-0.9-0.3c-0.2,0.2-0.5,0.5-0.5,0.8c-0.1,0.8,0,1.7,0,2.5
				c0,0.4,0,0.8,0,1.2c0.1,1-0.5,1.3-1.5,1.4c-0.7,0.1-1.4-0.6-1.4-1.4C301.1,307.4,301.2,305.5,301.2,303.6
				C301.2,303.6,301.2,303.6,301.2,303.6z M307.2,300.3c0-1-0.4-1.5-1.4-1.7c-0.5-0.1-0.9,0-1.4,0c-0.5,0.1-0.7,0.4-0.6,0.9
				c0.1,0.5,0.1,1.1,0.1,1.6c0,0.5,0.3,0.8,0.8,0.9c0.4,0,0.8,0,1.2-0.1C306.9,301.7,307.2,301.3,307.2,300.3z"/>
			<path fill="#595757" d="M315.1,298.7c0,1,0,2,0,3.1c1,0,1.9,0,2.8,0c0.4,0,0.8,0,1.2,0.1c0.8,0.1,1.1,0.6,1.1,1.3
				c0,0.7-0.4,1.1-1.2,1.1c-0.8,0.1-1.6,0-2.3,0c-0.5,0-1.1,0-1.7,0c0,1.3,0,2.5,0,3.8c0.3,0,0.7,0.1,1,0.1c1,0,2,0,2.9,0
				c0.8,0,1.1,0.3,1.3,0.9c0.2,0.8-0.3,1.5-1.1,1.5c-1.9,0-3.9,0-5.8,0c-0.7,0-1.1-0.3-1.2-1c-0.1-0.3-0.1-0.5-0.1-0.8
				c0-3,0-6.1,0-9.1c0-0.7,0.1-1.5,0.2-2.2c0.1-0.9,0.3-1.1,1.2-1.1c1.9,0,3.8,0,5.7,0c0.8,0,1.3,0.5,1.2,1.2c0,0.6-0.5,1-1.3,1
				c-0.9,0-1.9,0-2.8,0C315.9,298.7,315.5,298.7,315.1,298.7z"/>
			<path fill="#595757" d="M322.4,303.6c0.1-1.6,0.2-3.4,1-5c1-1.9,2.9-2.8,5-2.3c0.9,0.2,1.7,0.8,2.1,1.6c1.5,3.6,1.9,7.2,0,10.9
				c-0.8,1.5-2,2.2-3.6,2.1c-1.7,0-2.9-0.7-3.6-2.3C322.6,307.1,322.4,305.4,322.4,303.6z M329.7,303.5c0,0-0.1,0-0.1,0
				c0-0.4,0.1-0.9,0-1.3c-0.1-0.8-0.3-1.7-0.5-2.5c-0.3-0.8-0.9-1.3-1.8-1.3c-0.9,0-1.5,0.4-1.9,1.1c-0.2,0.4-0.4,0.9-0.5,1.3
				c-0.3,1.5-0.3,3-0.1,4.4c0.2,0.8,0.4,1.6,0.7,2.3c0.6,1.2,2,1.3,2.9,0.4c0.4-0.5,0.8-1.2,0.9-1.9
				C329.5,305.3,329.5,304.4,329.7,303.5z"/>
			<path fill="#595757" d="M289.9,303.7c-0.1-1.9,0.2-3.6,1.1-5.2c1.2-2.3,3.8-3,6-1.6c0.6,0.4,1,1,1.3,1.6c1,2.6,1.1,5.2,0.5,7.9
				c-0.2,1-0.5,2-1.1,2.8c-0.9,1.3-2.2,1.9-3.8,1.7c-1.6-0.2-2.7-1.2-3.3-2.7C290,306.7,289.8,305.2,289.9,303.7z M297,303.6
				c-0.2-1.2-0.3-2.4-0.5-3.6c-0.1-0.8-0.7-1.2-1.4-1.4c-1.4-0.4-2.3,0.3-2.7,1.6c-0.6,2.2-0.7,4.4,0,6.6c0.3,1.1,1,1.6,2.1,1.6
				c1,0,1.7-0.5,2-1.6C296.7,305.8,296.8,304.7,297,303.6z"/>
			<path fill="#595757" d="M310.6,294.2c-1.3,0-2.6,0-4,0c-0.3,0-0.8-0.2-0.8-0.3c-0.1-0.3,0.1-0.7,0.3-1c0.9-1,2-1.5,3.3-1.8
				c1.9-0.3,3.7-0.1,5.3,1.1c0.4,0.3,0.6,0.7,0.9,1.1c0.2,0.4,0.1,0.7-0.3,0.8c-0.3,0.1-0.6,0.1-0.9,0.1
				C313.1,294.1,311.9,294.1,310.6,294.2C310.6,294.1,310.6,294.2,310.6,294.2z"/>
			<path fill="#595757" d="M311,313.5c1.3,0,2.6,0,3.8,0c0.4,0,0.8,0,0.9,0.4c0.1,0.4-0.2,0.7-0.5,0.9c-2.2,1.3-4.5,1.7-6.9,0.8
				c-0.6-0.2-1.2-0.5-1.8-0.9c-0.2-0.1-0.5-0.5-0.5-0.8c0-0.4,0.4-0.4,0.8-0.4C308.2,313.5,309.6,313.5,311,313.5
				C311,313.5,311,313.5,311,313.5z"/>
		</g>
		<path fill="#595757" d="M357.8,304.1c-0.1,1.4-0.3,3.3-0.5,5.2c0,0.2-0.1,0.5-0.2,0.7c-0.2,0.4-0.7,0.6-1.1,0.5
			c-0.5-0.1-0.7-0.5-0.6-0.9c0.1-0.7,0.2-1.5,0.3-2.2c0.3-2.3,0.3-4.6,0-6.9c-0.1-1-0.3-1.9-0.4-2.9c-0.1-0.7,0.2-1.2,0.8-1.3
			c0.6-0.1,1,0.2,1.2,1c0.2,1,0.3,1.9,0.4,2.9C357.6,301.2,357.7,302.4,357.8,304.1z"/>
	</g>
</g>
</svg>
