<svg xmlns="http://www.w3.org/2000/svg" viewBox="0 0 1974 2011" version="1.0" width="35" height="35" class="color-picker">
<g fill="currentColor" transform="translate(0,2600) scale(0.10000000149011612,-0.10000000149011612) " id="svg_1" class="" opacity="1">
    <path d="M10153.33345413208,25933.999755859633 c-78,-12 -411,-82 -417,-87 c-1,-1 67,-2 150,-3 c129,-1 167,-5 247,-26 c60,-17 84,-26 65,-27 c-17,-1 -63,-10 -103,-21 c-39,-11 -100,-20 -134,-20 c-58,1 -61,2 -44,15 c26,19 26,19 -79,-13 c-81,-25 -93,-26 -118,-14 c-34,17 -132,32 -208,32 c-67,0 -119,9 -119,21 c0,5 17,17 38,28 c43,23 34,25 -38,10 c-30,-6 -65,-23 -83,-39 c-41,-35 -71,-50 -127,-66 c-39,-11 -13,-12 203,-13 l248,-1 l-3,-47 c-3,-47 -4,-47 -48,-61 c-34,-10 -84,-11 -207,-6 l-162,6 l14,-51 c7,-28 10,-51 7,-51 c-4,0 -80,7 -169,16 l-162,17 l-18,-22 c-22,-27 -183,-63 -289,-65 c-69,-1 -72,0 -128,43 c-47,37 -65,44 -99,44 c-49,0 -157,-36 -173,-58 c-13,-18 -116,-64 -217,-98 c-89,-30 -271,-71 -289,-64 c-7,2 10,16 37,30 c58,30 46,33 -57,13 c-111,-22 -219,-59 -489,-167 c-135,-54 -284,-108 -330,-119 c-187,-44 -247,-8 -123,74 c35,23 61,49 69,69 c12,30 19,34 82,44 c149,26 250,71 393,173 c149,107 249,150 440,190 c118,25 126,25 157,0 c46,-36 87,-28 318,63 c207,82 302,93 369,44 c17,-13 13,-15 -43,-21 c-131,-15 -321,-85 -436,-161 c-30,-20 -55,-44 -55,-52 c0,-9 6,-13 14,-10 c167,64 622,136 786,123 c49,-4 68,-3 55,3 c-11,5 -39,10 -63,10 c-24,1 -56,8 -72,16 c-35,18 -70,61 -70,87 c0,26 27,77 58,111 c14,15 23,27 19,27 c-4,0 -68,-11 -142,-25 c-74,-13 -304,-47 -512,-75 c-208,-28 -455,-64 -550,-80 c-228,-39 -508,-104 -518,-120 c-3,-4 15,-26 40,-49 c25,-23 45,-44 45,-46 c0,-9 -160,-85 -180,-85 c-19,0 -20,4 -14,54 c6,48 5,54 -15,59 c-12,3 -47,-1 -79,-8 c-52,-12 -63,-20 -127,-89 c-38,-42 -76,-76 -84,-76 c-13,0 -85,-59 -187,-155 l-49,-46 l40,20 c22,10 58,38 80,61 c45,46 105,68 200,72 c78,4 79,-8 15,-96 l-51,-69 l-82,-22 c-45,-12 -115,-34 -156,-49 c-139,-50 -176,-51 -133,-3 c9,11 -71,-50 -178,-135 c-107,-86 -196,-155 -198,-153 c-8,7 23,53 67,99 l46,49 l-45,-25 c-205,-115 -271,-149 -278,-145 c-9,6 -205,-129 -397,-274 c-145,-109 -322,-262 -347,-301 l-17,-26 l67,24 c70,25 112,30 112,15 c0,-5 -58,-63 -129,-130 c-76,-72 -131,-131 -133,-144 c-4,-27 -68,-51 -110,-42 c-40,9 -78,59 -78,103 c0,47 45,142 99,208 c31,40 50,54 83,62 c58,15 122,57 258,171 c64,53 131,108 150,123 l35,28 l-58,-25 c-79,-34 -143,-77 -262,-174 c-99,-80 -115,-90 -115,-71 c0,19 -42,10 -157,-35 c-63,-25 -121,-45 -129,-45 c-41,0 13,128 79,185 c51,45 301,175 336,175 c24,0 24,0 5,-61 c-9,-26 82,-13 151,21 c33,17 130,82 215,145 c148,109 293,195 328,195 c11,0 5,-10 -18,-30 c-25,-20 11,-5 120,51 c174,90 251,135 327,191 c50,37 91,83 81,93 c-2,3 -101,-57 -219,-131 c-118,-75 -222,-139 -231,-142 c-24,-6 -23,9 3,52 c42,71 -18,77 -118,12 c-69,-44 -265,-146 -282,-146 c-5,0 -7,9 -4,20 c5,18 3,19 -25,9 c-54,-19 -313,-148 -411,-206 c-187,-110 -366,-237 -491,-349 l-65,-58 l3,-90 c2,-62 -5,-144 -22,-256 c-13,-91 -28,-194 -31,-231 l-6,-65 l-217,-180 c-315,-260 -590,-503 -790,-698 c-96,-94 -177,-166 -179,-160 c-9,27 79,185 165,299 c53,69 287,312 317,327 c19,11 19,11 1,-18 c-11,-16 -25,-38 -33,-49 c-27,-39 -12,-35 44,12 c81,69 170,177 232,281 c51,87 54,90 94,95 c36,5 51,15 103,73 c70,76 121,155 130,201 c5,26 2,34 -20,48 c-36,24 -68,13 -99,-34 c-21,-31 -37,-43 -69,-51 c-24,-6 -69,-19 -102,-28 c-57,-17 -58,-18 -62,-56 c-6,-73 -60,-141 -295,-376 c-124,-124 -240,-243 -258,-265 l-32,-40 l16,45 c10,25 41,95 71,157 c63,131 138,219 233,273 c33,19 61,38 61,42 c0,4 -13,14 -30,23 c-17,9 -30,19 -30,24 c0,12 83,79 216,174 c111,78 204,165 204,190 c0,12 -16,0 -121,-95 c-75,-67 -89,-76 -99,-63 c-17,20 -19,18 -190,-175 c-128,-146 -229,-239 -264,-244 c-16,-2 -31,-13 -31,-24 c-2,-23 -146,-285 -193,-351 c-77,-107 -210,-261 -227,-261 c-7,0 -19,-15 -25,-34 c-29,-89 -145,-222 -365,-417 c-220,-196 -306,-299 -290,-348 c14,-46 64,-30 131,41 c23,24 93,108 156,188 c64,80 127,156 142,169 c63,59 30,-19 -58,-135 c-47,-63 -50,-79 -11,-64 c14,5 25,8 25,5 c0,-2 -16,-32 -36,-66 c-47,-80 -100,-132 -172,-168 c-33,-17 -72,-45 -87,-63 c-28,-33 -79,-137 -72,-145 c3,-2 32,22 66,53 c34,31 64,54 67,51 c9,-8 -23,-75 -91,-192 c-86,-149 -125,-233 -128,-281 c-2,-33 1,-39 19,-42 c26,-4 42,17 109,143 c59,109 122,206 170,260 l36,40 l-7,-75 c-4,-48 -3,-71 3,-65 c6,6 69,122 141,259 c144,271 148,285 116,380 c-23,66 -14,113 43,225 l48,95 l55,19 c127,42 258,32 305,-25 c24,-29 34,-68 16,-68 c-4,0 -60,-46 -122,-103 c-154,-138 -166,-147 -205,-147 c-27,0 -34,-4 -34,-20 c0,-10 -21,-77 -46,-147 c-115,-319 -131,-386 -100,-413 c24,-19 0,-54 -58,-82 c-136,-67 -320,-240 -484,-456 c-98,-129 -240,-338 -223,-328 c7,5 11,-2 11,-18 c0,-26 50,-76 76,-76 c22,0 18,-8 -37,-68 c-28,-32 -66,-83 -86,-114 c-20,-32 -40,-55 -46,-51 c-17,10 -2,164 22,219 c58,129 -48,-57 -249,-440 c-116,-220 -125,-236 -130,-205 l-6,34 l-11,-35 c-24,-70 -64,-243 -59,-254 c2,-6 5,-2 5,9 c1,11 23,65 51,120 c51,103 118,185 151,185 c43,0 38,-19 -83,-330 c-89,-228 -123,-346 -133,-467 l-7,-81 l-32,9 c-17,5 -64,9 -104,9 c-64,0 -76,3 -97,25 c-26,25 -33,59 -15,70 c5,3 10,1 10,-6 c0,-7 3,-9 6,-6 c4,4 2,12 -4,19 c-35,43 -47,378 -19,533 c8,44 13,81 12,83 c-9,10 -211,-495 -290,-728 c-110,-319 -122,-350 -134,-350 c-28,0 -28,111 1,313 c19,131 20,159 9,166 c-10,7 11,62 98,252 l111,244 l1,-60 l1,-60 l14,65 c23,105 62,215 134,375 c75,166 104,252 115,337 c5,36 14,63 26,74 c18,16 19,16 19,-7 c-1,-13 -9,-58 -19,-99 c-19,-76 -18,-97 0,-70 c8,12 9,11 5,-5 c-17,-60 -26,-137 -26,-215 c0,-91 15,-199 31,-214 c5,-6 28,30 56,90 l48,99 l0,180 c1,236 5,247 131,385 c97,106 134,155 134,178 c0,21 -15,14 -65,-30 c-42,-37 -47,-39 -40,-18 c12,39 44,90 104,163 c31,37 75,91 98,120 c51,61 55,79 12,43 c-41,-35 -87,-58 -93,-48 c-3,5 13,26 35,48 c23,21 95,111 162,198 c128,170 209,257 280,302 c43,27 44,27 25,46 c-16,16 -18,28 -13,66 c6,41 56,202 80,256 c9,20 -148,-103 -315,-249 c-90,-78 -100,-91 -182,-231 c-47,-82 -150,-259 -228,-394 c-216,-371 -368,-681 -473,-965 c-15,-38 -31,-83 -37,-100 l-12,-30 l-15,29 l-15,29 l-40,-74 c-114,-207 -213,-461 -244,-625 c-20,-105 -21,-283 -4,-434 c18,-150 16,-414 -4,-535 c-33,-206 -46,-253 -72,-259 c-13,-4 -30,-19 -39,-35 c-14,-28 -35,-137 -50,-259 c-7,-56 -37,-104 -54,-87 c-6,7 -6,28 0,63 c6,29 9,76 7,105 c-4,63 -22,71 -69,29 l-32,-29 l22,-119 c31,-176 25,-373 -15,-477 c-6,-17 -7,-17 -19,0 c-12,17 -15,17 -50,0 c-20,-9 -41,-15 -46,-12 c-5,4 -9,41 -10,83 l-1,77 l-14,-50 c-35,-127 -57,-301 -57,-450 c0,-161 13,-244 59,-376 c22,-63 27,-97 31,-230 c7,-181 -2,-233 -52,-303 c-48,-68 -59,-126 -52,-285 c3,-75 9,-145 12,-156 c4,-11 -4,-2 -19,20 c-14,22 -26,33 -26,25 c-1,-43 34,-406 40,-413 c4,-5 18,21 30,58 c12,36 23,65 25,63 c2,-2 17,-74 35,-162 c39,-196 82,-351 115,-417 c40,-78 51,-66 65,72 c4,44 12,85 18,91 c8,8 -6,26 -44,60 l-54,50 l0,68 c0,37 -9,134 -20,215 c-21,156 -25,250 -12,259 c5,3 14,-31 21,-76 c14,-93 44,-180 68,-200 c9,-7 29,-33 45,-58 c21,-32 28,-38 24,-20 c-4,14 -17,87 -30,164 l-24,138 l33,57 l33,56 l-9,280 c-8,257 -24,413 -48,476 c-18,49 -23,-60 -7,-139 c18,-81 20,-140 7,-160 c-10,-17 -22,-3 -44,54 c-39,102 -62,311 -73,664 l-7,226 l30,53 c24,41 32,48 37,35 c8,-22 -3,-105 -16,-121 c-7,-9 -7,-13 0,-13 c6,0 12,6 15,13 c3,8 15,2 35,-17 l30,-28 l15,23 c8,13 23,53 32,89 c9,36 19,72 21,80 c3,8 24,-31 48,-85 c56,-130 107,-230 143,-280 l28,-40 l-1,-215 c0,-245 -17,-418 -41,-437 c-18,-14 -16,-61 18,-321 c23,-186 24,-214 2,-259 c-15,-32 -15,-40 1,-111 c24,-114 36,-152 47,-152 c12,0 29,44 29,77 c0,56 12,9 40,-165 c17,-99 37,-201 44,-226 c14,-45 14,-46 -9,-46 c-32,0 -62,-28 -99,-90 c-17,-29 -39,-58 -48,-64 c-25,-15 -50,12 -98,109 c-22,44 -40,76 -40,72 c0,-5 13,-61 29,-125 c16,-64 32,-130 36,-147 l7,-30 l-24,23 c-72,67 -98,-17 -78,-248 c6,-74 14,-145 17,-158 c3,-13 24,-34 49,-48 l44,-26 l0,-188 c0,-200 11,-293 54,-437 c13,-46 23,-83 21,-83 c-1,0 -56,73 -121,163 c-117,161 -150,199 -206,238 l-28,21 l10,-24 c6,-13 52,-117 104,-233 c51,-115 89,-211 85,-213 c-5,-2 -9,-31 -9,-64 c0,-55 -1,-59 -16,-47 c-15,12 -16,11 -9,-11 c16,-53 67,-150 75,-145 c5,3 3,26 -5,52 l-14,46 l52,-50 c29,-28 80,-69 114,-92 c68,-45 110,-91 191,-208 c60,-88 64,-80 32,53 c-25,106 -54,171 -123,272 c-105,153 -129,226 -32,97 c89,-117 230,-285 350,-415 c79,-85 106,-124 146,-204 c27,-55 49,-110 49,-122 c0,-13 16,-85 35,-160 c20,-75 34,-143 31,-150 c-3,-8 -21,-13 -46,-12 c-32,0 -44,6 -60,27 c-25,36 -72,175 -60,179 c23,8 7,22 -24,22 c-44,0 -71,-33 -81,-97 l-7,-48 l-29,90 c-25,74 -81,185 -95,185 c-1,0 3,-19 10,-42 c7,-24 16,-54 20,-68 c4,-14 -18,20 -49,75 c-130,227 -311,456 -360,455 c-17,-1 -16,-3 7,-16 c52,-28 73,-98 93,-304 l6,-65 l-47,70 c-51,77 -83,115 -96,115 c-12,0 -9,-42 5,-66 c35,-61 188,-282 202,-294 c27,-23 39,1 27,57 c-10,43 -9,46 4,28 c59,-80 203,-373 204,-414 c0,-9 -12,-3 -33,17 c-37,36 -55,39 -98,17 c-16,-9 -34,-13 -39,-10 c-26,16 -5,-17 31,-50 c51,-46 112,-74 160,-75 l37,0 l21,-77 c28,-108 34,-139 76,-378 c44,-246 89,-405 152,-530 c49,-98 133,-230 183,-285 c22,-25 17,-14 -18,40 c-63,96 -102,173 -102,202 c0,20 5,17 46,-22 c103,-101 165,-220 220,-422 c40,-152 104,-293 161,-358 l40,-44 l13,78 l13,77 l39,-38 c22,-21 103,-111 180,-199 l141,-161 l33,-109 c53,-175 48,-203 -22,-142 l-39,33 l19,-30 c70,-111 202,-247 299,-309 c32,-21 120,-66 194,-102 c171,-81 279,-152 396,-262 c51,-48 80,-73 66,-57 c-14,17 -72,84 -129,150 c-57,66 -126,144 -154,174 l-51,54 l47,-28 c26,-14 51,-24 56,-21 c5,3 7,26 4,51 c-6,60 9,58 46,-7 c28,-50 92,-130 206,-262 c27,-31 46,-59 43,-62 c-3,-4 -32,8 -64,26 l-58,32 l120,-119 c189,-187 439,-393 477,-393 c11,0 7,7 -52,87 l-35,48 l60,-51 c172,-148 431,-283 573,-300 l47,-6 l-50,33 c-67,43 -159,88 -290,142 c-172,70 -275,137 -417,273 c-60,56 -158,187 -158,211 c0,17 6,16 63,-3 c76,-26 90,3 44,92 c-8,16 -35,40 -59,53 c-23,13 -98,62 -165,108 c-68,46 -123,82 -123,79 c0,-2 23,-32 51,-67 c28,-35 46,-65 40,-67 c-25,-8 -88,43 -232,191 c-153,156 -158,159 -194,155 l-36,-4 l-56,95 c-31,53 -106,173 -167,266 c-60,94 -145,239 -189,323 c-74,143 -107,187 -122,162 c-4,-6 7,-35 25,-66 l31,-55 l-83,57 c-112,77 -143,112 -199,232 c-27,56 -53,102 -58,102 c-33,0 -33,-71 -1,-156 c6,-16 7,-24 2,-19 c-21,22 -141,209 -220,340 c-46,77 -81,131 -79,120 c20,-76 48,-217 45,-220 c-2,-2 -31,40 -63,94 c-33,55 -61,98 -62,97 c-2,-2 11,-42 27,-91 c16,-49 29,-90 27,-91 c-1,-2 -25,32 -53,74 c-191,292 -368,669 -434,927 c-32,126 -48,236 -32,220 c6,-5 74,-111 150,-235 c317,-510 424,-663 552,-791 c66,-66 135,-118 145,-107 c8,9 -22,53 -99,142 c-97,112 -126,164 -126,227 l0,44 l-75,39 c-72,36 -79,43 -140,135 c-90,135 -148,261 -153,333 c-2,32 -2,58 1,58 c3,0 20,-24 38,-52 c96,-149 223,-287 377,-411 c62,-49 110,-92 108,-95 c-6,-6 24,-31 38,-32 c5,0 2,8 -5,17 c-13,16 -12,17 3,4 c10,-7 16,-17 13,-21 c-3,-4 6,-15 19,-23 c13,-9 61,-75 106,-147 c45,-72 100,-153 120,-179 c40,-51 65,-116 49,-127 c-5,-3 -24,-2 -41,1 l-31,7 l37,-68 c95,-172 202,-294 471,-531 c270,-237 399,-380 408,-450 c3,-26 29,-86 68,-154 c44,-79 58,-113 50,-118 c-17,-11 73,-108 159,-173 c36,-28 138,-86 226,-129 c139,-68 164,-84 175,-111 c7,-17 55,-76 106,-131 c62,-66 93,-106 90,-118 c-4,-13 19,-24 122,-59 c108,-37 133,-49 178,-90 c28,-26 116,-96 195,-156 c154,-117 238,-194 238,-218 c0,-27 79,-60 139,-58 c57,1 86,-10 159,-60 c43,-30 50,-58 9,-36 c-39,21 -1,-17 72,-71 c127,-94 302,-187 391,-206 c33,-7 32,-6 -26,44 c-32,28 -82,68 -111,88 c-29,21 -52,42 -53,47 c0,15 81,-4 165,-37 c90,-36 220,-111 278,-160 l38,-32 l-51,4 c-99,6 -90,-26 35,-125 c79,-62 103,-94 73,-94 c-20,0 6,-15 129,-70 c294,-134 512,-184 1009,-235 c244,-25 268,-29 419,-75 c616,-188 1025,-275 1358,-287 c136,-5 171,-3 177,7 c11,18 254,39 278,24 c10,-6 25,-26 34,-45 c25,-48 44,-59 102,-59 c46,-1 49,-2 32,-15 c-36,-27 -106,-29 -286,-6 c-264,34 -265,34 -317,26 l-48,-7 l46,-23 c52,-27 75,-50 59,-60 c-5,-3 -71,-10 -144,-15 c-74,-4 -139,-11 -145,-15 c-17,-10 -13,-23 12,-40 c21,-13 27,-13 65,6 c54,27 167,41 267,33 c44,-3 188,-19 320,-35 c318,-40 481,-46 604,-25 c76,13 105,14 148,6 c29,-6 53,-15 53,-20 c0,-5 -34,-19 -75,-31 c-41,-12 -75,-26 -75,-31 c0,-16 42,-7 99,21 l58,30 l66,-15 c70,-16 117,-45 117,-71 c0,-14 25,-15 233,-10 c334,8 552,40 786,113 c117,36 142,53 53,33 c-79,-16 -91,-11 -57,29 c43,52 21,70 -75,62 c-84,-7 90,44 327,95 c166,36 210,42 184,26 c-20,-13 -5,-30 45,-51 c76,-33 60,-45 -88,-62 c-89,-11 -97,-13 -83,-27 c26,-27 100,-17 245,32 c74,25 153,48 175,51 l40,5 l-56,-27 c-30,-15 -103,-49 -162,-76 c-59,-27 -106,-50 -105,-52 c2,-1 48,12 103,31 c128,43 288,73 646,124 c339,48 465,78 529,123 c25,18 230,156 455,308 c392,264 414,277 494,298 c131,35 273,95 565,240 c148,73 271,131 273,128 c3,-2 0,-13 -6,-24 c-6,-12 -11,-24 -11,-27 c0,-12 130,65 330,195 c107,70 232,149 278,175 l83,48 l54,-12 l55,-12 l80,71 c88,77 367,301 523,419 c130,99 128,117 -5,50 c-68,-34 -82,-36 -75,-9 c7,26 -11,16 -82,-45 c-83,-71 -107,-107 -78,-118 c23,-9 -97,-57 -143,-57 c-25,0 -62,-4 -82,-9 c-21,-5 -38,-8 -38,-6 c0,10 428,383 456,398 c37,19 39,25 25,75 c-9,30 -7,36 22,62 c18,16 51,40 75,52 c37,20 44,21 52,8 c8,-13 11,-13 22,1 c49,59 168,223 238,328 c46,68 118,160 161,205 l78,81 l-10,-40 c-19,-72 -87,-199 -145,-270 l-57,-70 l54,50 c30,27 83,77 118,110 c115,107 21,-22 -186,-257 c-195,-222 -246,-306 -196,-325 c20,-8 77,52 257,267 c250,299 499,657 610,879 c22,44 43,71 61,79 c71,33 133,111 326,412 c83,130 162,224 212,253 c51,30 84,34 89,11 c3,-16 120,166 213,332 c116,209 246,523 297,719 l23,89 l92,75 c88,73 94,80 139,176 c31,64 48,114 48,140 l1,40 l-41,-3 c-57,-5 -68,12 -61,91 c8,97 51,212 98,266 c49,55 122,202 218,439 c78,190 114,267 141,297 c25,29 44,159 28,192 c-23,48 -34,36 -63,-64 c-15,-54 -34,-111 -42,-127 c-15,-29 -16,-29 -30,-10 c-9,13 -12,32 -8,59 c11,72 44,193 74,267 c15,40 36,98 45,128 c10,30 20,62 23,70 c3,9 11,-6 20,-35 c15,-46 16,-48 24,-25 c12,36 65,415 86,615 c13,125 17,250 17,475 c0,267 -3,319 -22,420 c-21,113 -60,245 -61,205 c0,-11 8,-58 19,-105 c11,-47 20,-103 20,-126 c0,-59 -11,-134 -21,-134 c-10,0 -26,52 -34,112 c-7,53 -17,65 -35,43 c-13,-16 -12,-38 9,-198 c6,-42 6,-95 0,-135 c-11,-75 -29,-107 -29,-51 c0,18 -16,102 -34,184 l-33,150 l-44,-93 c-32,-69 -45,-89 -49,-75 c-4,10 -44,189 -90,398 c-46,209 -86,384 -90,388 c-5,5 -11,-44 -16,-110 c-9,-154 7,-366 48,-608 c28,-168 32,-213 32,-390 c1,-189 0,-205 -27,-299 c-28,-102 -36,-120 -44,-98 c-7,19 -30,14 -47,-10 c-9,-12 -16,-20 -17,-18 c-1,3 -7,32 -14,65 l-12,60 l-2,-56 c-1,-35 4,-62 14,-75 c18,-24 19,-104 1,-284 c-7,-74 -11,-160 -9,-190 c2,-40 -6,-87 -30,-174 c-18,-66 -38,-121 -44,-123 c-6,-2 -24,22 -39,53 c-25,52 -28,68 -28,161 l0,103 l-98,-437 c-181,-810 -294,-1167 -503,-1578 c-79,-156 -231,-410 -282,-470 l-25,-30 l6,27 c3,14 9,34 12,45 c6,16 5,16 -8,3 c-15,-15 -36,-65 -94,-230 c-19,-52 -34,-85 -34,-72 c0,13 5,33 10,45 c13,27 10,24 -78,-111 c-83,-127 -147,-204 -316,-385 c-148,-157 -210,-231 -259,-310 c-16,-26 -31,-46 -34,-43 c-7,6 24,63 70,128 c23,32 38,60 35,63 c-8,8 -147,-141 -211,-226 c-31,-41 -110,-162 -177,-268 c-149,-239 -209,-320 -327,-441 c-86,-88 -92,-93 -87,-62 c6,29 4,32 -18,32 c-13,0 -78,-33 -144,-73 c-106,-64 -137,-90 -284,-238 c-184,-185 -335,-313 -615,-523 c-228,-172 -406,-296 -620,-434 l-160,-103 l-5,28 c-11,59 -74,43 -344,-87 c-272,-132 -330,-149 -429,-125 c-55,14 -327,-144 -327,-190 c0,-11 10,-9 46,6 c50,23 187,38 197,22 c3,-5 -44,-31 -106,-58 c-189,-81 -307,-145 -356,-194 l-46,-45 l-132,3 c-123,2 -133,1 -133,-16 c0,-23 -34,-80 -63,-105 c-12,-11 -46,-31 -75,-44 c-49,-24 -56,-25 -121,-15 c-38,6 -76,8 -84,5 c-8,-3 -17,-23 -21,-44 c-4,-27 -14,-45 -32,-57 c-28,-18 -129,-42 -178,-43 c-29,0 -27,2 46,77 c75,78 115,130 106,138 c-9,9 -135,-29 -207,-62 c-85,-39 -131,-51 -131,-34 c0,38 57,85 203,169 l88,50 l-143,-5 l-143,-5 l-90,-48 c-232,-125 -509,-231 -705,-270 c-107,-22 -362,-40 -347,-24 c5,5 34,22 65,39 c30,16 58,35 60,42 c2,7 -8,23 -21,37 c-29,29 -36,28 -227,-29 c-63,-19 -148,-41 -188,-50 c-108,-22 -292,-19 -277,5 c3,5 -62,6 -143,3 c-145,-6 -151,-5 -255,26 c-59,17 -140,36 -180,42 c-115,18 -117,18 -111,33 c4,12 -2,13 -32,6 c-79,-18 -301,-32 -422,-28 c-130,5 -213,27 -289,74 c-38,25 -224,167 -221,169 c2,1 89,-10 193,-26 c857,-125 1761,-116 2609,27 c1432,241 2777,847 3899,1757 c437,354 900,816 1254,1254 c763,940 1321,2057 1619,3238 c283,1120 329,2328 133,3475 c-142,828 -403,1620 -780,2368 c-89,176 -104,213 -71,180 c6,-6 14,-9 17,-6 c3,3 -9,15 -27,26 c-24,15 -56,62 -123,179 c-49,87 -90,167 -91,178 c0,11 -4,36 -8,55 l-7,35 l32,-35 c18,-19 56,-61 85,-92 c28,-32 58,-58 64,-58 c7,0 -6,21 -29,46 c-39,41 -78,111 -68,120 c8,8 155,-207 210,-306 c41,-74 101,-219 94,-227 c-3,-2 -15,1 -27,7 c-13,7 1,-15 34,-54 c30,-36 125,-170 210,-298 c141,-214 256,-367 281,-375 c6,-2 9,15 9,40 c-2,33 -9,51 -32,76 c-32,36 -76,119 -88,166 l-7,30 l25,-23 c29,-26 41,-18 53,36 c11,51 33,52 76,4 c56,-63 111,-187 169,-377 c29,-93 62,-192 76,-220 c21,-46 92,-131 101,-122 c4,4 -102,389 -144,521 c-32,102 -76,200 -109,243 c-33,44 -41,36 -16,-14 c65,-128 59,-125 -108,44 c-123,124 -160,167 -160,187 c0,14 -26,76 -59,138 c-68,132 -88,185 -73,200 c11,11 80,-98 151,-240 c22,-42 47,-86 56,-97 c16,-19 16,-19 10,10 c-15,68 -103,262 -192,423 c-41,73 -53,77 -22,6 c40,-93 42,-99 24,-84 c-32,26 -156,191 -295,390 c-155,224 -241,337 -320,424 c-36,38 -47,56 -35,56 c21,0 15,19 -41,132 c-62,124 -59,141 14,88 c45,-32 87,-89 97,-132 c5,-17 12,-25 21,-21 c26,10 15,39 -51,138 c-36,53 -65,105 -65,116 c0,10 -10,24 -22,30 c-13,7 -59,38 -103,69 c-96,69 -115,77 -122,52 c-3,-14 -34,10 -138,111 c-74,71 -149,151 -166,178 c-24,38 -34,47 -44,39 c-20,-17 -62,9 -172,106 c-52,47 -106,90 -119,95 c-23,8 -109,127 -100,137 c7,6 160,-87 300,-182 c89,-60 133,-98 172,-148 c65,-80 70,-84 99,-68 c21,11 31,7 112,-48 c48,-34 137,-99 197,-146 c190,-148 476,-399 429,-376 c-38,18 -37,11 3,-16 c94,-63 158,-142 285,-355 c96,-161 129,-209 188,-271 c19,-21 29,-38 22,-38 c-29,0 53,-119 278,-402 c73,-92 145,-222 157,-285 c6,-31 5,-33 -22,-33 c-28,0 -28,-1 26,-55 c55,-56 93,-76 111,-58 c5,5 -20,57 -67,134 c-71,115 -174,308 -174,325 c0,13 70,-58 118,-121 c61,-79 143,-215 136,-227 c-6,-9 31,-2 75,14 c20,7 30,3 59,-24 c46,-44 83,-121 121,-251 c35,-121 68,-192 101,-222 l22,-20 l-6,85 c-4,47 -9,99 -12,115 c-4,23 -3,26 5,15 c22,-31 10,4 -21,62 c-17,32 -48,78 -68,101 c-73,83 -139,227 -161,352 c-7,44 -9,109 -4,191 c8,142 5,139 104,105 c30,-11 60,-17 68,-14 c31,12 -67,130 -191,229 c-90,72 -176,168 -176,197 c0,14 5,17 18,13 c9,-4 -13,24 -50,61 c-38,38 -68,73 -68,78 c0,5 -18,55 -40,111 c-37,96 -50,154 -32,154 c21,-1 66,-54 107,-125 c86,-147 3,62 -169,428 c-138,295 -170,380 -164,439 c5,50 -16,86 -113,196 c-34,37 -87,104 -120,149 c-39,52 -69,83 -85,87 c-14,4 -58,4 -99,0 c-69,-6 -77,-5 -122,21 c-26,15 -67,43 -90,62 c-24,19 -43,32 -43,29 c0,-3 32,-50 70,-105 c39,-55 70,-105 70,-110 c0,-5 21,-21 48,-36 c26,-15 63,-39 82,-53 l35,-25 l-25,29 c-13,16 -52,57 -85,92 l-60,64 l43,-22 c40,-21 66,-24 152,-17 c20,2 36,-13 91,-86 c91,-121 148,-234 214,-427 c31,-90 61,-172 66,-182 c19,-36 -10,-16 -100,66 c-99,92 -128,108 -146,83 c-10,-13 -16,-7 -38,37 c-16,34 -45,70 -78,97 c-109,91 -146,130 -174,180 c-25,46 -26,52 -9,46 c13,-5 11,-1 -6,11 c-50,35 -84,67 -132,126 c-28,34 -68,75 -91,92 c-27,21 -41,40 -43,59 c-3,27 -41,66 -106,108 l-28,19 l0,-36 c0,-48 -19,-47 -96,2 c-59,39 -97,80 -128,139 c-25,50 -20,70 23,101 c22,15 43,35 48,44 c7,16 12,15 53,-13 c113,-76 186,-103 225,-83 c15,8 37,14 50,14 c23,0 100,-47 200,-123 c44,-33 63,-43 72,-35 c22,18 15,89 -14,146 c-31,61 -151,209 -242,297 c-53,51 -60,56 -51,31 c16,-44 4,-65 -46,-78 c-65,-18 -88,-42 -81,-87 c3,-20 9,-46 13,-58 c5,-20 -3,-17 -62,24 c-87,58 -163,93 -315,143 c-143,48 -175,63 -257,125 c-64,48 -177,172 -192,211 c-6,15 -34,28 -116,52 l-107,32 l-102,107 c-57,60 -102,109 -101,110 c0,1 23,-3 51,-8 c63,-12 154,-54 275,-128 c116,-71 178,-103 192,-99 c14,5 -61,98 -114,140 c-72,59 -127,85 -285,137 c-280,92 -417,178 -448,280 c-7,23 -6,24 30,18 c20,-3 91,-37 158,-75 c156,-89 234,-128 274,-137 c53,-11 58,5 11,34 c-69,44 -182,180 -164,198 c3,3 31,-17 63,-44 c80,-68 108,-87 210,-137 c95,-47 185,-111 248,-175 l40,-42 l-33,12 c-43,15 -49,7 -22,-31 c13,-18 20,-39 17,-50 c-3,-13 0,-20 8,-20 c40,0 280,-189 493,-388 c83,-78 127,-112 138,-108 c32,12 1,65 -121,200 c-44,49 -98,111 -121,138 c-23,27 -72,70 -110,95 c-88,59 -156,115 -327,272 c-181,165 -261,224 -382,282 c-95,46 -195,118 -195,141 c0,10 31,8 120,-7 l35,-7 l-35,32 c-52,47 -121,90 -144,90 c-11,0 -32,-12 -47,-26 l-27,-26 l-88,41 c-154,73 -270,158 -431,319 c-191,191 -256,234 -406,272 c-140,35 -295,91 -608,220 c-301,125 -659,268 -761,305 c-70,25 -76,29 -65,46 c16,26 -25,113 -51,105 c-91,-25 -235,-37 -425,-34 c-113,2 -203,0 -199,-4 c4,-3 68,-34 142,-68 c115,-52 128,-60 90,-56 c-25,3 -116,10 -203,16 c-195,13 -291,31 -376,70 l-66,31 l30,-31 c29,-31 29,-32 11,-46 c-27,-20 -140,-18 -371,6 c-104,11 -217,20 -250,20 c-46,0 -56,3 -42,11 c24,14 21,36 -5,53 c-25,15 -128,30 -128,18 c0,-4 23,-19 50,-34 c28,-16 50,-32 50,-38 c0,-13 1,-13 -83,11 c-58,17 -115,22 -297,29 c-128,4 -238,12 -255,19 c-16,6 -37,14 -45,17 c-11,4 -11,7 -2,13 c7,4 -53,13 -133,20 c-80,6 -168,15 -195,18 l-49,6 l24,66 c13,36 21,69 17,73 c-4,4 -43,13 -86,19 c-144,22 -368,-22 -429,-83 c-29,-28 -33,-29 -87,-23 c-77,9 -82,13 -74,63 l7,42 l123,40 c68,22 152,47 186,55 c84,20 220,20 258,0 c39,-20 38,-25 -4,-18 c-18,3 -36,1 -40,-5 c-10,-16 90,-27 244,-27 c171,0 187,7 215,89 c24,72 52,94 125,103 c53,6 50,7 -135,44 c-168,34 -206,38 -330,38 c-77,-1 -183,-7 -235,-15 zm-350,-944 c80,-5 207,-13 283,-16 c76,-4 134,-10 130,-14 c-4,-4 -42,-17 -83,-30 c-107,-31 -145,-71 -98,-102 c20,-13 12,-16 -107,-47 c-121,-31 -137,-33 -319,-35 c-140,-1 -197,2 -213,12 c-38,21 -26,29 53,34 c94,6 110,19 57,47 l-40,20 l-169,-41 c-354,-84 -428,-110 -454,-163 c-8,-16 -15,-31 -15,-32 c0,-1 -38,-7 -85,-12 c-71,-9 -87,-9 -107,4 c-13,9 -49,19 -81,23 c-76,10 -78,33 -5,81 c29,19 51,37 49,39 c-10,10 -318,-76 -585,-162 c-162,-53 -301,-96 -308,-96 c-7,0 -13,-7 -13,-15 c0,-26 74,-37 210,-30 c202,12 228,-3 141,-82 c-27,-25 -55,-58 -61,-74 c-13,-31 -12,-31 -190,-73 c-58,-14 -167,-43 -243,-64 c-76,-22 -140,-35 -143,-31 c-8,14 37,53 114,98 c75,43 153,105 102,80 c-13,-7 -47,-26 -75,-44 c-60,-38 -150,-85 -165,-85 c-5,0 -10,7 -10,16 c0,19 9,22 -173,-59 c-129,-56 -160,-77 -143,-94 c4,-4 58,10 120,30 c98,32 122,37 187,33 c66,-3 237,19 308,40 c18,5 22,4 16,-6 c-6,-10 3,-12 44,-6 c86,11 160,44 206,91 c41,43 43,43 191,74 c428,87 815,137 1279,162 c242,13 858,6 1088,-14 c109,-9 146,-9 143,-1 c-3,8 39,23 113,43 c65,17 121,31 126,31 c4,0 27,-16 51,-35 l43,-35 l78,36 c57,26 74,38 63,44 c-8,4 -105,33 -214,64 c-163,47 -346,114 -346,128 c0,2 390,4 868,5 c714,2 872,0 897,-12 c17,-7 104,-30 195,-50 c251,-56 438,-103 458,-114 c14,-9 12,-10 -13,-11 c-16,0 -37,-5 -45,-10 c-13,-9 -11,-13 10,-30 c33,-26 110,-51 310,-100 c91,-22 170,-46 175,-54 c11,-14 76,-36 105,-36 c8,0 -3,9 -25,20 l-40,20 l65,-5 c94,-8 166,-31 203,-65 l32,-30 l-25,-19 c-24,-19 -24,-19 -5,-41 c35,-39 106,-83 290,-177 l180,-92 l-85,-1 c-80,0 -167,9 -235,25 c-24,5 -21,1 20,-23 c28,-16 58,-39 68,-50 c18,-19 17,-20 -25,-16 c-145,14 -442,33 -446,29 c-3,-3 17,-14 44,-26 c36,-17 82,-24 184,-31 c74,-5 160,-16 190,-24 c58,-17 130,-50 130,-61 c0,-15 -54,-74 -80,-88 c-65,-33 -269,-12 -345,36 c-50,32 -57,54 -20,63 c14,4 25,12 25,19 c-1,28 -20,39 -75,43 c-67,5 -78,10 -170,79 c-80,61 -131,78 -207,69 c-47,-5 -60,-2 -118,28 c-69,35 -95,64 -105,116 l-7,33 l43,-7 l42,-7 l-6,46 c-6,40 -4,47 11,48 c36,2 87,-3 109,-12 c48,-18 20,3 -42,33 c-54,25 -73,29 -113,24 c-149,-19 -163,-19 -202,-1 c-39,17 -39,18 -42,78 l-3,61 l-95,38 c-320,131 -551,196 -725,204 l-110,6 l35,-22 c19,-12 37,-24 39,-26 c13,-12 -23,-26 -85,-35 c-88,-12 -101,-16 -108,-35 c-5,-13 -3,-13 16,1 c50,34 206,8 299,-50 c43,-28 52,-48 17,-40 c-13,2 -108,14 -213,25 c-173,19 -352,42 -430,55 c-16,3 33,-17 110,-44 l140,-48 l-55,-11 c-30,-7 -124,-21 -209,-32 c-85,-11 -156,-21 -157,-23 c-2,-1 90,-20 203,-41 c1511,-280 2936,-991 4093,-2042 c190,-173 514,-502 672,-684 c183,-211 194,-228 72,-107 l-110,108 l-65,9 c-35,5 -107,10 -160,10 l-95,0 l-16,34 c-19,38 -79,90 -156,134 c-30,16 -48,32 -42,34 c33,11 -174,213 -311,304 c-68,45 -142,77 -153,67 c-3,-4 -6,-1 -6,5 c0,22 66,13 206,-28 c234,-68 277,-64 220,18 c-51,74 -264,247 -361,293 c-72,34 -116,36 -205,8 c-82,-25 -147,-20 -152,14 c-5,32 -82,74 -168,92 c-41,9 -84,18 -95,21 c-18,6 -17,4 5,-20 c13,-15 49,-46 80,-68 c71,-54 81,-63 50,-48 c-14,7 -59,38 -100,69 c-41,30 -102,70 -135,88 c-33,18 -54,33 -47,33 c41,1 -10,57 -106,119 c-32,20 -49,37 -42,41 c15,10 -86,101 -162,145 c-145,85 -338,143 -487,146 c-69,1 -70,2 -95,40 c-46,69 -112,104 -298,158 c-102,30 -255,90 -231,91 c6,0 43,-11 81,-25 c77,-28 97,-30 108,-13 c9,14 -25,43 -97,83 c-52,28 -53,30 -25,33 c18,2 36,-4 50,-17 c27,-25 155,-53 223,-49 c77,5 68,25 -44,109 c-54,40 -102,76 -107,80 c-5,4 11,5 35,2 c42,-5 35,1 -133,116 c-98,66 -183,121 -188,121 c-7,0 -7,-6 0,-19 c5,-11 10,-22 10,-24 c0,-3 -48,15 -106,39 c-277,114 -628,203 -1122,284 l-194,32 l-26,-25 c-15,-14 -52,-33 -82,-43 c-50,-17 -102,-18 -580,-19 c-543,-1 -537,-1 -680,-41 c-25,-7 -25,-7 6,28 c17,20 39,56 49,82 c16,41 16,60 4,105 c-3,9 26,22 96,43 c123,37 295,50 323,25 c9,-8 40,-26 69,-41 c62,-31 72,-44 48,-63 c-16,-11 -10,-13 52,-13 c74,0 123,12 123,30 c0,6 -18,23 -41,38 c-22,15 -55,39 -72,54 c-28,24 -31,29 -19,47 c12,21 11,21 -120,21 c-264,-1 -400,-27 -913,-179 c-112,-33 -144,-39 -161,-31 c-20,11 -117,-8 -219,-43 l-39,-14 l46,-6 c93,-13 125,-49 74,-82 c-34,-22 -119,-30 -165,-15 c-50,16 -151,3 -389,-51 c-97,-21 -200,-42 -230,-46 c-47,-5 -63,-14 -124,-65 c-80,-67 -96,-72 -185,-65 c-72,5 -132,39 -208,117 c-21,22 -48,40 -60,40 c-39,0 -170,-41 -251,-79 c-99,-47 -168,-93 -327,-219 c-168,-134 -164,-132 -222,-132 c-27,0 -124,-18 -215,-40 c-215,-52 -227,-52 -194,0 c8,14 -5,3 -30,-24 c-25,-27 -62,-84 -82,-125 c-20,-42 -46,-96 -58,-120 c-55,-114 -168,-192 -343,-236 c-48,-12 -90,-21 -92,-19 c-2,1 18,30 44,63 c25,34 43,61 39,61 c-13,0 -213,-136 -339,-230 c-71,-54 -213,-166 -315,-250 c-390,-321 -434,-357 -508,-407 c-42,-29 -79,-53 -84,-53 c-4,0 -8,8 -8,18 c0,38 -29,62 -75,62 c-62,0 -139,-31 -375,-152 c-222,-114 -316,-150 -390,-151 c-41,-1 -47,-3 -42,-20 c6,-25 -88,-206 -111,-213 c-42,-13 -117,-98 -117,-133 c0,-5 12,-3 28,5 c40,20 48,18 78,-23 c16,-21 31,-42 35,-46 c13,-17 50,14 94,81 c51,76 51,76 14,-86 c-40,-175 -150,-404 -301,-624 c-64,-93 -70,-96 -111,-51 c-16,19 -13,24 99,153 c64,74 111,136 105,138 c-27,9 -10,53 70,187 l23,40 l-64,-59 c-75,-67 -135,-110 -170,-121 c-20,-6 -29,-2 -57,31 c-32,39 -32,39 -60,23 c-15,-10 -65,-62 -110,-118 c-71,-87 -83,-107 -83,-139 c0,-41 -42,-122 -54,-103 c-12,18 -34,13 -66,-16 c-26,-24 -33,-39 -43,-107 c-11,-73 -14,-80 -40,-89 c-36,-12 -57,-3 -57,24 c0,11 22,72 50,134 c60,135 62,150 20,142 l-29,-6 l43,92 c24,51 75,158 114,238 c86,178 119,280 103,315 c-16,35 -34,30 -79,-23 c-92,-111 -126,-189 -161,-368 c-24,-123 -49,-190 -107,-276 c-51,-77 -105,-129 -135,-129 c-45,0 -64,-114 -45,-267 c8,-69 8,-73 -11,-73 c-18,0 -113,-89 -113,-105 c0,-3 -13,-74 -30,-158 c-46,-237 -59,-327 -65,-465 c-6,-141 -5,-141 51,13 c67,185 131,291 276,457 c82,94 146,184 197,278 c22,41 41,73 41,70 c0,-3 -13,-37 -29,-77 c-59,-143 -91,-260 -91,-329 l0,-65 l-29,20 c-27,19 -29,20 -36,3 c-3,-9 -36,-102 -72,-207 c-65,-191 -174,-434 -181,-403 c-2,9 1,40 7,70 c5,29 8,54 7,55 c-1,2 -17,-33 -34,-76 c-18,-44 -58,-119 -89,-168 c-183,-288 -211,-350 -220,-485 c-6,-87 5,-102 30,-40 c27,65 18,17 -14,-75 c-17,-48 -54,-144 -82,-212 l-51,-125 l20,-220 c16,-173 18,-223 8,-231 c-7,-5 -28,-36 -48,-67 c-43,-68 -52,-75 -75,-54 c-17,16 -20,14 -40,-35 c-54,-125 -58,-209 -20,-394 c29,-139 22,-205 -24,-243 c-12,-11 -15,10 -19,150 c-5,159 -17,224 -46,242 c-21,13 -73,-220 -98,-441 c-27,-229 -8,-594 34,-670 c6,-10 12,-4 20,24 c6,21 18,47 27,58 c14,19 15,19 6,-7 c-6,-14 -13,-76 -17,-136 c-7,-109 -7,-110 21,-146 c30,-40 29,-59 -5,-115 c-20,-31 -22,-32 -39,-17 c-10,9 -24,35 -32,59 l-14,42 l-3,-42 c-2,-23 8,-90 22,-149 c35,-142 41,-200 26,-254 c-10,-36 -14,-41 -21,-27 c-27,48 -39,177 -41,440 c-1,261 -1,266 -9,127 c-8,-137 -20,-210 -80,-475 c-19,-83 -23,-130 -23,-280 c0,-99 5,-220 12,-269 c7,-48 11,-91 8,-94 c-3,-3 -14,2 -24,11 c-53,48 -68,-6 -31,-116 c33,-98 52,-111 123,-82 c28,12 41,13 58,4 c19,-10 20,-9 14,7 c-44,114 -46,296 -5,398 c14,33 29,61 34,62 c6,2 18,-7 27,-20 c13,-18 15,-32 8,-62 c-4,-21 -11,-69 -15,-106 l-6,-67 l35,-7 c20,-3 36,-7 36,-9 c0,-2 -13,-17 -29,-34 c-59,-63 -80,-260 -39,-361 l14,-35 l13,49 c19,78 37,104 91,131 c27,14 54,25 60,25 c14,0 46,-72 55,-123 c5,-24 1,-79 -10,-142 c-18,-102 -16,-129 11,-211 c3,-11 -4,-4 -16,15 c-20,31 -23,33 -32,17 c-29,-52 26,-195 94,-245 c22,-16 47,-39 55,-51 c13,-18 11,-18 -22,4 c-20,14 -61,34 -91,46 c-70,26 -122,53 -157,82 c-24,20 -32,43 -62,173 c-18,83 -45,184 -58,225 l-23,75 l-13,-120 c-8,-66 -16,-124 -19,-129 c-2,-4 -14,19 -25,53 c-26,80 -57,111 -110,111 l-39,0 l4,-117 c7,-164 23,-207 116,-305 c69,-75 122,-161 122,-201 c0,-25 18,-57 32,-57 c10,0 6,72 -8,140 l-5,25 l20,-24 c12,-13 28,-49 37,-80 c23,-85 40,-117 72,-136 c30,-18 84,-98 97,-145 c7,-24 7,-24 -12,-7 c-11,9 -23,14 -26,10 c-12,-11 -8,-58 8,-102 c23,-67 108,-201 130,-207 c11,-3 47,4 79,16 c134,46 205,8 287,-152 c34,-67 34,-68 12,-69 c-10,-1 2,-5 27,-11 c127,-27 116,-18 171,-136 c28,-59 100,-217 159,-353 c123,-279 193,-421 278,-564 c60,-101 70,-135 26,-94 c-13,12 -24,19 -24,15 c0,-13 191,-309 287,-443 c116,-164 216,-285 319,-384 c56,-55 97,-106 141,-180 c70,-117 85,-159 58,-159 c-13,0 -10,-5 11,-22 c43,-32 94,-81 94,-90 c0,-17 -27,-7 -51,18 c-26,28 -79,59 -79,46 c0,-4 7,-17 15,-29 c14,-19 12,-22 -23,-45 c-54,-36 -76,-41 -117,-24 c-52,22 -165,133 -165,163 c0,42 27,38 86,-13 c72,-64 108,-86 127,-78 c28,10 29,36 1,65 c-31,32 -67,44 -94,29 c-16,-9 -23,-4 -49,33 c-39,58 -47,90 -26,111 c14,14 15,17 1,22 c-8,3 -40,40 -72,82 c-71,96 -111,140 -146,158 c-32,17 -88,94 -88,123 c0,15 8,20 32,23 c39,4 47,25 21,57 c-15,19 -31,23 -111,28 l-93,6 l-76,151 c-84,168 -134,242 -195,286 c-52,38 -81,38 -138,0 c-82,-55 -145,-32 -246,89 c-48,58 -52,66 -34,69 c11,2 28,18 38,35 c32,60 19,301 -24,422 c-13,39 240,-340 287,-429 c44,-82 49,-88 49,-58 c0,49 17,37 88,-64 c73,-104 129,-167 144,-162 c7,3 16,11 22,20 c8,13 -1,26 -43,64 c-74,67 -145,163 -197,269 c-41,86 -70,170 -45,135 c6,-9 11,-10 11,-4 c0,21 -68,113 -147,199 c-43,46 -95,112 -116,147 c-39,65 -102,242 -93,264 c3,7 16,14 30,16 l25,3 l-49,85 c-28,47 -50,92 -50,101 c0,11 -12,19 -37,23 c-130,24 -538,130 -737,192 c-60,19 -111,33 -112,31 c-5,-5 149,-460 231,-682 c125,-341 239,-621 362,-893 c72,-159 76,-192 24,-192 c-23,0 -42,14 -92,68 l-62,67 l33,-60 c19,-33 58,-99 87,-147 c29,-49 50,-88 46,-88 c-17,0 -84,49 -136,99 c-72,69 -120,133 -169,225 c-21,39 -38,68 -38,63 c0,-15 74,-194 113,-272 l39,-79 l-33,25 c-26,20 -48,60 -99,175 c-96,214 -305,734 -296,734 c7,0 106,-168 130,-220 c14,-30 26,-47 26,-38 c0,39 -67,225 -157,433 c-97,227 -133,334 -132,395 c0,34 1,34 21,-20 c78,-207 158,-401 224,-547 c42,-92 77,-181 79,-198 c1,-16 20,-79 43,-140 c55,-150 53,-145 67,-145 c7,0 32,-28 56,-61 c82,-114 79,-105 -22,94 c-55,108 -98,197 -96,197 c3,0 35,-52 72,-116 c107,-184 145,-217 145,-126 c0,34 -7,58 -25,84 c-45,66 -162,300 -240,478 c-141,320 -306,621 -325,591 c-8,-14 -24,23 -75,178 c-26,79 -27,88 -15,134 c12,46 11,52 -6,64 c-10,7 -23,13 -30,13 c-14,0 -25,34 -89,281 c-215,833 -303,1730 -253,2582 c12,216 20,240 47,156 c12,-35 15,-112 16,-369 c2,-357 2,-366 12,-356 c11,11 32,261 39,466 l6,185 l-45,133 c-25,74 -47,136 -50,138 c-2,2 -7,-25 -10,-62 c-5,-55 -11,-69 -32,-86 c-48,-38 -102,-159 -216,-488 c-90,-258 -84,-278 -49,160 c30,364 63,619 106,829 l7,33 l-28,-18 l-28,-18 l6,24 c3,14 9,70 12,125 c7,87 24,155 41,155 c9,0 25,-54 106,-345 c44,-159 81,-291 83,-293 c1,-2 8,43 15,100 c64,544 177,1089 322,1548 c31,96 36,105 60,108 c15,2 36,-2 48,-8 c33,-17 58,-3 91,53 l31,52 l-7,-39 c-10,-63 -52,-199 -79,-257 l-24,-54 l5,76 c10,139 -32,112 -136,-89 c-42,-80 -63,-134 -71,-180 c-6,-37 -14,-76 -17,-87 c-5,-19 -5,-19 14,-2 c20,17 20,17 26,-35 c4,-29 7,-70 7,-91 c0,-52 16,-38 24,20 c10,72 19,83 50,54 c22,-21 24,-26 10,-35 c-21,-16 -34,-77 -33,-166 l0,-75 l26,30 c14,17 46,53 71,80 l44,50 l-6,-38 c-4,-21 -22,-77 -40,-124 c-34,-87 -36,-113 -10,-113 c17,0 24,16 70,170 c56,184 92,330 124,509 c17,91 33,177 35,191 c4,20 -5,14 -51,-35 c-62,-66 -61,-68 -27,55 c23,84 38,108 133,205 c48,50 99,111 114,136 c38,66 76,167 76,203 c0,51 30,155 92,315 c73,188 95,272 82,309 c-8,23 -5,30 29,61 c50,45 109,132 153,226 c28,58 37,92 44,167 c9,96 37,195 110,401 c23,65 39,125 36,133 c-12,32 -42,-7 -111,-150 c-52,-108 -85,-162 -114,-190 c-22,-22 -43,-37 -46,-35 c-3,3 16,48 41,100 c25,52 41,90 36,84 c-11,-13 -143,-232 -208,-347 c-37,-67 -54,-88 -70,-88 c-28,0 -92,-47 -128,-94 c-15,-20 -30,-35 -33,-33 c-2,3 14,76 37,164 c32,124 55,188 108,296 l67,139 l43,-6 c24,-3 52,-10 62,-16 c23,-12 26,-49 8,-70 c-17,-19 9,0 73,52 c26,21 51,38 56,38 c5,0 61,78 125,173 c313,465 633,854 1042,1263 c346,346 658,612 1054,898 c47,34 51,35 43,14 c-5,-12 -28,-68 -50,-122 c-47,-113 -44,-113 69,17 c62,72 65,74 80,54 c16,-19 17,-19 51,-2 c19,10 87,60 152,113 c65,52 120,93 122,90 c3,-2 -9,-46 -26,-96 c-29,-88 -32,-93 -72,-110 c-61,-28 -173,-98 -244,-153 c-35,-27 -71,-49 -80,-49 c-31,-1 -159,-56 -257,-110 c-141,-78 -305,-214 -284,-235 c10,-10 77,21 167,78 c168,106 207,115 198,44 c-3,-22 -2,-36 2,-31 c4,5 22,28 39,50 c21,27 57,54 104,79 c40,21 95,53 122,72 c36,26 47,30 41,17 c-16,-39 -17,-67 -4,-106 c10,-30 10,-47 2,-69 c-6,-16 -9,-29 -7,-29 c2,0 46,37 97,82 c50,45 105,93 121,107 l30,26 l-25,-31 c-13,-17 -48,-59 -77,-93 c-69,-82 -87,-117 -71,-138 c24,-28 88,-8 144,46 c28,26 94,82 147,124 c115,91 178,154 178,180 c0,10 5,15 10,12 c27,-17 119,67 148,136 c23,53 67,93 140,127 c43,19 51,26 41,38 c-25,30 -108,9 -169,-42 c-17,-15 -49,-55 -71,-89 c-43,-68 -129,-155 -154,-155 c-26,0 -17,16 30,51 c66,50 71,82 16,94 c-40,9 -87,-17 -201,-110 c-103,-84 -144,-109 -167,-101 c-8,3 -13,15 -11,28 c2,16 34,42 114,93 c103,64 111,72 107,96 c-5,28 14,73 54,126 c13,17 27,47 30,67 c7,43 49,72 195,136 c153,66 226,132 214,191 c-3,16 -9,43 -12,59 c-5,22 -1,37 12,52 c17,19 -141,-58 -256,-125 l-35,-20 l20,24 c11,14 7,12 -11,-6 c-16,-17 -64,-50 -105,-74 c-139,-82 -334,-205 -456,-289 c-68,-46 -123,-81 -123,-77 c0,8 53,86 108,158 c24,32 42,60 40,63 c-9,8 -164,-74 -235,-125 c-111,-78 -191,-158 -379,-377 c-191,-222 -274,-301 -394,-369 c-13,-8 -13,-7 0,11 c8,10 -71,-64 -175,-166 c-340,-331 -524,-449 -788,-502 c-54,-11 -100,-18 -103,-15 c-10,10 185,307 201,307 c2,0 21,-8 41,-17 l37,-18 l64,69 c93,101 190,223 363,461 c190,261 298,394 415,510 c96,96 254,229 263,221 c9,-9 -30,-60 -106,-138 c-42,-43 -72,-81 -68,-85 c16,-16 160,151 215,249 c61,109 99,151 185,202 c82,49 91,44 26,-13 c-30,-27 -52,-52 -49,-56 c4,-3 39,10 79,30 c92,46 110,44 73,-10 c-20,-30 -4,-18 68,50 c232,220 524,391 1055,619 c365,156 387,167 367,181 c-22,17 -14,27 91,111 c56,45 88,64 108,64 c36,0 37,-22 1,-50 l-28,-21 l25,6 c14,3 57,8 95,12 c55,4 78,2 103,-11 c31,-16 52,-43 52,-68 c0,-7 -89,-58 -200,-113 c-109,-54 -198,-100 -197,-101 c1,-1 36,4 77,11 c41,7 111,18 155,25 c44,6 85,12 90,14 c6,1 52,24 104,51 c100,52 139,92 121,126 c-8,14 2,28 53,72 c167,146 387,323 404,324 c10,1 41,11 68,23 c43,19 367,120 383,120 c3,0 1,-5 -6,-12 c-34,-34 0,-23 113,36 l124,66 l25,-25 c14,-14 34,-25 46,-25 c11,0 23,-6 26,-14 c8,-20 58,-36 111,-36 c65,0 170,24 395,91 c207,61 390,99 481,99 c49,0 50,-1 33,-19 c-17,-19 -16,-19 46,0 c119,37 315,47 588,29 zm137,-854 c-8,-20 -83,-39 -131,-33 c-70,10 -62,24 21,36 c42,6 82,16 87,21 c14,14 30,-4 23,-24 zm2826,-433 c-13,-2 -33,-2 -45,0 c-13,2 -3,4 22,4 c25,0 35,-2 23,-4 zm-5003,-93 c-22,-31 -49,-54 -35,-29 c10,17 47,59 52,59 c3,0 -5,-13 -17,-30 zm4978,-97 c45,-10 67,-20 60,-25 c-25,-15 -74,-7 -128,23 c-57,31 -54,31 68,2 zm-8287,-1654 c-43,-71 -17,-89 98,-69 c77,13 111,7 111,-18 c0,-28 -14,-42 -30,-32 c-35,22 -146,-5 -210,-50 c-34,-24 -37,-20 -14,15 c20,31 8,50 -36,59 c-17,3 -30,12 -30,20 c0,14 120,119 128,112 c1,-2 -6,-19 -17,-37 zm11956,-558 c16,-8 233,-294 228,-299 c-2,-3 -43,23 -90,57 c-67,48 -85,57 -80,41 c6,-20 5,-21 -17,-10 c-40,21 -87,60 -99,82 c-17,32 -29,78 -19,78 c5,0 40,-29 79,-65 c39,-36 75,-65 80,-65 c5,0 14,7 21,15 c10,12 -3,29 -73,100 c-74,75 -82,94 -30,66 zm393,-351 c16,-25 42,-83 59,-130 c17,-46 45,-101 62,-122 l30,-38 l-29,0 c-15,0 -35,6 -44,13 c-28,22 -209,298 -189,288 c25,-14 61,-14 61,-1 c0,6 -10,30 -21,53 l-21,42 l31,-30 c18,-16 45,-50 61,-75 zm-13085,-94 c-41,-127 -42,-135 -15,-111 c19,18 20,17 20,-1 c0,-44 -188,-374 -213,-374 c-4,0 -12,11 -18,23 c-17,36 23,138 139,354 c56,104 104,196 108,206 c3,10 8,16 10,15 c2,-2 -13,-53 -31,-112 zm13243,-325 c72,-115 83,-137 73,-153 c-6,-10 -9,-24 -5,-31 c3,-7 -8,2 -24,20 c-37,38 -172,265 -172,288 c0,11 7,15 22,13 c15,-2 45,-41 106,-137 zm-14383,-422 c-25,-69 -87,-199 -97,-199 c-26,0 28,144 83,222 c28,39 33,31 14,-23 zm-135,-121 c-9,-54 -15,-68 -27,-64 c-8,3 -23,6 -34,6 c-18,0 -18,3 7,53 c61,119 75,121 54,5 zm-141,-171 c-31,-62 -61,-109 -71,-113 c-24,-7 -53,-66 -68,-137 c-10,-51 -14,-58 -33,-55 c-66,9 2,174 168,403 c49,68 50,69 53,40 c3,-21 -12,-63 -49,-138 zm72,-115 c-7,-26 -29,-92 -51,-147 c-21,-55 -42,-113 -45,-128 l-7,-28 l-12,23 c-21,41 -59,35 -117,-19 l-51,-48 l14,35 c8,19 43,97 78,172 l62,137 l52,3 c46,3 52,6 66,35 c20,41 25,24 11,-35 zm-368,-545 c-26,-64 -48,-116 -49,-114 c-7,6 46,159 67,196 c12,23 24,39 26,38 c1,-2 -18,-56 -44,-120 zm306,-2225 c17,-34 41,-132 41,-171 c0,-29 -18,4 -46,84 l-28,80 l-10,-40 c-6,-27 -5,-58 3,-98 c10,-51 10,-62 -4,-83 c-8,-13 -18,-24 -22,-24 c-7,0 5,232 14,268 c8,33 30,27 52,-16 zm-1729,-2349 c7,-32 15,-65 18,-73 c3,-10 -2,-8 -17,6 c-14,13 -24,38 -28,72 c-8,71 10,67 27,-5 zm1193,-967 c17,-52 18,-59 4,-73 c-14,-14 -16,-12 -22,23 c-4,21 -11,56 -15,77 c-13,59 11,40 33,-27 zm1319,-1901 c150,-246 238,-380 310,-473 c27,-35 47,-66 44,-69 c-3,-3 -24,4 -48,16 l-43,21 l49,-46 c28,-25 84,-63 125,-84 c69,-34 152,-103 140,-114 c-3,-3 -130,61 -282,142 c-217,115 -273,148 -255,152 c36,9 51,51 38,102 c-14,51 -50,115 -79,142 c-24,22 -28,38 -6,30 c8,-3 -11,21 -43,54 c-57,59 -113,145 -127,192 c-7,23 -7,23 9,7 c39,-39 43,-11 20,128 c-5,28 -3,37 4,30 c6,-5 71,-109 144,-230 zm-355,113 c28,-31 67,-111 87,-177 c19,-66 19,-64 2,-58 c-15,6 66,-176 92,-205 c8,-10 12,-18 8,-18 c-11,0 85,-184 112,-212 c14,-16 21,-28 14,-28 c-23,0 22,-58 67,-86 c50,-32 161,-122 316,-258 c121,-106 182,-156 171,-138 c-5,8 8,5 33,-7 c39,-20 58,-39 26,-27 c-8,3 -15,4 -15,3 c0,-2 35,-31 78,-64 c88,-70 152,-133 114,-114 c-37,20 -37,-9 1,-85 c18,-38 44,-95 57,-127 c31,-78 90,-168 148,-224 c46,-46 187,-143 207,-143 c5,0 -21,28 -58,61 c-37,34 -66,63 -64,65 c4,4 435,-194 455,-209 c18,-14 15,-47 -4,-47 c-9,0 -70,32 -136,71 c-161,95 -258,137 -151,64 c80,-53 176,-147 286,-280 c178,-213 241,-267 326,-281 c42,-7 43,-8 37,-38 c-4,-17 -10,-34 -14,-38 c-13,-13 -400,289 -657,512 c-169,147 -609,587 -760,760 c-150,172 -355,428 -480,599 c-103,142 -317,457 -341,504 c-15,27 -14,27 20,27 c29,0 34,3 29,18 c-5,14 -2,14 18,-4 c50,-44 48,-33 -11,85 c-38,77 -55,121 -47,121 c8,0 23,-10 34,-22 zm318,-544 c20,-13 182,-201 218,-254 c19,-27 -234,224 -266,265 l-32,40 l28,-17 c15,-10 38,-25 52,-34 zm695,-374 l35,-19 l-32,-1 c-22,0 -36,6 -43,20 c-13,25 -5,25 40,0 zm-10,-62 c0,-5 -7,-8 -15,-8 c-15,0 -20,21 -8,33 c7,7 23,-11 23,-25 zm545,-163 c277,-107 671,-229 960,-295 c220,-51 283,-89 540,-320 c160,-144 214,-185 293,-223 c45,-21 60,-33 53,-40 c-36,-36 27,-132 123,-187 c62,-36 91,-39 83,-9 c-5,19 -4,19 11,6 c105,-89 168,-138 236,-182 c173,-112 385,-200 511,-212 c35,-3 62,-9 60,-13 c-2,-4 -32,-13 -65,-20 c-34,-7 -57,-16 -53,-20 c9,-9 276,-73 367,-90 c33,-5 96,-10 140,-11 c47,-1 71,-4 57,-8 c-39,-11 -35,-28 11,-54 c51,-30 131,-51 248,-66 c47,-6 103,-17 125,-24 l40,-12 l-52,-3 c-90,-5 -66,-26 72,-63 c159,-42 352,-10 293,49 c-17,17 -9,15 70,-17 c39,-16 73,-27 75,-24 c3,2 23,-5 44,-15 c21,-11 84,-36 140,-56 c120,-41 151,-56 177,-85 c24,-27 17,-35 -61,-68 c-122,-51 -141,-56 -229,-51 c-81,4 -86,6 -122,40 c-74,71 -177,105 -420,138 c-171,23 -319,58 -380,89 l-40,21 l-59,-21 c-60,-21 -111,-20 -197,2 c-30,8 -36,13 -27,22 c8,8 60,12 159,12 c130,0 147,2 150,17 c9,48 -65,98 -230,156 c-159,57 -291,75 -352,49 l-29,-13 l65,-27 c80,-34 138,-81 138,-111 c0,-12 -11,-36 -24,-54 l-23,-32 l-19,21 c-10,11 -65,43 -121,72 l-104,51 l-68,-68 l-68,-68 l-182,92 c-101,51 -181,94 -178,96 c2,2 30,-5 63,-16 c85,-30 187,-50 252,-50 c119,0 116,5 -62,101 c-300,160 -467,276 -482,334 c-6,25 -66,44 -479,150 c-583,150 -877,261 -1190,447 c-141,84 -189,120 -226,175 c-85,123 -67,194 46,181 l35,-4 l-46,47 c-55,56 -124,96 -183,105 c-40,6 -41,7 -19,18 c21,11 23,18 20,87 c-2,63 -5,76 -24,89 c-12,8 -31,23 -42,33 c-23,19 -37,24 199,-68 zm-200,-135 c13,-6 15,-9 5,-9 c-8,0 -22,4 -30,9 c-18,12 -2,12 25,0 zm874,-887 c2,-2 0,-3 -6,-3 c-6,0 -21,9 -34,21 l-24,20 l30,-17 c17,-10 32,-19 34,-21 zm466,-143 c23,-25 126,-93 220,-145 c39,-21 89,-51 112,-67 c32,-22 53,-28 93,-28 c64,0 187,-40 333,-109 c88,-42 107,-54 98,-65 c-15,-17 -3,-46 44,-111 c19,-27 34,-54 31,-61 c-3,-7 104,-65 262,-142 c406,-199 518,-240 674,-248 c85,-4 95,-2 136,22 c38,22 52,26 95,21 c27,-4 52,-9 55,-11 c3,-3 -7,-38 -21,-78 c-14,-40 -24,-75 -22,-79 c3,-3 30,-9 61,-13 c57,-7 385,-75 393,-82 c3,-2 -6,-15 -19,-29 c-20,-21 -32,-25 -84,-25 c-80,0 -149,20 -351,102 c-398,162 -495,194 -620,205 c-69,6 -70,6 -118,59 c-33,37 -71,64 -118,88 l-71,34 l-25,-26 c-22,-22 -31,-24 -78,-19 c-69,7 -178,55 -345,151 c-74,43 -190,110 -258,148 c-67,39 -121,73 -118,75 c2,2 28,-3 57,-11 c71,-22 101,-21 97,2 c-5,24 -84,64 -202,102 c-56,18 -127,46 -158,62 c-72,38 -155,115 -139,131 c8,8 -5,20 -47,43 c-31,18 -68,44 -81,58 l-24,25 l47,12 c25,6 49,15 52,20 c8,14 19,11 39,-11 zm-345,-408 c70,-49 126,-96 128,-106 c4,-17 -1,-18 -63,-11 l-68,7 l5,-31 c2,-17 1,-31 -3,-31 c-4,0 -32,27 -63,60 c-39,43 -60,75 -71,112 c-18,63 -19,88 -2,87 c6,0 68,-40 137,-87 zm160,-77 c16,-8 55,-36 85,-60 c30,-25 70,-54 88,-65 c17,-11 28,-20 23,-20 c-16,0 -225,134 -230,148 c-7,16 -1,15 34,-3 zm490,-101 c37,-19 82,-51 101,-71 l34,-35 l-45,22 c-44,22 -210,130 -210,136 c0,6 54,-17 120,-52 zm-60,-192 c63,-36 133,-76 155,-89 l40,-25 l-40,7 c-85,13 -245,105 -315,181 l-35,37 l40,-23 c22,-12 92,-52 155,-88 zm1490,95 c0,-22 33,-47 97,-73 l58,-24 l-55,-2 c-146,-6 -253,13 -304,53 c-44,34 -28,44 85,50 c57,3 107,6 112,7 c4,1 7,-4 7,-11 zm1589,-8 l26,-1 l-25,-8 c-44,-14 -97,-11 -111,7 c-13,15 -10,16 35,10 c27,-4 61,-7 75,-8 zm-1419,-164 l75,-14 l-69,6 c-39,3 -81,9 -95,14 c-43,12 4,9 89,-6 zm2159,-35 c51,-11 95,-20 96,-22 c2,-2 7,-66 10,-144 c9,-163 2,-193 -52,-248 c-47,-47 -82,-56 -238,-63 c-168,-7 -325,12 -664,80 l-259,53 l137,42 c109,34 222,62 247,62 c2,0 4,14 4,30 c0,17 6,32 13,34 c6,2 40,10 75,18 c57,13 63,13 78,-3 c17,-19 13,-24 -36,-34 c-74,-15 -78,-39 -10,-54 c105,-23 230,-7 274,34 c41,38 33,49 -44,69 c-69,18 -94,33 -68,40 c7,2 32,9 56,15 c47,13 54,32 20,55 c-21,15 -21,17 -6,32 c34,34 203,36 367,4 zm-3194,-74 c61,-27 220,-103 355,-171 c278,-139 413,-199 552,-246 c94,-33 96,-34 102,-68 c3,-19 4,-36 2,-38 c-4,-4 -297,96 -441,150 c-248,93 -605,250 -824,362 c-133,68 -133,67 14,62 c129,-4 130,-4 240,-51 zm1605,-582 c255,-58 356,-89 428,-130 c48,-28 54,-39 17,-32 c-33,7 -32,2 8,-23 c29,-19 29,-20 7,-16 c-14,3 -90,18 -169,33 c-143,27 -144,27 -120,45 l24,18 l-30,11 c-98,39 -179,49 -245,29 c-32,-10 -53,-8 -129,11 c-97,24 -104,29 -115,75 c-4,17 -19,42 -33,57 l-26,27 l70,-24 c38,-14 179,-50 313,-81 zm-436,5 c107,-30 121,-37 140,-67 c26,-41 52,-47 126,-33 c51,10 71,9 152,-9 c120,-28 131,-31 124,-37 c-3,-3 -114,-9 -248,-13 c-273,-8 -277,-8 -348,61 c-42,41 -102,145 -78,137 c7,-2 67,-20 132,-39 z" fill="none" id="svg_2" opacity="1"/>
    <path d="M11165.33345413208,24463.999755859633 c3,-17 14,-19 93,-21 l90,-1 l-44,14 c-25,7 -67,17 -94,20 c-44,6 -49,5 -45,-12 z" id="svg_3" opacity="1"/>
    <path d="M10671.33345413208,24427.999755859633 c5,-5 74,-22 153,-39 c79,-16 158,-34 174,-39 c19,-5 57,-4 105,4 c90,15 85,16 -135,45 c-228,31 -306,38 -297,29 z" id="svg_4" opacity="1"/>
    <path d="M7553.33345413208,24375.999755859633 c-36,-13 -119,-63 -87,-52 c9,3 58,15 107,27 c49,11 92,25 96,30 c8,13 -76,10 -116,-5 z" id="svg_5" opacity="1"/>
    <path d="M13518.33345413208,24093.999755859633 c19,-25 35,-51 35,-59 c0,-7 12,-18 28,-24 c23,-10 171,-41 190,-41 c4,0 -20,14 -53,31 c-33,17 -99,55 -147,85 l-88,54 l35,-46 z" id="svg_6" opacity="1"/>
    <path d="M7088.33345413208,24015.999755859633 c-327,-114 -587,-220 -845,-344 c-159,-77 -159,-85 1,-57 c140,24 308,86 611,226 c73,34 177,81 230,104 c105,47 259,147 221,144 c-5,0 -102,-33 -218,-73 z" id="svg_7" opacity="1"/>
    <path d="M6672.33345413208,24062.999755859633 c-8,-11 -47,-37 -88,-59 c-71,-38 -102,-66 -89,-80 c4,-3 21,-1 38,5 c29,9 31,9 25,-7 c-4,-12 3,-9 22,9 c15,15 40,34 56,44 c15,10 30,29 33,44 c4,14 11,32 17,39 c5,7 7,15 4,18 c-3,3 -11,-3 -18,-13 z" id="svg_8" opacity="1"/>
    <path d="M6158.33345413208,23818.999755859633 c-148,-50 -259,-73 -286,-58 c-16,8 -25,7 -37,-4 c-29,-24 -123,-72 -238,-122 c-60,-26 -121,-55 -135,-66 c-24,-18 -24,-18 25,-4 c113,34 105,8 -37,-124 c-68,-62 -82,-72 -110,-69 c-24,2 -33,8 -35,26 c-4,27 -36,30 -72,5 c-34,-23 -221,-172 -240,-191 c-8,-8 36,19 98,61 c62,43 114,77 116,77 c1,0 -1,-21 -5,-47 c-12,-75 -11,-76 34,-40 c76,63 169,117 199,117 c16,0 40,-7 53,-16 c32,-21 71,-8 163,55 c95,66 93,65 85,45 c-3,-9 27,8 68,38 c41,31 135,93 209,138 c160,97 231,150 250,185 c7,14 11,26 9,28 c-2,2 -53,-14 -114,-34 z" id="svg_9" opacity="1"/>
    <path d="M5902.33345413208,23832.999755859633 c-36,-43 -40,-55 -9,-26 c19,18 32,35 29,38 c-3,3 -12,-3 -20,-12 z" id="svg_10" opacity="1"/>
    <path d="M5180.33345413208,23212.999755859633 c-4,-3 -7,-11 -7,-17 c0,-6 5,-5 12,2 c6,6 9,14 7,17 c-3,3 -9,2 -12,-2 z" id="svg_11" opacity="1"/>
    <path d="M4008.33345413208,22400.999755859633 c-101,-39 -115,-49 -131,-86 c-37,-90 -1,-75 146,58 c35,31 62,57 59,56 c-2,-1 -35,-13 -74,-28 z" id="svg_12" opacity="1"/>
    <path d="M3568.33345413208,21962.999755859633 c-92,-118 -88,-112 -64,-106 c12,3 36,29 53,57 c55,86 78,126 74,126 c-2,0 -30,-35 -63,-77 z" id="svg_13" opacity="1"/>
    <path d="M1629.33345413208,17679.999755859633 c-19,-186 -19,-186 -5,-172 c7,6 21,12 30,12 c22,0 30,21 36,106 c5,65 4,73 -18,92 c-12,12 -26,22 -30,22 c-4,0 -10,-27 -13,-60 z" id="svg_14" opacity="1"/>
    <path d="M1522.33345413208,15582.999755859633 c-6,-16 -10,-103 -9,-200 c0,-170 1,-173 25,-198 c27,-26 29,-25 39,34 c7,41 32,71 58,71 c22,0 22,-8 2,-71 c-23,-69 -10,-106 66,-194 c57,-65 67,-86 88,-175 c5,-19 15,-35 22,-35 c58,0 16,323 -53,404 c-13,16 -37,65 -52,108 c-70,195 -87,233 -116,258 c-39,32 -57,32 -70,-2 z" id="svg_15" opacity="1"/>
    <path d="M3079.33345413208,12992.999755859633 c29,-76 34,-85 34,-57 c0,20 -45,124 -54,124 c-3,0 6,-30 20,-67 z" id="svg_16" opacity="1"/>
    <path d="M10931.33345413208,25872.999755859633 c12,-2 32,-2 45,0 c12,2 2,4 -23,4 c-25,0 -35,-2 -22,-4 z" id="svg_17" opacity="1"/>
    <path d="M11011.33345413208,25872.999755859633 c6,-2 18,-2 25,0 c6,3 1,5 -13,5 c-14,0 -19,-2 -12,-5 z" id="svg_18" opacity="1"/>
    <path d="M11273.33345413208,25834.999755859633 c0,-22 -54,-46 -179,-76 c-110,-27 -157,-51 -144,-72 c11,-18 146,0 218,28 c62,25 76,27 149,21 l81,-7 l-60,61 c-33,33 -61,60 -62,60 c-2,0 -3,-7 -3,-15 z" id="svg_19" opacity="1"/>
    <path d="M9701.33345413208,25832.999755859633 c7,-3 16,-2 19,1 c4,3 -2,6 -13,5 c-11,0 -14,-3 -6,-6 z" id="svg_20" opacity="1"/>
    <path d="M8938.33345413208,25794.999755859633 c6,-3 47,-10 91,-18 c69,-12 86,-12 108,0 c14,7 26,16 26,18 c0,3 -53,5 -117,4 c-65,0 -113,-2 -108,-4 z" id="svg_21" opacity="1"/>
    <path d="M10968.33345413208,25483.999755859633 l100,-66 l135,6 c74,4 216,11 315,18 c163,10 520,6 630,-7 l40,-5 l-40,16 c-78,30 -242,64 -353,73 c-80,6 -180,5 -340,-5 c-240,-15 -383,-9 -507,21 c-33,8 -64,14 -70,14 c-5,1 35,-29 90,-65 z" id="svg_22" opacity="1"/>
    <path d="M7574.33345413208,25491.999755859633 c-63,-28 -96,-48 -85,-50 c11,-2 67,19 124,47 c133,63 100,66 -39,3 z" id="svg_23" opacity="1"/>
    <path d="M16257.33345413208,23693.999755859633 c41,-38 131,-94 151,-94 c3,0 5,6 5,13 c0,23 -43,54 -125,91 l-80,36 l49,-46 z" id="svg_24" opacity="1"/>
    <path d="M3367.33345413208,23422.999755859633 c-42,-53 -76,-103 -71,-103 c4,0 84,101 100,127 c16,26 0,12 -29,-24 z" id="svg_25" opacity="1"/>
    <path d="M3082.33345413208,23212.999755859633 l-24,-28 l28,24 c15,14 27,26 27,28 c0,8 -8,1 -31,-24 z" id="svg_26" opacity="1"/>
    <path d="M3019.33345413208,23137.999755859633 c-8,-12 -96,-107 -194,-212 c-193,-206 -363,-398 -357,-404 c2,-3 41,30 87,72 c46,41 108,94 138,117 c48,36 59,40 91,35 c36,-6 39,-4 89,56 c63,76 82,111 109,213 c12,44 31,94 42,112 c23,37 19,45 -5,11 z" id="svg_27" opacity="1"/>
    <path d="M2189.33345413208,22235.999755859633 c-23,-24 -52,-63 -65,-87 c-22,-40 -17,-37 52,36 c42,44 76,83 77,88 c1,19 -27,3 -64,-37 z" id="svg_28" opacity="1"/>
    <path d="M1850.33345413208,21287.999755859633 c-14,-18 -37,-58 -52,-88 l-27,-54 l35,31 c44,38 70,47 97,33 c19,-10 20,-8 20,34 c0,24 -3,51 -6,60 c-10,26 -41,18 -67,-16 z" id="svg_29" opacity="1"/>
    <path d="M18813.33345413208,19947.999755859633 c0,-3 18,-35 39,-70 c114,-188 257,-543 287,-712 l7,-39 l-54,31 c-30,17 -57,37 -61,44 c-3,7 -11,49 -18,93 c-17,116 -63,251 -138,408 c-36,75 -67,136 -68,134 c-2,-1 8,-34 22,-72 c14,-39 52,-167 85,-285 c58,-212 72,-304 49,-340 c-13,-22 -24,-8 -85,111 c-52,101 -53,102 -48,56 c4,-36 22,-73 78,-160 c103,-158 136,-200 146,-190 c8,8 -17,124 -41,187 c-13,35 8,35 45,-1 c36,-36 83,-139 130,-283 c41,-129 54,-158 55,-122 c0,27 2,27 50,0 c21,-13 42,-19 46,-15 c4,4 -16,55 -44,114 c-28,60 -54,121 -58,136 c-6,26 -4,28 16,25 c31,-4 87,-106 104,-190 c11,-54 14,-59 20,-35 c3,15 10,27 15,27 c5,0 25,-20 46,-45 c20,-25 41,-43 46,-40 c5,4 9,26 9,49 c0,52 -89,274 -210,524 c-94,194 -159,304 -256,432 c-64,85 -214,244 -214,228 z" id="svg_30" opacity="1"/>
    <path d="M18459.33345413208,19652.999755859633 c-4,-9 1,-25 13,-37 c10,-12 40,-56 66,-99 c45,-75 78,-107 89,-88 c3,5 0,11 -8,14 c-7,3 -39,55 -70,116 c-55,107 -77,130 -90,94 z" id="svg_31" opacity="1"/>
    <path d="M895.3334541320801,19609.999755859633 c0,-14 2,-19 5,-12 c2,6 2,18 0,25 c-3,6 -5,1 -5,-13 z" id="svg_32" opacity="1"/>
    <path d="M18459.33345413208,19502.999755859633 c3,-16 8,-48 12,-72 c6,-36 13,-48 39,-62 l32,-18 l-25,57 c-15,31 -32,72 -40,90 c-17,39 -25,41 -18,5 z" id="svg_33" opacity="1"/>
    <path d="M18764.33345413208,19484.999755859633 c0,-5 8,-26 19,-45 c11,-19 19,-30 19,-25 c0,6 -8,26 -19,45 c-11,19 -19,31 -19,25 z" id="svg_34" opacity="1"/>
    <path d="M17823.33345413208,19041.999755859633 c0,-7 25,-52 55,-99 c30,-48 55,-79 55,-70 c0,10 -19,48 -42,85 c-48,77 -68,102 -68,84 z" id="svg_35" opacity="1"/>
    <path d="M18103.33345413208,18961.999755859633 c0,-4 25,-37 55,-72 c30,-36 73,-101 96,-145 c43,-85 43,-72 1,35 c-29,75 -60,126 -93,156 c-27,23 -59,38 -59,26 z" id="svg_36" opacity="1"/>
    <path d="M17963.33345413208,18915.999755859633 c0,-2 14,-36 30,-76 c37,-90 72,-147 165,-270 c94,-124 133,-189 161,-264 l22,-61 l7,39 c12,60 -17,301 -38,322 c-2,3 -16,-1 -30,-7 c-41,-19 -65,5 -137,136 c-64,118 -123,185 -162,185 c-10,0 -18,-2 -18,-4 z" id="svg_37" opacity="1"/>
    <path d="M18874.33345413208,18895.999755859633 c-10,-11 -9,-21 2,-43 c8,-15 36,-86 62,-157 c53,-147 74,-192 120,-256 c45,-64 95,-315 102,-518 l6,-143 l42,-47 c23,-26 47,-56 54,-67 c12,-19 12,-19 8,2 c-4,20 1,24 36,33 c108,28 108,28 92,59 c-13,26 -47,192 -40,199 c3,4 85,-132 187,-311 l45,-78 l19,38 c16,32 19,60 19,173 c0,114 -6,165 -37,325 c-21,105 -39,204 -41,220 l-3,30 l-16,-37 c-17,-39 -35,-47 -56,-26 c-6,6 -14,9 -17,6 c-3,-3 -9,-52 -12,-109 l-6,-103 l-88,93 l-87,94 l-30,184 c-27,166 -32,186 -57,211 c-15,15 -41,46 -58,70 c-61,84 -83,28 -36,-93 c17,-42 27,-80 24,-84 c-13,-12 -56,56 -110,179 c-51,113 -86,170 -106,170 c-3,0 -12,-6 -18,-14 z" id="svg_38" opacity="1"/>
    <path d="M219.33345413208008,17805.999755859633 c-9,-48 -20,-94 -23,-102 c-3,-8 2,-13 14,-12 c10,0 26,-3 36,-7 c17,-7 18,-3 12,66 c-4,41 -10,90 -14,109 c-6,32 -9,27 -25,-54 z" id="svg_39" opacity="1"/>
    <path d="M19288.33345413208,17539.999755859633 c18,-174 13,-244 -18,-264 c-11,-7 -10,-20 9,-80 c13,-39 31,-98 41,-131 c17,-56 21,-61 55,-69 c43,-11 54,-33 62,-124 c6,-60 -9,-122 -31,-129 c-7,-3 -22,10 -33,29 c-11,18 -20,29 -20,23 c0,-5 21,-111 47,-235 l48,-225 l5,144 c4,112 8,141 17,130 c21,-26 32,-103 37,-269 c5,-168 19,-244 52,-271 c18,-15 18,6 -1,266 c-19,256 -19,259 1,251 c11,-4 14,-1 10,12 c-27,89 -38,428 -13,420 c6,-3 18,-15 25,-29 c12,-21 12,-18 6,31 c-9,79 -41,198 -62,234 c-10,17 -33,40 -50,51 c-116,71 -125,83 -164,198 c-24,71 -27,76 -23,37 z" id="svg_40" opacity="1"/>
    <path d="M284.3334541320801,16586.999755859633 c-1,-70 3,-106 9,-102 c12,7 12,87 0,160 c-6,42 -8,33 -9,-58 z" id="svg_41" opacity="1"/>
    <path d="M18560.33345413208,15374.999755859633 c-17,-251 -20,-405 -9,-405 c7,0 12,12 12,28 c0,15 7,63 16,107 c16,80 14,234 -4,330 c-7,34 -9,25 -15,-60 z" id="svg_42" opacity="1"/>
    <path d="M404.3334541320801,15193.999755859633 c0,-11 3,-14 6,-6 c3,7 2,16 -1,19 c-3,4 -6,-2 -5,-13 z" id="svg_43" opacity="1"/>
    <path d="M118.33345413208008,15146.999755859633 c-9,-33 -1,-76 32,-182 c22,-69 27,-77 34,-57 c6,16 2,50 -15,110 c-13,48 -28,103 -33,122 l-10,35 l-8,-28 z" id="svg_44" opacity="1"/>
    <path d="M415.3334541320801,15144.999755859633 c0,-16 2,-22 5,-12 c2,9 2,23 0,30 c-3,6 -5,-1 -5,-18 z" id="svg_45" opacity="1"/>
    <path d="M19357.33345413208,12790.999755859633 c-22,-27 -54,-84 -37,-66 c20,22 65,87 62,89 c-2,2 -13,-8 -25,-23 z" id="svg_46" opacity="1"/>
    <path d="M18199.33345413208,10452.999755859633 c-20,-32 -27,-46 -14,-31 c26,30 62,88 55,88 c-2,0 -21,-26 -41,-57 z" id="svg_47" opacity="1"/>
    <path d="M18113.33345413208,10329.999755859633 c-22,-33 -38,-60 -36,-60 c3,0 24,27 46,60 c22,33 38,60 36,60 c-3,0 -24,-27 -46,-60 z" id="svg_48" opacity="1"/>
    <path d="M17955.33345413208,10107.999755859633 c-126,-176 -303,-405 -457,-593 c-58,-71 -87,-110 -64,-85 c123,133 658,830 636,830 c-2,0 -54,-69 -115,-152 z" id="svg_49" opacity="1"/>
    <path d="M17357.33345413208,9347.999755859633 l-29,-33 l33,29 c30,28 37,36 29,36 c-2,0 -16,-15 -33,-32 z" id="svg_50" opacity="1"/>
    <path d="M17084.33345413208,9178.999755859633 c-3,-42 -169,-239 -201,-239 c-7,0 -9,13 -4,35 c3,19 4,35 1,35 c-4,0 -122,-211 -167,-300 c-8,-14 21,7 66,50 c44,41 139,131 211,199 l132,124 l-14,36 c-8,20 -16,45 -18,56 c-3,13 -5,14 -6,4 z" id="svg_51" opacity="1"/>
    <path d="M16041.33345413208,8916.999755859633 c-10,-21 -14,-37 -9,-37 c16,0 33,29 29,51 c-3,19 -5,17 -20,-14 z" id="svg_52" opacity="1"/>
    <path d="M3188.33345413208,8781.999755859633 c11,-11 109,-99 218,-197 c166,-150 197,-182 197,-205 c0,-17 16,-49 40,-81 c36,-49 44,-54 109,-70 c99,-25 125,-41 126,-75 c0,-23 11,-36 65,-73 c36,-24 144,-123 240,-220 c163,-164 175,-174 178,-148 c2,16 10,31 17,34 c26,9 123,-45 342,-193 c148,-100 258,-166 343,-206 c159,-75 310,-158 310,-171 c0,-9 -63,-5 -120,8 c-41,10 278,-124 336,-141 c30,-9 62,-13 71,-10 c9,4 119,-44 264,-114 c234,-113 414,-192 504,-220 c22,-7 57,-26 78,-42 c27,-22 44,-28 61,-24 c16,4 70,-11 158,-43 c1055,-386 2294,-606 3378,-600 c183,1 216,3 150,9 c-47,5 -143,19 -215,33 c-71,14 -148,28 -170,32 l-40,7 l38,15 c69,28 50,38 -105,54 c-120,12 -182,31 -176,51 c10,30 179,36 332,13 c55,-8 103,-15 108,-15 c22,0 3,37 -42,82 c-27,28 -50,58 -50,68 c0,24 -75,35 -210,34 c-101,-1 -142,-10 -340,-68 c-145,-43 -264,-55 -380,-37 c-41,7 -76,14 -79,17 c-2,2 8,17 22,32 c32,33 34,48 9,61 c-25,13 -135,37 -207,45 c-109,12 -169,28 -256,67 c-97,44 -160,50 -245,24 c-27,-8 -51,-15 -53,-15 c-3,0 5,39 14,63 c5,11 -13,15 -95,21 c-131,9 -293,36 -554,91 c-115,25 -211,45 -213,45 c-2,0 -2,4 1,9 c3,4 -61,21 -142,36 c-201,38 -324,73 -477,135 c-71,29 -197,77 -280,106 c-82,29 -132,51 -110,48 c47,-6 285,-20 285,-17 c0,1 -14,10 -32,19 c-61,31 -138,53 -250,69 c-62,9 -132,25 -156,35 c-38,17 -42,22 -32,39 c6,12 24,24 42,29 c27,7 17,11 -93,41 c-220,60 -431,121 -569,165 c-159,51 -191,58 -210,46 c-12,-7 -3,-22 44,-69 c33,-33 57,-64 53,-68 c-12,-12 -96,24 -186,80 c-90,55 -234,186 -214,194 c6,2 42,-5 78,-16 c79,-25 95,-26 95,-7 c0,28 -32,37 -197,57 l-168,21 l-37,36 c-21,20 -41,45 -44,55 c-20,62 92,40 450,-89 c98,-36 180,-63 183,-61 c6,6 -110,78 -193,120 c-38,19 -125,58 -194,87 c-171,72 -288,132 -395,203 l-90,60 l51,-54 c53,-57 134,-171 134,-188 c0,-17 -57,-13 -93,5 c-54,28 -146,92 -297,209 c-80,61 -163,125 -184,141 l-40,29 l28,-42 c36,-54 30,-78 -16,-68 c-18,4 -79,25 -136,47 c-104,40 -146,68 -275,182 c-62,55 -67,61 -51,73 c10,7 25,13 34,13 c9,0 24,6 34,13 c16,12 4,26 -140,153 c-87,76 -168,147 -180,156 c-20,17 -21,16 -16,-7 c2,-14 1,-25 -4,-25 c-4,0 -42,18 -85,40 c-84,43 -116,51 -84,22 z" id="svg_53" opacity="1"/>
    <path d="M16597.33345413208,8784.999755859633 c-36,-15 -150,-120 -223,-204 l-49,-56 l53,-88 l53,-88 l41,48 c110,128 105,227 -10,196 c-21,-5 -39,-7 -39,-3 c0,12 70,70 97,81 c13,5 35,9 47,9 c28,0 52,25 67,69 c15,42 3,53 -37,36 z" id="svg_54" opacity="1"/>
    <path d="M16102.33345413208,8128.999755859633 c-86,-59 -105,-76 -96,-85 c13,-14 66,19 123,77 c32,32 56,59 53,59 c-3,0 -39,-23 -80,-51 z" id="svg_55" opacity="1"/>
    <path d="M4403.33345413208,8165.999755859633 c0,-2 8,-10 18,-17 c15,-13 16,-12 3,4 c-13,16 -21,21 -21,13 z" id="svg_56" opacity="1"/>
    <path d="M4458.33345413208,8119.999755859633 c10,-11 20,-20 23,-20 c3,0 -3,9 -13,20 c-10,11 -20,20 -23,20 c-3,0 3,-9 13,-20 z" id="svg_57" opacity="1"/>
    <path d="M15421.33345413208,7698.999755859633 c-21,-11 -38,-22 -38,-24 c0,-3 18,4 40,15 c22,11 40,23 40,25 c0,7 0,7 -42,-16 z" id="svg_58" opacity="1"/>
    <path d="M11158.33345413208,7579.999755859633 c-55,-16 -116,-29 -135,-30 l-35,-1 l49,-19 c28,-11 56,-26 64,-34 c10,-10 18,-11 26,-4 c6,5 42,26 81,46 c40,21 71,45 73,55 c4,22 -2,21 -123,-13 z" id="svg_59" opacity="1"/>
    <path d="M15164.33345413208,7568.999755859633 c-46,-22 -89,-46 -95,-53 c-6,-8 -66,-43 -134,-77 l-122,-62 l-39,21 c-21,12 -45,22 -54,22 c-15,0 -103,-108 -94,-116 c2,-2 42,12 88,31 l83,36 l40,-22 c62,-35 121,-30 219,20 c45,22 93,49 106,60 l25,19 l-54,33 l-53,32 l87,44 c47,24 86,45 86,48 c0,6 8,10 -89,-36 z" id="svg_60" opacity="1"/>
    <path d="M9421.33345413208,7552.999755859633 c6,-2 18,-2 25,0 c6,3 1,5 -13,5 c-14,0 -19,-2 -12,-5 z" id="svg_61" opacity="1"/>
    <path d="M10916.33345413208,7532.999755859633 c9,-2 23,-2 30,0 c6,3 -1,5 -18,5 c-16,0 -22,-2 -12,-5 z" id="svg_62" opacity="1"/>
    <path d="M14528.33345413208,7262.999755859633 c-43,-19 -81,-36 -84,-38 c-2,-3 23,-5 56,-5 c58,0 62,2 88,36 c15,19 25,37 24,38 c-2,1 -40,-13 -84,-31 z" id="svg_63" opacity="1"/>
    <path d="M13568.33345413208,6919.999755859633 c-415,-142 -475,-165 -558,-216 c-43,-27 -62,-33 -70,-25 c-25,25 -63,9 -165,-70 c-57,-45 -102,-82 -100,-84 c2,-2 50,3 108,10 c58,7 107,11 108,10 c8,-7 -110,-68 -204,-105 c-115,-45 -353,-109 -524,-141 c-106,-19 -420,-39 -420,-27 c0,3 39,18 88,33 c48,15 143,56 212,91 c127,65 234,97 405,124 c129,20 126,19 76,43 c-55,27 -61,41 -24,61 c38,21 27,20 -49,-4 c-99,-30 -378,-96 -528,-124 c-180,-34 -400,-67 -775,-116 c-388,-50 -726,-100 -744,-110 c-7,-4 12,-10 45,-14 c75,-9 134,-24 134,-36 c0,-12 -43,-24 -202,-59 c-198,-43 -258,-74 -214,-110 c11,-10 46,-7 159,13 c171,31 178,31 170,10 c-5,-14 1,-15 43,-10 c27,3 117,11 199,17 c83,6 152,13 154,15 c2,2 -11,11 -29,21 c-66,36 -95,59 -98,77 c-4,17 5,18 146,15 c139,-4 153,-6 179,-27 c46,-37 104,-60 181,-70 c66,-10 95,-7 355,39 c155,27 289,49 297,49 c13,0 13,-1 0,-11 c-19,-13 24,-2 60,16 c14,7 72,22 130,34 c154,33 472,113 655,166 c439,126 1164,392 1273,467 c61,42 54,60 -29,74 c-109,18 -120,29 -74,78 c13,14 19,25 12,25 c-7,-1 -178,-59 -382,-129 z" id="svg_64" opacity="1"/>
    <path d="M10581.33345413208,6002.999755859633 c7,-3 16,-2 19,1 c4,3 -2,6 -13,5 c-11,0 -14,-3 -6,-6 z" id="svg_65" opacity="1"/>
    <path d="M10426.33345413208,5992.999755859633 c26,-2 68,-2 95,0 c26,2 4,3 -48,3 c-52,0 -74,-1 -47,-3 z" id="svg_66" opacity="1"/>
  </g>
</svg>